<?xml version="1.0" encoding="utf-8"?>
<!-- Generator: Adobe Illustrator 28.1.0, SVG Export Plug-In . SVG Version: 6.00 Build 0)  -->
<svg version="1.1" id="Capa_1" xmlns="http://www.w3.org/2000/svg" xmlns:xlink="http://www.w3.org/1999/xlink" x="0px" y="0px"
	 viewBox="0 0 512 512" style="enable-background:new 0 0 512 512;" xml:space="preserve">
<style type="text/css">
	
		.st0{fill:url(#SVGID_1_);stroke:url(#SVGID_00000128445835510093982090000015486686440583060924_);stroke-width:3;stroke-miterlimit:10;}
	
		.st1{fill:url(#SVGID_00000145772462996341461720000007544652992880487082_);stroke:url(#SVGID_00000096043540880264418670000011834237682592859275_);stroke-width:3;stroke-miterlimit:10;}
	
		.st2{fill:url(#SVGID_00000111903291415714928890000015481234346729156790_);stroke:url(#SVGID_00000070798494434274068400000003628544897547759287_);stroke-width:3;stroke-miterlimit:10;}
	
		.st3{fill:url(#SVGID_00000134965077092654216300000013679649444600854163_);stroke:url(#SVGID_00000163070355963318356980000014322325254312169388_);stroke-width:3;stroke-miterlimit:10;}
	
		.st4{fill:url(#SVGID_00000122720380760867209380000015557959963330277565_);stroke:url(#SVGID_00000067203303538191829040000007512926367374420383_);stroke-width:3;stroke-miterlimit:10;}
	
		.st5{fill:url(#SVGID_00000117641235642536574270000010857868595927168949_);stroke:url(#SVGID_00000065794989428365707420000004165519455864134310_);stroke-width:3;stroke-miterlimit:10;}
	
		.st6{fill:url(#SVGID_00000155859500769309764370000004677138004933197194_);stroke:url(#SVGID_00000029743496734392993020000007110238747283375268_);stroke-width:3;stroke-miterlimit:10;}
	
		.st7{fill:url(#SVGID_00000012473978175868448090000014930585290140049816_);stroke:url(#SVGID_00000037652702198703593210000017992835885867838100_);stroke-width:3;stroke-miterlimit:10;}
	
		.st8{fill:url(#SVGID_00000004511920336107952640000018439375232444995225_);stroke:url(#SVGID_00000152978385823723483290000014649233056770277565_);stroke-width:3;stroke-miterlimit:10;}
	
		.st9{fill:url(#SVGID_00000099640967181539476320000005386297297504975275_);stroke:url(#SVGID_00000029745528284926164970000016430093906703010231_);stroke-width:3;stroke-miterlimit:10;}
	
		.st10{fill:url(#SVGID_00000109025355658724882190000014386673781031273641_);stroke:url(#SVGID_00000118396454005703664930000018248381781859119277_);stroke-width:3;stroke-miterlimit:10;}
	
		.st11{fill:url(#SVGID_00000165199813977854514550000007360792692923072691_);stroke:url(#SVGID_00000131357963718362809950000005962402574821408133_);stroke-width:3;stroke-miterlimit:10;}
	
		.st12{fill:url(#SVGID_00000000206124640932891730000002913172263764794762_);stroke:url(#SVGID_00000043421284638434423430000001118007927042385854_);stroke-width:3;stroke-miterlimit:10;}
	
		.st13{fill:url(#SVGID_00000162338218007332122230000011314986734760119169_);stroke:url(#SVGID_00000138534295739389922920000004918618407965345696_);stroke-width:3;stroke-miterlimit:10;}
	
		.st14{fill:url(#SVGID_00000169520899396262725900000009651613982119277744_);stroke:url(#SVGID_00000093170263564063495210000007754846344548522930_);stroke-width:3;stroke-miterlimit:10;}
	
		.st15{fill:url(#SVGID_00000105388913881013637830000003275420265824265149_);stroke:url(#SVGID_00000143602192615425544480000005997002811470155665_);stroke-width:3;stroke-miterlimit:10;}
	
		.st16{fill:url(#SVGID_00000169560362280469204920000000394038439766676395_);stroke:url(#SVGID_00000170238912790114427620000002209805545537182357_);stroke-width:2;stroke-miterlimit:10;}
	
		.st17{fill:url(#SVGID_00000093153734605367538460000012202890162497250998_);stroke:url(#SVGID_00000163758281217631084650000002837668091332620974_);stroke-width:3;stroke-miterlimit:10;}
	
		.st18{fill:url(#SVGID_00000167371728769464924110000005247776421167016892_);stroke:url(#SVGID_00000137853836416324886830000012771427241114925973_);stroke-width:3;stroke-miterlimit:10;}
	
		.st19{fill:url(#SVGID_00000050651068918291780910000004908122835982918547_);stroke:url(#SVGID_00000054228121872773262380000001612886677600997540_);stroke-width:3;stroke-miterlimit:10;}
	
		.st20{fill:url(#SVGID_00000086651162787647697690000014700357064507347584_);stroke:url(#SVGID_00000055695098162484407520000009999328066676555651_);stroke-width:3;stroke-miterlimit:10;}
	
		.st21{fill:url(#SVGID_00000031894354372503164870000008500429043790060941_);stroke:url(#SVGID_00000155840543714150002440000016752987155577085570_);stroke-width:3;stroke-miterlimit:10;}
	
		.st22{fill:url(#SVGID_00000097468739820184696110000002356650427366940562_);stroke:url(#SVGID_00000175321629396778430090000007475072827568558722_);stroke-width:3;stroke-miterlimit:10;}
	
		.st23{fill:url(#SVGID_00000035505753054971792300000004844738776085867682_);stroke:url(#SVGID_00000042721826087123904540000010790224864143098551_);stroke-width:3;stroke-miterlimit:10;}
	
		.st24{fill:url(#SVGID_00000147206632376056277040000017925293001589333921_);stroke:url(#SVGID_00000064340400920048384250000002575440031297590187_);stroke-width:3;stroke-miterlimit:10;}
	
		.st25{fill:url(#SVGID_00000087409511363586357640000008593100676857264522_);stroke:url(#SVGID_00000007422725085047752870000012983272992006217364_);stroke-width:3;stroke-miterlimit:10;}
	
		.st26{fill:url(#SVGID_00000067221116945342086280000000756405609940946605_);stroke:url(#SVGID_00000180348946813566359270000002617849593391070095_);stroke-width:3;stroke-miterlimit:10;}
	.st27{fill:url(#SVGID_00000123400172718804978100000007072500636739722627_);}
	
		.st28{fill:url(#SVGID_00000093898171446563209790000014983129829578231938_);stroke:url(#SVGID_00000115490625794571991790000001548340348972079751_);stroke-width:3;stroke-miterlimit:10;}
	
		.st29{fill:url(#SVGID_00000165947563990609489700000018049687720134171050_);stroke:url(#SVGID_00000005235569039459524660000015641483311508294273_);stroke-width:3;stroke-miterlimit:10;}
	
		.st30{fill:url(#SVGID_00000032648730572554639690000001336391465467137207_);stroke:url(#SVGID_00000087387244980444205240000014157602747880540579_);stroke-width:3;stroke-miterlimit:10;}
	
		.st31{fill:url(#SVGID_00000153696235945692137300000005051966445399430581_);stroke:url(#SVGID_00000112616299621731056860000004964428453879580048_);stroke-width:3;stroke-miterlimit:10;}
	
		.st32{fill:url(#SVGID_00000135679006115768655120000004571162732720527275_);stroke:url(#SVGID_00000183237613259896984230000015220396921559923077_);stroke-width:3;stroke-miterlimit:10;}
	.st33{fill:#1A1A1A;}
	.st34{fill:url(#SVGID_00000028298103878496697130000008024063286961475480_);}
	.st35{fill:url(#SVGID_00000173141747156395486520000007976404232548775326_);}
	.st36{fill:url(#SVGID_00000114780594566592824380000006386525078040118935_);}
	.st37{fill:url(#SVGID_00000100384802772437394440000006794941029961327005_);}
	.st38{fill:url(#SVGID_00000036236770707723864590000007333674179738810285_);}
	.st39{fill:url(#SVGID_00000034090249295369043990000008533217331130185890_);}
	.st40{fill:url(#SVGID_00000039812542592353927320000017864357803063211929_);}
	.st41{fill:url(#SVGID_00000044863874250572325240000000684741810291831736_);}
</style>
<g>
	<linearGradient id="SVGID_1_" gradientUnits="userSpaceOnUse" x1="131.563" y1="346.7009" x2="189.9643" y2="346.7009">
		<stop  offset="5.586590e-03" style="stop-color:#FDCF79"/>
		<stop  offset="1" style="stop-color:#8A6D35"/>
	</linearGradient>
	
		<linearGradient id="SVGID_00000078744889623848122760000003691568188707185299_" gradientUnits="userSpaceOnUse" x1="151.4311" y1="359.9762" x2="169.2342" y2="329.1404">
		<stop  offset="5.586590e-03" style="stop-color:#FDCF79"/>
		<stop  offset="1" style="stop-color:#8A6D35"/>
	</linearGradient>
	
		<path style="fill:url(#SVGID_1_);stroke:url(#SVGID_00000078744889623848122760000003691568188707185299_);stroke-width:3;stroke-miterlimit:10;" d="
		M189.96,343.21c-2.78-2.1-5.33-3.59-8.04-4.56c-2.73-0.95-5.5-1.47-8.46-1.59c-5.88-0.27-12.28,0.83-18.41,2.32
		c-6.13,1.51-11.96,3.34-16.33,4.83c-4.33,1.45-7.17,2.57-7.17,2.57s2.78,1.61,7.22,3.51c4.46,1.9,10.63,4.06,17.36,5.23
		c6.67,1.17,13.98,1.31,20.33-0.51C182.79,353.21,188.17,349.34,189.96,343.21z"/>
	
		<linearGradient id="SVGID_00000159431493583431109560000010762649075311428491_" gradientUnits="userSpaceOnUse" x1="166.0189" y1="313.9843" x2="197.5993" y2="313.9843">
		<stop  offset="5.586590e-03" style="stop-color:#FDCF79"/>
		<stop  offset="1" style="stop-color:#8A6D35"/>
	</linearGradient>
	
		<linearGradient id="SVGID_00000130611844246463521860000014603240235186220461_" gradientUnits="userSpaceOnUse" x1="173.3899" y1="327.1677" x2="186.5945" y2="304.2966">
		<stop  offset="5.586590e-03" style="stop-color:#FDCF79"/>
		<stop  offset="1" style="stop-color:#8A6D35"/>
	</linearGradient>
	
		<path style="fill:url(#SVGID_00000159431493583431109560000010762649075311428491_);stroke:url(#SVGID_00000130611844246463521860000014603240235186220461_);stroke-width:3;stroke-miterlimit:10;" d="
		M171.23,316c2.38,5.36,5.85,10.6,10.4,14.01c2.26,1.68,4.8,2.97,7.52,3.49c2.71,0.53,5.61,0.39,8.44-0.81
		c0.14-6.41-1.61-11.48-4.35-15.93c-2.76-4.42-6.66-8.24-10.69-11.53c-4.04-3.28-8.18-6.01-11.29-7.97c-3.12-1.96-5.24-3.1-5.24-3.1
		s0.02,0.7,0.14,1.9c0.11,1.2,0.32,2.91,0.66,4.98C167.5,305.15,168.81,310.65,171.23,316z"/>
	
		<linearGradient id="SVGID_00000163066796579690080870000002521720089601217970_" gradientUnits="userSpaceOnUse" x1="85.7155" y1="320.1572" x2="142.5011" y2="320.1572">
		<stop  offset="5.586590e-03" style="stop-color:#FDCF79"/>
		<stop  offset="1" style="stop-color:#8A6D35"/>
	</linearGradient>
	
		<linearGradient id="SVGID_00000083054841382526880270000016790106777540336311_" gradientUnits="userSpaceOnUse" x1="106.6204" y1="327.3307" x2="119.8578" y2="304.4029">
		<stop  offset="5.586590e-03" style="stop-color:#FDCF79"/>
		<stop  offset="1" style="stop-color:#8A6D35"/>
	</linearGradient>
	
		<path style="fill:url(#SVGID_00000163066796579690080870000002521720089601217970_);stroke:url(#SVGID_00000083054841382526880270000016790106777540336311_);stroke-width:3;stroke-miterlimit:10;" d="
		M127.11,330.31c6.14-0.3,11.58-2.65,15.39-7.78c-3.04-5.45-7.68-8.39-13.22-10.11c-5.54-1.7-11.99-2.15-18.35-2.35
		c-6.33-0.19-12.62-0.04-17.34-0.03c-4.85,0.1-7.88,0.14-7.88,0.14s0.59,0.65,1.69,1.73c1.09,1.01,2.69,2.51,4.67,4.14
		c4,3.29,9.64,7.14,15.87,9.95C114.17,328.82,120.97,330.61,127.11,330.31z"/>
	
		<linearGradient id="SVGID_00000045610638371805811910000016293199866385695137_" gradientUnits="userSpaceOnUse" x1="131.8704" y1="290.6419" x2="154.9238" y2="290.6419">
		<stop  offset="5.586590e-03" style="stop-color:#FDCF79"/>
		<stop  offset="1" style="stop-color:#8A6D35"/>
	</linearGradient>
	
		<linearGradient id="SVGID_00000156559410365578382350000011332095546006384257_" gradientUnits="userSpaceOnUse" x1="134.057" y1="306.7782" x2="151.7654" y2="276.1063">
		<stop  offset="5.586590e-03" style="stop-color:#FDCF79"/>
		<stop  offset="1" style="stop-color:#8A6D35"/>
	</linearGradient>
	
		<path style="fill:url(#SVGID_00000045610638371805811910000016293199866385695137_);stroke:url(#SVGID_00000156559410365578382350000011332095546006384257_);stroke-width:3;stroke-miterlimit:10;" d="
		M138.79,306.07c3.49,4.42,8.35,7.33,14.41,7.02c2.45-5.89,2.04-11.53,0.37-16.7c-1.66-5.16-4.61-9.89-7.59-14.01
		c-3.01-4.12-6.05-7.64-8.3-10.17c-1.09-1.27-2.04-2.28-2.71-2.97c-0.62-0.71-1-1.08-1-1.08s-0.21,0.63-0.52,1.77
		c-0.3,1.14-0.64,2.77-0.95,4.77c-0.65,4.02-0.94,9.53-0.09,15.3C133.25,295.75,135.3,301.64,138.79,306.07z"/>
	
		<linearGradient id="SVGID_00000176747275699521704880000017507213900417819048_" gradientUnits="userSpaceOnUse" x1="56.4491" y1="277.6126" x2="104.7603" y2="277.6126">
		<stop  offset="5.586590e-03" style="stop-color:#FDCF79"/>
		<stop  offset="1" style="stop-color:#8A6D35"/>
	</linearGradient>
	
		<linearGradient id="SVGID_00000054968515019347102380000007854330393390143930_" gradientUnits="userSpaceOnUse" x1="72.6234" y1="288.1779" x2="83.8574" y2="268.72">
		<stop  offset="5.586590e-03" style="stop-color:#FDCF79"/>
		<stop  offset="1" style="stop-color:#8A6D35"/>
	</linearGradient>
	
		<path style="fill:url(#SVGID_00000176747275699521704880000017507213900417819048_);stroke:url(#SVGID_00000054968515019347102380000007854330393390143930_);stroke-width:3;stroke-miterlimit:10;" d="
		M63.61,262.05c-4.35-1.36-7.16-2.17-7.16-2.17s0.26,0.72,0.81,1.93c0.59,1.19,1.47,2.89,2.59,4.89c1.13,2,2.49,4.32,4.09,6.75
		c0.79,1.21,1.64,2.46,2.54,3.71l0.72,0.97l0.88,1.17c0.62,0.78,1.24,1.55,1.85,2.33c5.08,6.06,11.37,10.69,17.54,12.63
		c6.18,1.98,12.17,1.35,17.29-2.5c-1.43-6.13-4.88-10.31-9.54-13.95c-1.14-0.93-2.41-1.76-3.68-2.64c-1.28-0.86-2.64-1.69-4.02-2.51
		c-1.38-0.87-2.8-1.7-4.25-2.53c-1.38-0.75-2.73-1.42-4.12-2.08C73.63,265.43,67.96,263.43,63.61,262.05z"/>
	
		<linearGradient id="SVGID_00000170259158872664613740000008374953365096380337_" gradientUnits="userSpaceOnUse" x1="105.2536" y1="259.6996" x2="123.2466" y2="259.6996">
		<stop  offset="5.586590e-03" style="stop-color:#FDCF79"/>
		<stop  offset="1" style="stop-color:#8A6D35"/>
	</linearGradient>
	
		<linearGradient id="SVGID_00000087397365171058410770000013148889867578811575_" gradientUnits="userSpaceOnUse" x1="105.5833" y1="279.5334" x2="128.7986" y2="239.3233">
		<stop  offset="5.586590e-03" style="stop-color:#FDCF79"/>
		<stop  offset="1" style="stop-color:#8A6D35"/>
	</linearGradient>
	
		<path style="fill:url(#SVGID_00000170259158872664613740000008374953365096380337_);stroke:url(#SVGID_00000087397365171058410770000013148889867578811575_);stroke-width:3;stroke-miterlimit:10;" d="
		M106.25,272.94c1.64,5.3,5.47,9.65,11.27,10.99c4.05-4.95,5.33-10.37,5.66-15.48c0.29-5.12-0.37-9.97-0.92-14.04
		c-0.19-1.73-0.88-4.63-1.52-6.91c-0.66-2.35-1.38-4.46-2.04-6.22c-0.65-1.78-1.28-3.22-1.7-4.22c-0.37-1.02-0.59-1.59-0.59-1.59
		s-0.43,0.58-1.08,1.61c-0.71,1.04-1.54,2.52-2.52,4.36c-1.92,3.68-4.25,8.83-5.85,14.53c-0.41,1.43-0.76,2.89-1.05,4.37
		c-0.28,1.37-0.49,2.79-0.62,4.22c-0.07,1.42-0.02,2.83,0.11,4.27C105.54,270.24,105.87,271.59,106.25,272.94z"/>
	
		<linearGradient id="SVGID_00000034789796198729294200000017907248279352157852_" gradientUnits="userSpaceOnUse" x1="42.0087" y1="229.7765" x2="81.0905" y2="229.7765">
		<stop  offset="5.586590e-03" style="stop-color:#FDCF79"/>
		<stop  offset="1" style="stop-color:#8A6D35"/>
	</linearGradient>
	
		<linearGradient id="SVGID_00000000213878837494026720000007576412174690050970_" gradientUnits="userSpaceOnUse" x1="53.2592" y1="242.1815" x2="65.5701" y2="220.8584">
		<stop  offset="5.586590e-03" style="stop-color:#FDCF79"/>
		<stop  offset="1" style="stop-color:#8A6D35"/>
	</linearGradient>
	
		<path style="fill:url(#SVGID_00000034789796198729294200000017907248279352157852_);stroke:url(#SVGID_00000000213878837494026720000007576412174690050970_);stroke-width:3;stroke-miterlimit:10;" d="
		M56.95,240.54c1,1.23,2.18,2.31,3.38,3.33c1.18,1.02,2.4,1.93,3.68,2.75c5.06,3.25,10.68,4.62,16.81,2.83
		c0.52-3.06,0.29-5.86-0.52-8.45c-0.4-1.28-0.95-2.53-1.64-3.73c-0.66-1.21-1.5-2.34-2.28-3.5c-3.29-4.57-8.37-8.53-13.49-12.05
		c-4.97-3.56-10.2-6.63-14.21-8.84c-4.09-2.19-6.67-3.56-6.67-3.56s0.12,0.78,0.46,2.1c0.35,1.31,0.9,3.17,1.66,5.41
		c1.52,4.44,3.64,10.41,7.17,15.85C53,235.42,54.89,238.12,56.95,240.54z"/>
	
		<linearGradient id="SVGID_00000076562236994135160710000012581074375820717979_" gradientUnits="userSpaceOnUse" x1="88.1263" y1="219.9303" x2="107.8323" y2="219.9303">
		<stop  offset="5.586590e-03" style="stop-color:#FDCF79"/>
		<stop  offset="1" style="stop-color:#8A6D35"/>
	</linearGradient>
	
		<linearGradient id="SVGID_00000128445857470137783340000010993269516853734075_" gradientUnits="userSpaceOnUse" x1="88.0068" y1="241.9345" x2="113.9665" y2="196.9712">
		<stop  offset="5.586590e-03" style="stop-color:#FDCF79"/>
		<stop  offset="1" style="stop-color:#8A6D35"/>
	</linearGradient>
	
		<path style="fill:url(#SVGID_00000076562236994135160710000012581074375820717979_);stroke:url(#SVGID_00000128445857470137783340000010993269516853734075_);stroke-width:3;stroke-miterlimit:10;" d="
		M90.05,238.14c1.19,2.41,2.94,4.54,5.36,6.25c5.56-3.18,8.74-7.95,10.42-13.12c0.43-1.3,0.74-2.63,1-3.97
		c0.12-0.66,0.23-1.34,0.31-2c0.09-0.68,0.2-1.36,0.31-2.05c0.35-2.74,0.44-5.48,0.35-8.1c-0.35-5.24-0.66-10.18-1.33-13.77
		c-0.3-1.8-0.64-3.27-0.86-4.29c-0.18-1.04-0.28-1.6-0.28-1.6s-0.52,0.47-1.36,1.34c-0.89,0.87-2,2.11-3.29,3.7
		c-2.6,3.19-5.84,7.74-8.47,13.03c-2.5,5.23-4.11,11.14-4.07,16.76c-0.02,1.42,0.21,2.76,0.54,4.06
		C88.99,235.68,89.45,236.95,90.05,238.14z"/>
	
		<linearGradient id="SVGID_00000046316943651649377570000003247228535161938842_" gradientUnits="userSpaceOnUse" x1="38.5446" y1="179.7886" x2="69.1217" y2="179.7886">
		<stop  offset="5.586590e-03" style="stop-color:#FDCF79"/>
		<stop  offset="1" style="stop-color:#8A6D35"/>
	</linearGradient>
	
		<linearGradient id="SVGID_00000049922938395447287610000004072145241064769981_" gradientUnits="userSpaceOnUse" x1="43.5333" y1="195.3784" x2="60.4425" y2="166.0909">
		<stop  offset="5.586590e-03" style="stop-color:#FDCF79"/>
		<stop  offset="1" style="stop-color:#8A6D35"/>
	</linearGradient>
	
		<path style="fill:url(#SVGID_00000046316943651649377570000003247228535161938842_);stroke:url(#SVGID_00000049922938395447287610000004072145241064769981_);stroke-width:3;stroke-miterlimit:10;" d="
		M46.29,190.1c0.78,1.41,1.6,2.77,2.53,4.04c0.97,1.24,2.02,2.4,3.09,3.46c4.38,4.24,9.64,6.67,16.01,6.07
		c1.07-2.9,1.4-5.68,1.09-8.36c-0.16-1.34-0.46-2.66-0.88-3.96c-0.41-1.31-0.85-2.61-1.45-3.88c-1.17-2.57-2.8-5.08-4.67-7.52
		c-0.97-1.21-1.93-2.42-2.88-3.63c-0.98-1.19-1.98-2.35-3.01-3.5c-4.16-4.58-8.76-8.78-11.95-11.91c-3.28-3.11-5.61-5.09-5.61-5.09
		s-0.09,3.17,0.19,7.95c0.17,2.38,0.66,5.15,1.21,8.12c0.27,1.49,0.6,3.01,0.98,4.57c0.37,1.54,0.74,3.12,1.35,4.66
		C43.41,184.2,44.73,187.26,46.29,190.1z"/>
	
		<linearGradient id="SVGID_00000050630387597262150320000016057713586274674615_" gradientUnits="userSpaceOnUse" x1="78.3382" y1="177.9657" x2="103.1481" y2="177.9657">
		<stop  offset="5.586590e-03" style="stop-color:#FDCF79"/>
		<stop  offset="1" style="stop-color:#8A6D35"/>
	</linearGradient>
	
		<linearGradient id="SVGID_00000088826918155246060890000004737272560018924437_" gradientUnits="userSpaceOnUse" x1="79.0316" y1="199.9204" x2="105.6669" y2="153.7867">
		<stop  offset="5.586590e-03" style="stop-color:#FDCF79"/>
		<stop  offset="1" style="stop-color:#8A6D35"/>
	</linearGradient>
	
		<path style="fill:url(#SVGID_00000050630387597262150320000016057713586274674615_);stroke:url(#SVGID_00000088826918155246060890000004737272560018924437_);stroke-width:3;stroke-miterlimit:10;" d="
		M83.04,200.27c6.05-2.09,10.11-6.11,12.76-10.72c0.67-1.16,1.24-2.35,1.75-3.58c0.59-1.23,1.1-2.48,1.55-3.74
		c0.88-2.52,1.52-5.09,1.94-7.59c0.48-2.49,1-4.91,1.24-7.15c0.14-1.12,0.23-2.19,0.31-3.21c0.07-1.02,0.1-1.97,0.23-2.85
		c0.39-3.48,0.33-5.77,0.33-5.77s-2.35,1.29-5.7,3.71c-0.83,0.6-1.73,1.28-2.67,2.02c-0.95,0.76-1.92,1.57-2.83,2.45
		c-1.87,1.76-3.8,3.8-5.63,6.03c-0.92,1.12-1.78,2.29-2.64,3.51c-0.4,0.61-0.81,1.24-1.2,1.87c-0.36,0.63-0.69,1.27-1,1.92
		c-1.26,2.57-2.23,5.27-2.76,8.01c-0.23,1.35-0.42,2.73-0.38,4.06c0.07,1.33,0.28,2.66,0.63,3.93
		C79.69,195.74,80.99,198.17,83.04,200.27z"/>
	
		<linearGradient id="SVGID_00000069390702085022859560000017335282730316344962_" gradientUnits="userSpaceOnUse" x1="45.4072" y1="129.6156" x2="68.2555" y2="129.6156">
		<stop  offset="5.586590e-03" style="stop-color:#FDCF79"/>
		<stop  offset="1" style="stop-color:#8A6D35"/>
	</linearGradient>
	
		<linearGradient id="SVGID_00000132777948446168125580000009303548062796022186_" gradientUnits="userSpaceOnUse" x1="45.4801" y1="148.4537" x2="67.2994" y2="110.6615">
		<stop  offset="5.586590e-03" style="stop-color:#FDCF79"/>
		<stop  offset="1" style="stop-color:#8A6D35"/>
	</linearGradient>
	
		<path style="fill:url(#SVGID_00000069390702085022859560000017335282730316344962_);stroke:url(#SVGID_00000132777948446168125580000009303548062796022186_);stroke-width:3;stroke-miterlimit:10;" d="
		M61.04,123.69c-1.42-2.73-2.94-5.38-4.43-7.86c-1.54-2.49-2.92-4.74-4.07-6.64c-2.38-3.83-4.12-6.33-4.12-6.33s-0.9,3.02-1.85,7.69
		c-0.36,2.38-0.69,5.16-0.91,8.17c-0.12,1.51-0.21,3.06-0.24,4.66c0,1.6,0.1,3.25,0.24,4.89c0.29,3.28,0.71,6.6,1.55,9.73
		c0.93,3.15,2.16,6.12,3.71,8.7c3,5.19,7.85,8.79,14.15,9.68c0.82-1.28,1.43-2.56,1.9-3.87c0.45-1.3,0.88-2.61,1.07-3.93
		c0.44-2.65,0.23-5.38-0.41-8.15c-0.53-2.76-1.38-5.56-2.57-8.37C63.85,129.24,62.38,126.41,61.04,123.69z"/>
	
		<linearGradient id="SVGID_00000111184097070846622850000016345322941788757911_" gradientUnits="userSpaceOnUse" x1="78.0363" y1="136.3666" x2="110.7183" y2="136.3666">
		<stop  offset="5.586590e-03" style="stop-color:#FDCF79"/>
		<stop  offset="1" style="stop-color:#8A6D35"/>
	</linearGradient>
	
		<linearGradient id="SVGID_00000045603375319313385530000000771163173922464907_" gradientUnits="userSpaceOnUse" x1="80.4365" y1="157.1749" x2="106.53" y2="111.9796">
		<stop  offset="5.586590e-03" style="stop-color:#FDCF79"/>
		<stop  offset="1" style="stop-color:#8A6D35"/>
	</linearGradient>
	
		<path style="fill:url(#SVGID_00000111184097070846622850000016345322941788757911_);stroke:url(#SVGID_00000045603375319313385530000000771163173922464907_);stroke-width:3;stroke-miterlimit:10;" d="
		M95.27,147.88c1.91-1.87,3.52-3.96,4.87-6.15c1.49-2.17,2.81-4.41,3.86-6.66c0.56-1.11,0.97-2.23,1.5-3.31
		c0.52-1.08,0.99-2.13,1.4-3.16c0.87-2.04,1.47-3.96,2.04-5.59c1.26-3.23,1.78-5.42,1.78-5.42s-2.59,0.63-6.46,2.08
		c-3.95,1.42-8.69,3.82-13.41,7.18c-1.15,0.84-2.38,1.73-3.42,2.72c-1.05,0.96-2.07,1.98-3.01,3.06c-1.87,2.15-3.59,4.49-4.72,6.98
		c-1.07,2.49-1.67,5.11-1.67,7.74c0.02,1.3,0.12,2.62,0.53,3.92c0.45,1.3,1.02,2.59,1.83,3.85
		C86.78,154.53,91.36,151.59,95.27,147.88z"/>
	
		<linearGradient id="SVGID_00000170989511902796915730000010174817107767319207_" gradientUnits="userSpaceOnUse" x1="61.3108" y1="82.4315" x2="80.5218" y2="82.4315">
		<stop  offset="5.586590e-03" style="stop-color:#FDCF79"/>
		<stop  offset="1" style="stop-color:#8A6D35"/>
	</linearGradient>
	
		<linearGradient id="SVGID_00000067957713003275539550000017728728834331699588_" gradientUnits="userSpaceOnUse" x1="60.3692" y1="104.2955" x2="86.0549" y2="59.8065">
		<stop  offset="5.586590e-03" style="stop-color:#FDCF79"/>
		<stop  offset="1" style="stop-color:#8A6D35"/>
	</linearGradient>
	
		<path style="fill:url(#SVGID_00000170989511902796915730000010174817107767319207_);stroke:url(#SVGID_00000067957713003275539550000017728728834331699588_);stroke-width:3;stroke-miterlimit:10;" d="
		M76.69,106.94c0.85-1.1,1.52-2.27,2.05-3.49c0.53-1.23,0.93-2.5,1.19-3.83c0.26-1.32,0.37-2.7,0.52-4.08c0.19-2.77,0-5.7-0.46-8.72
		c-0.46-3.02-0.97-6.01-1.76-9.02c-1.54-6.02-3.22-11.69-4.7-16.01c-1.49-4.33-2.52-7.09-2.52-7.09s-0.41,0.65-1.06,1.84
		c-0.64,1.21-1.49,2.94-2.45,5.08c-2.04,4.23-4.05,10.27-5.33,16.62c-0.52,3.23-0.87,6.54-0.87,9.74c-0.03,1.59,0.12,3.22,0.38,4.77
		c0.23,1.57,0.54,3.07,0.97,4.51c0.88,2.9,2.09,5.46,4,7.68c1.89,2.21,4.26,3.99,7.2,5.24C75,109.16,75.93,108.07,76.69,106.94z"/>
	
		<linearGradient id="SVGID_00000069375775091729953530000012867448253750571154_" gradientUnits="userSpaceOnUse" x1="88.0745" y1="97.1188" x2="127.693" y2="97.1188">
		<stop  offset="5.586590e-03" style="stop-color:#FDCF79"/>
		<stop  offset="1" style="stop-color:#8A6D35"/>
	</linearGradient>
	
		<linearGradient id="SVGID_00000048491812254414632850000017536329342617484430_" gradientUnits="userSpaceOnUse" x1="94.2238" y1="116.3586" x2="118.4846" y2="74.3377">
		<stop  offset="5.586590e-03" style="stop-color:#FDCF79"/>
		<stop  offset="1" style="stop-color:#8A6D35"/>
	</linearGradient>
	
		<path style="fill:url(#SVGID_00000069375775091729953530000012867448253750571154_);stroke:url(#SVGID_00000048491812254414632850000017536329342617484430_);stroke-width:3;stroke-miterlimit:10;" d="
		M126.86,84.01c0.54-0.86,0.83-1.35,0.83-1.35s-0.69,0-1.88,0.04c-1.22,0.04-2.88,0.17-4.9,0.42c-2.02,0.25-4.37,0.64-6.94,1.22
		c-1.26,0.29-2.62,0.6-3.91,1.02c-1.28,0.42-2.61,0.87-3.94,1.41c-2.62,1.06-5.35,2.34-7.71,3.91c-2.34,1.6-4.5,3.45-6.26,5.54
		c-0.91,1.03-1.6,2.16-2.2,3.34c-0.58,1.17-1.04,2.39-1.38,3.65c-0.31,1.27-0.49,2.57-0.49,3.91c0.07,1.35,0.33,2.74,0.78,4.15
		c3.13,0.52,6.05,0.37,8.72-0.21c2.64-0.6,5.22-1.59,7.5-2.9c1.15-0.65,2.23-1.39,3.28-2.17c0.53-0.39,1.02-0.8,1.5-1.22
		c0.52-0.41,1.03-0.82,1.52-1.26c2-1.71,3.77-3.58,5.35-5.49c1.68-1.85,3.21-3.74,4.48-5.55c0.31-0.44,0.61-0.89,0.92-1.32
		c0.33-0.44,0.62-0.85,0.93-1.26c0.59-0.82,1.14-1.6,1.61-2.32C125.62,86.11,126.35,84.87,126.86,84.01z"/>
	
		<linearGradient id="SVGID_00000043458823039500928180000014377896993951799938_" gradientUnits="userSpaceOnUse" x1="86.0762" y1="40.9433" x2="105.6184" y2="40.9433">
		<stop  offset="5.586590e-03" style="stop-color:#FDCF79"/>
		<stop  offset="1" style="stop-color:#8A6D35"/>
	</linearGradient>
	
		<linearGradient id="SVGID_00000044160382965403016740000016424276869671692164_" gradientUnits="userSpaceOnUse" x1="85.4841" y1="64.9913" x2="113.7991" y2="15.9482">
		<stop  offset="5.586590e-03" style="stop-color:#FDCF79"/>
		<stop  offset="1" style="stop-color:#8A6D35"/>
	</linearGradient>
	
		<path style="fill:url(#SVGID_00000043458823039500928180000014377896993951799938_);stroke:url(#SVGID_00000044160382965403016740000016424276869671692164_);stroke-width:3;stroke-miterlimit:10;" d="
		M93.93,68.01c2.73-1.38,4.74-3.19,6.3-5.33c1.65-2.08,2.78-4.52,3.54-7.22c1.65-5.28,1.91-11.58,1.84-17.66
		c-0.02-1.54-0.09-3.07-0.18-4.57c-0.05-1.47-0.15-2.92-0.25-4.32c-0.21-2.81-0.49-5.43-0.74-7.68c-0.45-4.42-0.95-7.37-0.95-7.37
		s-0.52,0.58-1.4,1.56c-0.87,1-2.11,2.44-3.45,4.32c-1.36,1.87-2.95,4.03-4.45,6.56c-1.45,2.53-2.99,5.25-4.23,8.2
		c-1.21,2.98-2.33,6.02-3,9.13c-0.67,3.12-0.99,6.24-0.85,9.2C86.49,58.83,88.85,64.18,93.93,68.01z"/>
	
		<linearGradient id="SVGID_00000142133673076295778030000000373018482332846266_" gradientUnits="userSpaceOnUse" x1="108.0082" y1="61.9301" x2="152.644" y2="61.9301">
		<stop  offset="5.586590e-03" style="stop-color:#FDCF79"/>
		<stop  offset="1" style="stop-color:#8A6D35"/>
	</linearGradient>
	
		<linearGradient id="SVGID_00000022541998828714941360000016617647476378790550_" gradientUnits="userSpaceOnUse" x1="118.9074" y1="79.2866" x2="140.2385" y2="42.34">
		<stop  offset="5.586590e-03" style="stop-color:#FDCF79"/>
		<stop  offset="1" style="stop-color:#8A6D35"/>
	</linearGradient>
	
		<path style="fill:url(#SVGID_00000142133673076295778030000000373018482332846266_);stroke:url(#SVGID_00000022541998828714941360000016617647476378790550_);stroke-width:3;stroke-miterlimit:10;" d="
		M138.36,64.8c2.05-1.49,4-2.99,5.66-4.5c1.72-1.49,3.28-2.86,4.52-4.1c1.24-1.26,2.32-2.27,3.02-3.01
		c0.71-0.72,1.08-1.17,1.08-1.17s-2.64-0.59-6.76-0.99c-2.05-0.2-4.42-0.3-7.04-0.28s-5.45,0.18-8.25,0.64
		c-5.68,0.83-11.39,2.76-15.77,6c-2.12,1.67-3.9,3.64-5.16,5.91c-1.17,2.32-1.77,4.97-1.63,7.88c5.88,2.56,11.44,2.34,16.49,0.87
		c2.59-0.73,5.03-1.79,7.29-3.06C134.13,67.73,136.36,66.32,138.36,64.8z"/>
	
		<linearGradient id="SVGID_00000127749852001745588360000012774003527081020065_" gradientUnits="userSpaceOnUse" x1="69.3707" y1="195.8724" x2="428.8566" y2="195.8724">
		<stop  offset="5.586590e-03" style="stop-color:#FDCF79"/>
		<stop  offset="1" style="stop-color:#8A6D35"/>
	</linearGradient>
	
		<linearGradient id="SVGID_00000114051409694280126270000002227038548644728226_" gradientUnits="userSpaceOnUse" x1="114.7455" y1="306.0163" x2="385.7919" y2="34.9699">
		<stop  offset="5.586590e-03" style="stop-color:#FDCF79"/>
		<stop  offset="1" style="stop-color:#8A6D35"/>
	</linearGradient>
	
		<path style="fill:url(#SVGID_00000127749852001745588360000012774003527081020065_);stroke:url(#SVGID_00000114051409694280126270000002227038548644728226_);stroke-width:2;stroke-miterlimit:10;" d="
		M127.06,305.14c16.72,13.87,37.11,23.36,57.12,31.44c16.37,6.62,37.37,17.43,58.77,27.51c-19.23,5.99-38.2,10.88-53.46,13.44
		c-2,0.32,8.27,10.78,10.2,10.19c17.71-5.33,35.69-11.8,53.4-18.95c19.36,8.8,38.47,16.34,54.22,18.97
		c1.98,0.33,8.14-10.21,6.16-10.54c-14.91-2.49-32.24-6.93-50.28-12.58c29.71-12.48,58.31-26.59,83.05-40.05
		c26.85-14.63,47-35.39,60.25-62.99c12.28-25.55,20.94-53.81,22.22-82.2c1.76-39.32-11.44-77.88-31.91-111.02
		c-5.99-9.7-12.7-19.38-20.14-28.37c0.65-2.49,0.74-4.92,0.31-7.2c-0.5-2.71-1.55-5.32-3.17-7.64c-3.11-4.76-8.16-8.59-13.32-11.46
		c-5.2-2.84-10.6-4.63-14.63-5.6c-2.04-0.5-3.7-0.77-4.87-0.94c-0.59-0.07-1.05-0.12-1.34-0.14c-0.27-0.02-0.43-0.02-0.43-0.02
		s0.05,0.14,0.17,0.41c0.15,0.26,0.32,0.67,0.59,1.18c0.53,1.04,1.29,2.51,2.25,4.3c1.92,3.56,4.54,8.23,7.64,12.79
		c1.52,2.3,3.27,4.49,5.06,6.57c0.9,1.03,1.86,2,2.87,2.9c0.97,0.93,1.98,1.78,3.07,2.53c2.18,1.47,4.46,2.68,7.02,3.34
		c1.94,0.48,3.99,0.69,6.19,0.55c14.27,16.88,25.95,36.49,34.86,56.17c11.32,25.06,17.36,52.38,16.7,79.9
		c-0.69,30-10.7,60.47-24.16,87.12c-10.47,20.74-25.73,37.66-45.23,50.27c-17.45,11.27-36.58,19.73-55.6,27.96
		c-14.25,6.18-31.16,12.5-48.31,18.13c-36.74-12.27-75.12-28.87-101.73-43.9c-13.91-7.84-26.49-17.45-36.91-29.61
		c-10.4-12.14-17.91-26.55-23.93-41.27c-11.43-27.92-18.67-56.81-16.9-87.14c2.07-35.36,15.96-69.19,35.32-98.53
		c4.97-7.51,10.35-15.01,16.21-22.07c2.1,0.1,4.09-0.12,5.98-0.58c2.56-0.65,4.83-1.86,7.02-3.34c1.06-0.75,2.09-1.6,3.06-2.52
		c1.01-0.89,1.97-1.87,2.87-2.89c1.81-2.09,3.52-4.26,5.07-6.57c3.09-4.56,5.71-9.25,7.63-12.79c0.95-1.78,1.73-3.27,2.25-4.31
		c0.26-0.51,0.46-0.91,0.6-1.18c0.1-0.26,0.16-0.4,0.16-0.4s-0.14,0-0.42,0.01c-0.31,0.02-0.75,0.08-1.33,0.15
		c-1.17,0.16-2.86,0.45-4.87,0.94c-4.04,0.97-9.44,2.76-14.64,5.6c-5.16,2.87-10.2,6.69-13.32,11.47c-1.61,2.34-2.69,4.94-3.16,7.63
		c-0.45,2.25-0.36,4.63,0.26,7.08C107.87,53.11,96.57,71.8,87.8,90.52C77,113.67,70.46,138.71,69.48,164.28
		c-1.12,29.37,6.87,57.51,17.91,84.44C96.24,270.39,108.92,290.09,127.06,305.14z"/>
	
		<linearGradient id="SVGID_00000129905898607972013530000007058771282218246318_" gradientUnits="userSpaceOnUse" x1="308.2617" y1="349.684" x2="366.654" y2="349.684">
		<stop  offset="5.586590e-03" style="stop-color:#FDCF79"/>
		<stop  offset="1" style="stop-color:#8A6D35"/>
	</linearGradient>
	
		<linearGradient id="SVGID_00000095334929631640599270000003405396054694724520_" gradientUnits="userSpaceOnUse" x1="328.5087" y1="364.5429" x2="345.4054" y2="335.277">
		<stop  offset="5.586590e-03" style="stop-color:#FDCF79"/>
		<stop  offset="1" style="stop-color:#8A6D35"/>
	</linearGradient>
	
		<path style="fill:url(#SVGID_00000129905898607972013530000007058771282218246318_);stroke:url(#SVGID_00000095334929631640599270000003405396054694724520_);stroke-width:3;stroke-miterlimit:10;" d="
		M342.09,358.49c6.71-1.15,12.89-3.31,17.35-5.22c4.44-1.91,7.22-3.5,7.22-3.5s-2.83-1.14-7.18-2.59
		c-4.36-1.49-10.18-3.33-16.32-4.83c-6.14-1.48-12.53-2.58-18.41-2.31c-2.95,0.12-5.75,0.63-8.46,1.59
		c-2.73,0.97-5.25,2.46-8.03,4.55c1.78,6.14,7.16,10.02,13.48,11.8C328.09,359.82,335.39,359.67,342.09,358.49z"/>
	
		<linearGradient id="SVGID_00000057146578679837275170000014377253175136915116_" gradientUnits="userSpaceOnUse" x1="300.6414" y1="316.9654" x2="332.199" y2="316.9654">
		<stop  offset="5.586590e-03" style="stop-color:#FDCF79"/>
		<stop  offset="1" style="stop-color:#8A6D35"/>
	</linearGradient>
	
		<linearGradient id="SVGID_00000160185288755915946600000015786399420678188473_" gradientUnits="userSpaceOnUse" x1="304.3918" y1="339.6907" x2="331.286" y2="293.1084">
		<stop  offset="5.586590e-03" style="stop-color:#FDCF79"/>
		<stop  offset="1" style="stop-color:#8A6D35"/>
	</linearGradient>
	
		<path style="fill:url(#SVGID_00000057146578679837275170000014377253175136915116_);stroke:url(#SVGID_00000160185288755915946600000015786399420678188473_);stroke-width:3;stroke-miterlimit:10;" d="
		M309.09,336.47c2.71-0.51,5.22-1.79,7.5-3.48c4.54-3.42,8.01-8.65,10.4-14c2.4-5.35,3.7-10.87,4.4-14.97
		c0.34-2.06,0.53-3.78,0.65-4.97c0.11-1.19,0.14-1.89,0.14-1.89s-2.12,1.14-5.23,3.08c-3.12,1.97-7.24,4.7-11.3,7.99
		c-4.02,3.29-7.94,7.11-10.7,11.53c-2.74,4.44-4.48,9.51-4.32,15.93C303.45,336.87,306.37,337.02,309.09,336.47z"/>
	
		<linearGradient id="SVGID_00000103235269803063048110000013785615739851538362_" gradientUnits="userSpaceOnUse" x1="355.7338" y1="323.136" x2="412.5016" y2="323.136">
		<stop  offset="5.586590e-03" style="stop-color:#FDCF79"/>
		<stop  offset="1" style="stop-color:#8A6D35"/>
	</linearGradient>
	
		<linearGradient id="SVGID_00000012453147226126207440000013982645447179062946_" gradientUnits="userSpaceOnUse" x1="373.1039" y1="339.0968" x2="395.6439" y2="300.0564">
		<stop  offset="5.586590e-03" style="stop-color:#FDCF79"/>
		<stop  offset="1" style="stop-color:#8A6D35"/>
	</linearGradient>
	
		<path style="fill:url(#SVGID_00000103235269803063048110000013785615739851538362_);stroke:url(#SVGID_00000012453147226126207440000013982645447179062946_);stroke-width:3;stroke-miterlimit:10;" d="
		M387.29,313.04c-6.35,0.21-12.83,0.65-18.36,2.35c-5.54,1.72-10.17,4.67-13.2,10.1c3.79,5.13,9.24,7.51,15.38,7.79
		c6.14,0.3,12.94-1.49,19.17-4.31c6.23-2.82,11.87-6.65,15.86-9.96c2-1.62,3.59-3.11,4.69-4.14c1.09-1.07,1.68-1.71,1.68-1.71
		s-3.04-0.05-7.87-0.14C399.9,313,393.62,312.86,387.29,313.04z"/>
	
		<linearGradient id="SVGID_00000018933682169630057350000007509985900913970105_" gradientUnits="userSpaceOnUse" x1="343.2957" y1="293.6168" x2="366.3508" y2="293.6168">
		<stop  offset="5.586590e-03" style="stop-color:#FDCF79"/>
		<stop  offset="1" style="stop-color:#8A6D35"/>
	</linearGradient>
	
		<linearGradient id="SVGID_00000055698567449633118960000015773316153305136280_" gradientUnits="userSpaceOnUse" x1="344.0203" y1="317.5234" x2="370.5274" y2="271.6118">
		<stop  offset="5.586590e-03" style="stop-color:#FDCF79"/>
		<stop  offset="1" style="stop-color:#8A6D35"/>
	</linearGradient>
	
		<path style="fill:url(#SVGID_00000018933682169630057350000007509985900913970105_);stroke:url(#SVGID_00000055698567449633118960000015773316153305136280_);stroke-width:3;stroke-miterlimit:10;" d="
		M345.03,316.07c6.03,0.32,10.91-2.59,14.41-7.02c3.46-4.43,5.56-10.33,6.39-16.07c0.85-5.77,0.57-11.28-0.1-15.3
		c-0.31-2.01-0.65-3.63-0.96-4.77c-0.3-1.14-0.52-1.77-0.52-1.77s-0.37,0.38-1,1.08c-0.67,0.69-1.61,1.7-2.69,2.97
		c-2.25,2.53-5.29,6.04-8.3,10.16c-2.97,4.13-5.92,8.86-7.61,14.02C343,304.55,342.57,310.18,345.03,316.07z"/>
	
		<linearGradient id="SVGID_00000075875623166469014280000005774002445323293580_" gradientUnits="userSpaceOnUse" x1="393.4657" y1="280.5947" x2="441.768" y2="280.5947">
		<stop  offset="5.586590e-03" style="stop-color:#FDCF79"/>
		<stop  offset="1" style="stop-color:#8A6D35"/>
	</linearGradient>
	
		<linearGradient id="SVGID_00000155125524880930176770000012909608743511895978_" gradientUnits="userSpaceOnUse" x1="403.6424" y1="302.5011" x2="431.9253" y2="253.5136">
		<stop  offset="5.586590e-03" style="stop-color:#FDCF79"/>
		<stop  offset="1" style="stop-color:#8A6D35"/>
	</linearGradient>
	
		<path style="fill:url(#SVGID_00000075875623166469014280000005774002445323293580_);stroke:url(#SVGID_00000155125524880930176770000012909608743511895978_);stroke-width:3;stroke-miterlimit:10;" d="
		M428.29,284.59c0.64-0.76,1.26-1.54,1.86-2.32l0.88-1.19l0.71-0.96c0.9-1.24,1.75-2.49,2.53-3.7c1.59-2.42,2.97-4.74,4.11-6.74
		c1.11-2.01,1.97-3.7,2.56-4.89c0.57-1.22,0.83-1.94,0.83-1.94s-2.81,0.82-7.18,2.18c-4.32,1.37-9.99,3.38-15.52,5.98
		c-1.4,0.66-2.76,1.34-4.12,2.09c-1.45,0.82-2.88,1.66-4.25,2.5c-1.38,0.84-2.74,1.66-4.02,2.54c-1.27,0.86-2.55,1.7-3.69,2.63
		c-4.65,3.63-8.1,7.81-9.53,13.95c5.11,3.84,11.11,4.5,17.29,2.5C416.9,295.3,423.21,290.66,428.29,284.59z"/>
	
		<linearGradient id="SVGID_00000116224896177364892750000003094930631279701425_" gradientUnits="userSpaceOnUse" x1="374.9742" y1="262.683" x2="392.9586" y2="262.683">
		<stop  offset="5.586590e-03" style="stop-color:#FDCF79"/>
		<stop  offset="1" style="stop-color:#8A6D35"/>
	</linearGradient>
	
		<linearGradient id="SVGID_00000160881886171685584670000011206755133928244636_" gradientUnits="userSpaceOnUse" x1="371.6267" y1="283.69" x2="395.0376" y2="243.1412">
		<stop  offset="5.586590e-03" style="stop-color:#FDCF79"/>
		<stop  offset="1" style="stop-color:#8A6D35"/>
	</linearGradient>
	
		<path style="fill:url(#SVGID_00000116224896177364892750000003094930631279701425_);stroke:url(#SVGID_00000160881886171685584670000011206755133928244636_);stroke-width:3;stroke-miterlimit:10;" d="
		M391.27,258.95c-1.62-5.7-3.95-10.85-5.86-14.53c-0.97-1.85-1.83-3.32-2.52-4.36c-0.67-1.04-1.07-1.61-1.07-1.61
		s-0.23,0.58-0.6,1.58c-0.43,1.01-1.05,2.46-1.7,4.23c-0.66,1.78-1.38,3.88-2.03,6.22c-0.64,2.27-1.35,5.19-1.53,6.92
		c-0.54,4.06-1.2,8.92-0.92,14.04c0.33,5.12,1.61,10.54,5.64,15.49c5.83-1.35,9.63-5.7,11.29-11.01c0.38-1.34,0.72-2.7,0.86-4.11
		c0.12-1.42,0.17-2.84,0.09-4.26c-0.12-1.43-0.32-2.85-0.6-4.22C392.02,261.84,391.66,260.37,391.27,258.95z"/>
	
		<linearGradient id="SVGID_00000034801945660622655660000015525517072285957808_" gradientUnits="userSpaceOnUse" x1="417.1252" y1="232.7531" x2="456.2094" y2="232.7531">
		<stop  offset="5.586590e-03" style="stop-color:#FDCF79"/>
		<stop  offset="1" style="stop-color:#8A6D35"/>
	</linearGradient>
	
		<linearGradient id="SVGID_00000072254416235519341500000011184242875327200420_" gradientUnits="userSpaceOnUse" x1="422.1914" y1="257.1315" x2="451.7857" y2="205.8727">
		<stop  offset="5.586590e-03" style="stop-color:#FDCF79"/>
		<stop  offset="1" style="stop-color:#8A6D35"/>
	</linearGradient>
	
		<path style="fill:url(#SVGID_00000034801945660622655660000015525517072285957808_);stroke:url(#SVGID_00000072254416235519341500000011184242875327200420_);stroke-width:3;stroke-miterlimit:10;" d="
		M455.75,214.39c0.33-1.33,0.45-2.1,0.45-2.1s-2.58,1.37-6.67,3.57c-4,2.21-9.24,5.27-14.2,8.85c-5.15,3.5-10.21,7.48-13.5,12.04
		c-0.8,1.15-1.63,2.29-2.31,3.49c-0.67,1.21-1.24,2.44-1.62,3.73c-0.81,2.59-1.03,5.39-0.52,8.45c6.11,1.78,11.75,0.41,16.82-2.84
		c1.27-0.8,2.49-1.73,3.69-2.74c1.16-1.02,2.35-2.11,3.36-3.32c2.05-2.42,3.96-5.12,5.64-7.86c3.52-5.45,5.64-11.41,7.16-15.86
		C454.83,217.58,455.4,215.7,455.75,214.39z"/>
	
		<linearGradient id="SVGID_00000114070378577459343800000004467758879532818096_" gradientUnits="userSpaceOnUse" x1="390.3784" y1="222.9115" x2="410.1004" y2="222.9115">
		<stop  offset="5.586590e-03" style="stop-color:#FDCF79"/>
		<stop  offset="1" style="stop-color:#8A6D35"/>
	</linearGradient>
	
		<linearGradient id="SVGID_00000024706043749617514410000014796222723488027522_" gradientUnits="userSpaceOnUse" x1="388.0842" y1="240.6208" x2="408.5813" y2="205.1188">
		<stop  offset="5.586590e-03" style="stop-color:#FDCF79"/>
		<stop  offset="1" style="stop-color:#8A6D35"/>
	</linearGradient>
	
		<path style="fill:url(#SVGID_00000114070378577459343800000004467758879532818096_);stroke:url(#SVGID_00000024706043749617514410000014796222723488027522_);stroke-width:3;stroke-miterlimit:10;" d="
		M402.79,247.38c2.43-1.71,4.19-3.86,5.38-6.26c0.6-1.19,1.04-2.46,1.38-3.76c0.31-1.31,0.57-2.65,0.55-4.06
		c0.03-5.62-1.58-11.52-4.07-16.77c-2.66-5.28-5.9-9.82-8.47-13.01c-1.31-1.6-2.41-2.85-3.29-3.72c-0.85-0.86-1.36-1.35-1.36-1.35
		s-0.12,0.59-0.29,1.61c-0.23,1.03-0.56,2.49-0.87,4.3c-0.67,3.59-0.99,8.51-1.33,13.76c-0.1,2.63,0,5.36,0.36,8.1
		c0.1,0.7,0.21,1.38,0.3,2.05s0.2,1.34,0.31,2.01c0.24,1.35,0.58,2.66,1,3.96C394.07,239.41,397.23,244.18,402.79,247.38z"/>
	
		<linearGradient id="SVGID_00000025418304214557133160000006473901752016637837_" gradientUnits="userSpaceOnUse" x1="429.097" y1="182.7708" x2="459.6727" y2="182.7708">
		<stop  offset="5.586590e-03" style="stop-color:#FDCF79"/>
		<stop  offset="1" style="stop-color:#8A6D35"/>
	</linearGradient>
	
		<linearGradient id="SVGID_00000161628356771520676990000001951918550769051044_" gradientUnits="userSpaceOnUse" x1="431.4975" y1="209.3513" x2="462.1414" y2="156.2744">
		<stop  offset="5.586590e-03" style="stop-color:#FDCF79"/>
		<stop  offset="1" style="stop-color:#8A6D35"/>
	</linearGradient>
	
		<path style="fill:url(#SVGID_00000025418304214557133160000006473901752016637837_);stroke:url(#SVGID_00000161628356771520676990000001951918550769051044_);stroke-width:3;stroke-miterlimit:10;" d="
		M442.13,175.79c-1.05,1.14-2.05,2.32-3.02,3.51c-0.96,1.19-1.93,2.4-2.91,3.61c-1.87,2.45-3.49,4.95-4.67,7.52
		c-0.6,1.28-1.05,2.59-1.43,3.89c-0.45,1.31-0.75,2.63-0.89,3.97c-0.3,2.68,0,5.46,1.1,8.35c6.33,0.6,11.63-1.83,16-6.06
		c1.08-1.05,2.12-2.22,3.09-3.47c0.94-1.26,1.74-2.62,2.53-4.04c1.56-2.83,2.88-5.89,4-9c0.6-1.53,0.99-3.11,1.36-4.67
		c0.37-1.54,0.69-3.07,0.97-4.55c0.55-2.96,1.03-5.73,1.21-8.11c0.28-4.78,0.19-7.94,0.19-7.94s-2.33,1.97-5.61,5.08
		C450.87,167.02,446.27,171.21,442.13,175.79z"/>
	
		<linearGradient id="SVGID_00000123414751472879799530000009977184414184896163_" gradientUnits="userSpaceOnUse" x1="395.0545" y1="180.9366" x2="419.8878" y2="180.9366">
		<stop  offset="5.586590e-03" style="stop-color:#FDCF79"/>
		<stop  offset="1" style="stop-color:#8A6D35"/>
	</linearGradient>
	
		<linearGradient id="SVGID_00000163754090895066388020000011517259993678361505_" gradientUnits="userSpaceOnUse" x1="396.7717" y1="194.8656" x2="412.7832" y2="167.1328">
		<stop  offset="5.586590e-03" style="stop-color:#FDCF79"/>
		<stop  offset="1" style="stop-color:#8A6D35"/>
	</linearGradient>
	
		<path style="fill:url(#SVGID_00000123414751472879799530000009977184414184896163_);stroke:url(#SVGID_00000163754090895066388020000011517259993678361505_);stroke-width:3;stroke-miterlimit:10;" d="
		M419.25,196.16c0.35-1.28,0.57-2.6,0.64-3.93c0.03-1.35-0.16-2.71-0.41-4.07c-0.52-2.72-1.49-5.42-2.74-8.01
		c-0.31-0.65-0.66-1.28-0.99-1.91c-0.38-0.63-0.79-1.25-1.21-1.86c-0.83-1.22-1.73-2.41-2.64-3.52c-1.82-2.25-3.75-4.28-5.63-6.04
		c-0.9-0.88-1.88-1.7-2.83-2.45c-0.93-0.73-1.84-1.42-2.67-2.03c-3.36-2.41-5.71-3.72-5.71-3.72s-0.03,2.3,0.33,5.79
		c0.15,0.88,0.18,1.82,0.24,2.84c0.09,1.02,0.17,2.09,0.31,3.21c0.25,2.24,0.76,4.66,1.24,7.15c0.43,2.5,1.05,5.07,1.95,7.6
		c0.44,1.25,0.95,2.51,1.54,3.73c0.52,1.22,1.08,2.42,1.76,3.57c2.65,4.61,6.68,8.64,12.74,10.72
		C417.23,201.13,418.54,198.71,419.25,196.16z"/>
	
		<linearGradient id="SVGID_00000101093801653627228770000011299911187719106690_" gradientUnits="userSpaceOnUse" x1="429.9623" y1="132.599" x2="452.8108" y2="132.599">
		<stop  offset="5.586590e-03" style="stop-color:#FDCF79"/>
		<stop  offset="1" style="stop-color:#8A6D35"/>
	</linearGradient>
	<path style="fill:url(#SVGID_00000101093801653627228770000011299911187719106690_);" d="M430.59,143.41
		c-0.64,2.77-0.81,5.47-0.4,8.14c0.19,1.33,0.62,2.63,1.07,3.94c0.45,1.3,1.08,2.6,1.9,3.88c6.3-0.9,11.17-4.49,14.15-9.68
		c1.56-2.59,2.76-5.55,3.72-8.7c0.83-3.14,1.26-6.43,1.54-9.74c0.12-1.64,0.23-3.3,0.25-4.9c-0.05-1.59-0.14-3.15-0.25-4.64
		c-0.23-3.02-0.55-5.8-0.9-8.18c-0.96-4.67-1.86-7.69-1.86-7.69s-1.73,2.49-4.12,6.33c-1.17,1.9-2.55,4.15-4.07,6.64
		c-1.49,2.47-3,5.13-4.42,7.87c-1.35,2.71-2.83,5.55-4,8.35C431.98,137.85,431.14,140.65,430.59,143.41z"/>
	
		<linearGradient id="SVGID_00000059993333518419892800000007300778880603916961_" gradientUnits="userSpaceOnUse" x1="387.4809" y1="139.3455" x2="420.1807" y2="139.3455">
		<stop  offset="5.586590e-03" style="stop-color:#FDCF79"/>
		<stop  offset="1" style="stop-color:#8A6D35"/>
	</linearGradient>
	
		<linearGradient id="SVGID_00000031171060793154395410000015997923071827933355_" gradientUnits="userSpaceOnUse" x1="395.9787" y1="149.6219" x2="408.2817" y2="128.3124">
		<stop  offset="5.586590e-03" style="stop-color:#FDCF79"/>
		<stop  offset="1" style="stop-color:#8A6D35"/>
	</linearGradient>
	
		<path style="fill:url(#SVGID_00000059993333518419892800000007300778880603916961_);stroke:url(#SVGID_00000031171060793154395410000015997923071827933355_);stroke-width:3;stroke-miterlimit:10;" d="
		M418.52,142.6c-1.14-2.49-2.85-4.83-4.73-6.98c-0.95-1.07-1.97-2.11-3.01-3.07c-1.05-0.97-2.27-1.86-3.42-2.71
		c-4.73-3.35-9.47-5.76-13.44-7.18c-3.84-1.45-6.46-2.07-6.46-2.07s0.55,2.19,1.81,5.4c0.54,1.64,1.16,3.56,2.04,5.6
		c0.4,1.02,0.88,2.08,1.4,3.15c0.51,1.08,0.93,2.21,1.5,3.32c1.04,2.24,2.35,4.49,3.85,6.66c1.35,2.18,2.96,4.28,4.87,6.15
		c3.91,3.7,8.5,6.63,14.89,7.23c0.78-1.26,1.38-2.54,1.8-3.83c0.43-1.31,0.52-2.63,0.55-3.94
		C420.18,147.71,419.56,145.09,418.52,142.6z"/>
	
		<linearGradient id="SVGID_00000159435257303717727390000016713692622953657767_" gradientUnits="userSpaceOnUse" x1="417.6931" y1="85.4127" x2="436.9068" y2="85.4127">
		<stop  offset="5.586590e-03" style="stop-color:#FDCF79"/>
		<stop  offset="1" style="stop-color:#8A6D35"/>
	</linearGradient>
	
		<linearGradient id="SVGID_00000008839531114061371780000013724462905365138089_" gradientUnits="userSpaceOnUse" x1="414.0625" y1="109.1528" x2="441.0013" y2="62.4935">
		<stop  offset="5.586590e-03" style="stop-color:#FDCF79"/>
		<stop  offset="1" style="stop-color:#8A6D35"/>
	</linearGradient>
	
		<path style="fill:url(#SVGID_00000159435257303717727390000016713692622953657767_);stroke:url(#SVGID_00000008839531114061371780000013724462905365138089_);stroke-width:3;stroke-miterlimit:10;" d="
		M427.21,57.67c0,0-1.04,2.76-2.53,7.09c-1.49,4.33-3.15,9.99-4.71,16.03c-0.76,3-1.28,6.01-1.74,9.02
		c-0.45,3.02-0.67,5.96-0.45,8.72c0.14,1.38,0.24,2.76,0.51,4.08c0.27,1.34,0.65,2.61,1.19,3.83c0.53,1.21,1.21,2.38,2.04,3.49
		c0.78,1.12,1.72,2.21,2.83,3.23c2.96-1.25,5.33-3.03,7.21-5.24c1.92-2.21,3.11-4.79,3.99-7.68c0.45-1.44,0.76-2.95,1.01-4.51
		c0.21-1.56,0.38-3.18,0.35-4.76c-0.02-3.21-0.35-6.53-0.87-9.75c-1.28-6.35-3.31-12.4-5.33-16.61c-0.95-2.14-1.82-3.89-2.44-5.11
		C427.62,58.32,427.21,57.67,427.21,57.67z"/>
	
		<linearGradient id="SVGID_00000043449939262125213860000016213992028657764005_" gradientUnits="userSpaceOnUse" x1="370.533" y1="100.1015" x2="410.1345" y2="100.1015">
		<stop  offset="5.586590e-03" style="stop-color:#FDCF79"/>
		<stop  offset="1" style="stop-color:#8A6D35"/>
	</linearGradient>
	
		<linearGradient id="SVGID_00000168816948564513142770000012052363059123901858_" gradientUnits="userSpaceOnUse" x1="384.6071" y1="107.9163" x2="395.3604" y2="89.2913">
		<stop  offset="5.586590e-03" style="stop-color:#FDCF79"/>
		<stop  offset="1" style="stop-color:#8A6D35"/>
	</linearGradient>
	
		<path style="fill:url(#SVGID_00000043449939262125213860000016213992028657764005_);stroke:url(#SVGID_00000168816948564513142770000012052363059123901858_);stroke-width:3;stroke-miterlimit:10;" d="
		M408.27,102.54c-0.6-1.18-1.29-2.32-2.21-3.33c-1.77-2.08-3.91-3.94-6.26-5.54c-2.36-1.6-5.08-2.85-7.7-3.91
		c-1.33-0.52-2.66-1-3.95-1.41c-1.29-0.42-2.66-0.74-3.93-1.02c-2.54-0.59-4.9-0.97-6.92-1.21c-2.02-0.25-3.68-0.38-4.88-0.42
		c-1.22-0.06-1.89-0.05-1.89-0.05s0.28,0.49,0.83,1.35c0.52,0.86,1.21,2.1,2.19,3.56c0.48,0.73,1,1.5,1.61,2.32
		c0.31,0.41,0.62,0.83,0.94,1.25c0.28,0.44,0.59,0.89,0.92,1.34c1.28,1.8,2.78,3.69,4.47,5.55c1.56,1.91,3.35,3.78,5.33,5.49
		c0.5,0.43,1.03,0.85,1.52,1.25c0.5,0.43,1,0.82,1.52,1.22c1.03,0.78,2.12,1.5,3.28,2.15c2.26,1.32,4.87,2.33,7.52,2.92
		c2.66,0.59,5.56,0.73,8.71,0.2c0.44-1.4,0.71-2.79,0.76-4.15c0-1.33-0.17-2.63-0.48-3.89
		C409.34,104.92,408.86,103.71,408.27,102.54z"/>
	
		<linearGradient id="SVGID_00000137119754839645035190000009938231041679428004_" gradientUnits="userSpaceOnUse" x1="392.5997" y1="43.92" x2="412.138" y2="43.92">
		<stop  offset="5.586590e-03" style="stop-color:#FDCF79"/>
		<stop  offset="1" style="stop-color:#8A6D35"/>
	</linearGradient>
	
		<linearGradient id="SVGID_00000039102135248186805140000003075710893642978460_" gradientUnits="userSpaceOnUse" x1="388.4716" y1="63.621" x2="411.4605" y2="23.803">
		<stop  offset="5.586590e-03" style="stop-color:#FDCF79"/>
		<stop  offset="1" style="stop-color:#8A6D35"/>
	</linearGradient>
	
		<path style="fill:url(#SVGID_00000137119754839645035190000009938231041679428004_);stroke:url(#SVGID_00000039102135248186805140000003075710893642978460_);stroke-width:3;stroke-miterlimit:10;" d="
		M404.29,70.98c5.08-3.82,7.43-9.17,7.81-15.16c0.16-2.96-0.18-6.07-0.84-9.2c-0.67-3.11-1.76-6.15-3-9.13
		c-1.24-2.95-2.78-5.67-4.25-8.2c-1.47-2.52-3.08-4.69-4.42-6.56c-1.35-1.87-2.59-3.32-3.48-4.33c-0.87-0.99-1.38-1.55-1.38-1.55
		s-0.49,2.96-0.95,7.37c-0.26,2.25-0.53,4.88-0.74,7.67c-0.1,1.41-0.19,2.85-0.24,4.33c-0.09,1.49-0.17,3.03-0.18,4.56
		c-0.07,6.08,0.2,12.38,1.83,17.67c0.78,2.69,1.9,5.12,3.54,7.2C399.53,67.8,401.56,69.61,404.29,70.98z"/>
	
		<linearGradient id="SVGID_00000054256548549971169400000000873824334182917537_" gradientUnits="userSpaceOnUse" x1="345.5829" y1="64.9091" x2="390.21" y2="64.9091">
		<stop  offset="5.586590e-03" style="stop-color:#FDCF79"/>
		<stop  offset="1" style="stop-color:#8A6D35"/>
	</linearGradient>
	
		<linearGradient id="SVGID_00000134932465959521445060000007181360598149489290_" gradientUnits="userSpaceOnUse" x1="363.0862" y1="71.7944" x2="373.9442" y2="52.9877">
		<stop  offset="5.586590e-03" style="stop-color:#FDCF79"/>
		<stop  offset="1" style="stop-color:#8A6D35"/>
	</linearGradient>
	
		<path style="fill:url(#SVGID_00000054256548549971169400000000873824334182917537_);stroke:url(#SVGID_00000134932465959521445060000007181360598149489290_);stroke-width:3;stroke-miterlimit:10;" d="
		M383.39,60.37c-4.37-3.25-10.08-5.19-15.77-6.02c-2.8-0.46-5.63-0.62-8.25-0.64c-2.61-0.01-4.99,0.09-7.04,0.29
		c-4.12,0.42-6.75,0.98-6.75,0.98s0.37,0.44,1.07,1.18c0.71,0.74,1.79,1.74,3,3.01c1.26,1.25,2.84,2.62,4.53,4.11
		c1.66,1.5,3.61,3.02,5.64,4.5c2.02,1.51,4.25,2.93,6.57,4.16c2.28,1.28,4.7,2.35,7.29,3.06c5.06,1.49,10.6,1.72,16.49-0.86
		c0.14-2.91-0.45-5.56-1.63-7.88C387.31,64,385.52,62.03,383.39,60.37z"/>
</g>
<g>
	<path d="M61.79,404.9c0.22-1.22,0.65-1.87,1.22-1.87c0.58,0,1.01,0.36,1.94,2.23l19.63,40.56l19.56-41.06
		c0.58-1.15,0.94-1.73,1.58-1.73c0.65,0,1.08,0.72,1.29,2.23l6.54,44.45c0.65,4.53,1.37,6.62,3.52,7.26
		c2.09,0.65,3.52,0.72,4.46,0.72c0.65,0,1.15,0.07,1.15,0.5c0,0.58-0.86,0.79-1.87,0.79c-1.8,0-11.72-0.22-14.6-0.43
		c-1.65-0.14-2.09-0.36-2.09-0.79c0-0.36,0.29-0.58,0.79-0.79c0.43-0.14,0.65-1.08,0.36-3.09l-4.32-31.64h-0.29l-15.68,32.65
		c-1.65,3.38-2.01,4.03-2.66,4.03c-0.65,0-1.37-1.44-2.52-3.6c-1.73-3.31-7.41-14.31-8.27-16.33c-0.65-1.51-4.96-10.57-7.48-15.97
		h-0.29l-3.74,28.62c-0.14,1.29-0.22,2.23-0.22,3.38c0,1.37,0.93,2.01,2.16,2.3c1.29,0.29,2.3,0.36,3.02,0.36
		c0.58,0,1.08,0.14,1.08,0.5c0,0.65-0.65,0.79-1.73,0.79c-3.02,0-6.26-0.22-7.55-0.22c-1.37,0-4.82,0.22-7.12,0.22
		c-0.72,0-1.29-0.14-1.29-0.79c0-0.36,0.43-0.5,1.15-0.5c0.58,0,1.08,0,2.16-0.22c2.01-0.43,2.59-3.24,2.95-5.68L61.79,404.9z"/>
	<path d="M134.14,425.47c0-10.93,0-12.95-0.14-15.25c-0.14-2.45-0.86-3.67-2.45-4.03c-0.79-0.22-1.73-0.29-2.59-0.29
		c-0.72,0-1.15-0.14-1.15-0.72c0-0.43,0.58-0.58,1.73-0.58c2.73,0,7.26,0.22,9.35,0.22c1.8,0,6.04-0.22,8.77-0.22
		c0.93,0,1.51,0.14,1.51,0.58c0,0.58-0.43,0.72-1.15,0.72s-1.29,0.07-2.16,0.22c-1.94,0.36-2.52,1.58-2.66,4.1
		c-0.14,2.3-0.14,4.32-0.14,15.25v12.66c0,6.98,0,12.66,0.29,15.75c0.22,1.94,0.72,3.24,2.88,3.52c1.01,0.14,2.59,0.29,3.67,0.29
		c0.79,0,1.15,0.22,1.15,0.58c0,0.5-0.58,0.72-1.37,0.72c-4.75,0-9.28-0.22-11.22-0.22c-1.65,0-6.18,0.22-9.06,0.22
		c-0.93,0-1.44-0.22-1.44-0.72c0-0.36,0.29-0.58,1.15-0.58c1.08,0,1.94-0.14,2.59-0.29c1.44-0.29,1.87-1.51,2.09-3.6
		c0.36-3.02,0.36-8.7,0.36-15.68V425.47z"/>
	<path d="M175.64,438.13c0,9.21,0,14.17,1.51,15.46c1.22,1.08,3.09,1.58,8.7,1.58c3.81,0,6.62-0.07,8.41-2.01
		c0.86-0.93,1.73-2.95,1.87-4.32c0.07-0.65,0.22-1.08,0.79-1.08c0.5,0,0.58,0.36,0.58,1.22c0,0.79-0.5,6.19-1.08,8.27
		c-0.43,1.58-0.79,1.94-4.53,1.94c-5.18,0-8.92-0.14-12.15-0.22c-3.24-0.14-5.83-0.22-8.77-0.22c-0.79,0-2.37,0-4.1,0.07
		c-1.65,0-3.52,0.14-4.96,0.14c-0.93,0-1.44-0.22-1.44-0.72c0-0.36,0.29-0.58,1.15-0.58c1.08,0,1.94-0.14,2.59-0.29
		c1.44-0.29,1.8-1.87,2.09-3.96c0.36-3.02,0.36-8.7,0.36-15.32v-12.66c0-10.93,0-12.95-0.14-15.25c-0.14-2.45-0.72-3.6-3.09-4.1
		c-0.58-0.14-1.44-0.22-2.37-0.22c-0.79,0-1.22-0.14-1.22-0.65c0-0.5,0.5-0.65,1.58-0.65c3.38,0,7.91,0.22,9.85,0.22
		c1.73,0,6.98-0.22,9.78-0.22c1.01,0,1.51,0.14,1.51,0.65c0,0.5-0.43,0.65-1.29,0.65c-0.79,0-1.94,0.07-2.8,0.22
		c-1.94,0.36-2.52,1.58-2.66,4.1c-0.14,2.3-0.14,4.32-0.14,15.25V438.13z"/>
	<path d="M219.15,438.13c0,9.21,0,14.17,1.51,15.46c1.22,1.08,3.09,1.58,8.7,1.58c3.81,0,6.62-0.07,8.41-2.01
		c0.86-0.93,1.73-2.95,1.87-4.32c0.07-0.65,0.22-1.08,0.79-1.08c0.5,0,0.58,0.36,0.58,1.22c0,0.79-0.5,6.19-1.08,8.27
		c-0.43,1.58-0.79,1.94-4.53,1.94c-5.18,0-8.92-0.14-12.15-0.22c-3.24-0.14-5.83-0.22-8.77-0.22c-0.79,0-2.37,0-4.1,0.07
		c-1.65,0-3.52,0.14-4.96,0.14c-0.93,0-1.44-0.22-1.44-0.72c0-0.36,0.29-0.58,1.15-0.58c1.08,0,1.94-0.14,2.59-0.29
		c1.44-0.29,1.8-1.87,2.09-3.96c0.36-3.02,0.36-8.7,0.36-15.32v-12.66c0-10.93,0-12.95-0.14-15.25c-0.14-2.45-0.72-3.6-3.09-4.1
		c-0.58-0.14-1.44-0.22-2.37-0.22c-0.79,0-1.22-0.14-1.22-0.65c0-0.5,0.5-0.65,1.58-0.65c3.38,0,7.91,0.22,9.85,0.22
		c1.73,0,6.98-0.22,9.78-0.22c1.01,0,1.51,0.14,1.51,0.65c0,0.5-0.43,0.65-1.29,0.65c-0.79,0-1.94,0.07-2.8,0.22
		c-1.94,0.36-2.52,1.58-2.66,4.1c-0.14,2.3-0.14,4.32-0.14,15.25V438.13z"/>
	<path d="M253.67,425.47c0-10.93,0-12.95-0.14-15.25c-0.14-2.45-0.86-3.67-2.45-4.03c-0.79-0.22-1.73-0.29-2.59-0.29
		c-0.72,0-1.15-0.14-1.15-0.72c0-0.43,0.58-0.58,1.73-0.58c2.73,0,7.26,0.22,9.35,0.22c1.8,0,6.04-0.22,8.77-0.22
		c0.93,0,1.51,0.14,1.51,0.58c0,0.58-0.43,0.72-1.15,0.72s-1.29,0.07-2.16,0.22c-1.94,0.36-2.52,1.58-2.66,4.1
		c-0.14,2.3-0.14,4.32-0.14,15.25v12.66c0,6.98,0,12.66,0.29,15.75c0.22,1.94,0.72,3.24,2.88,3.52c1.01,0.14,2.59,0.29,3.67,0.29
		c0.79,0,1.15,0.22,1.15,0.58c0,0.5-0.58,0.72-1.37,0.72c-4.75,0-9.28-0.22-11.22-0.22c-1.65,0-6.18,0.22-9.06,0.22
		c-0.93,0-1.44-0.22-1.44-0.72c0-0.36,0.29-0.58,1.15-0.58c1.08,0,1.94-0.14,2.59-0.29c1.44-0.29,1.87-1.51,2.09-3.6
		c0.36-3.02,0.36-8.7,0.36-15.68V425.47z"/>
	<path d="M277.62,431.8c0-12.3,8.13-28.19,29.7-28.19c17.91,0,29.05,10.43,29.05,26.9s-11.51,29.49-29.77,29.49
		C285.97,459.99,277.62,444.53,277.62,431.8z M326.31,433.17c0-16.11-9.28-26.11-21.07-26.11c-8.27,0-17.69,4.6-17.69,22.51
		c0,14.96,8.27,26.83,22.08,26.83C314.66,456.4,326.31,453.95,326.31,433.17z"/>
	<path d="M355.44,449.2c0.14,5.61,1.08,7.48,2.52,7.98c1.22,0.43,2.59,0.5,3.74,0.5c0.79,0,1.22,0.14,1.22,0.58
		c0,0.58-0.65,0.72-1.65,0.72c-4.67,0-7.55-0.22-8.92-0.22c-0.65,0-4.03,0.22-7.77,0.22c-0.94,0-1.58-0.07-1.58-0.72
		c0-0.43,0.43-0.58,1.15-0.58c0.93,0,2.23-0.07,3.24-0.36c1.87-0.58,2.16-2.66,2.23-8.92l0.65-42.58c0-1.44,0.22-2.45,0.93-2.45
		c0.79,0,1.44,0.93,2.66,2.23c0.86,0.94,11.79,12.66,22.29,23.09c4.89,4.89,14.6,15.25,15.82,16.4h0.36l-0.72-32.29
		c-0.07-4.39-0.72-5.75-2.45-6.47c-1.08-0.43-2.8-0.43-3.81-0.43c-0.86,0-1.15-0.22-1.15-0.65c0-0.58,0.79-0.65,1.87-0.65
		c3.74,0,7.19,0.22,8.7,0.22c0.79,0,3.52-0.22,7.05-0.22c0.94,0,1.65,0.07,1.65,0.65c0,0.43-0.43,0.65-1.29,0.65
		c-0.72,0-1.29,0-2.16,0.22c-2.01,0.58-2.59,2.09-2.66,6.11l-0.79,45.38c0,1.58-0.29,2.23-0.93,2.23c-0.79,0-1.65-0.79-2.45-1.58
		c-4.53-4.32-13.74-13.74-21.22-21.14c-7.84-7.77-15.82-16.76-17.12-18.12h-0.22L355.44,449.2z"/>
	<path d="M428.87,464.59c-0.07,0.36-0.36,0.5-0.72,0.58l-2.23,0.43c-0.43,0.07-0.58-0.14-0.5-0.72l0.72-6.11
		c-1.51,0-6.33-0.43-9.06-1.51c-2.01-0.86-2.45-1.15-2.45-3.09c0-4.1,0.86-7.77,1.08-8.7c0.29-1.15,0.58-1.73,1.08-1.73
		c0.5,0,0.58,0.43,0.5,1.94c-0.14,1.94,0.36,4.67,2.09,6.54c2.01,2.23,4.96,3.24,7.05,3.24l2.3-21.22
		c-7.91-6.04-11.72-10.28-11.72-17.12c0-8.85,8.7-12.95,15.25-12.95l0.72-5.75c0.07-0.43,0.5-0.58,0.79-0.65l2.16-0.5
		c0.36-0.07,0.65,0,0.58,0.36l-0.86,6.54c3.31,0,6.62,0.86,7.91,1.37c1.01,0.36,1.22,0.65,1.22,1.8c0,1.58-0.58,6.54-0.86,7.91
		c-0.14,0.79-0.36,1.01-0.79,1.01c-0.5,0-0.72-0.29-0.72-1.37c-0.07-1.87-0.22-3.6-2.16-5.54c-1.29-1.37-3.74-2.16-4.89-2.16
		l-2.23,19.49c7.19,4.82,11.94,9.35,11.94,17.26c0,11.08-9.85,14.82-15.53,14.82L428.87,464.59z M431.89,407.2
		c-2.66,0-8.34,1.29-8.34,8.05c0,3.96,3.02,6.62,6.4,9.35L431.89,407.2z M430.02,455.46c4.75-0.29,8.27-4.03,8.27-9.21
		c0-4.39-2.73-7.41-6.33-9.85L430.02,455.46z"/>
</g>
<g>
	<path class="st33" d="M199.76,188.58c0-9.64,0-17.32,0-23.39c0-4.28,0-6.43-2.68-6.43c-3.39,0-16.78,6.96-20.71,8.57
		c-0.89,0.36-1.79,0.71-2.5,0.71c-0.54,0-1.43-0.89-1.43-1.96s0.89-1.96,1.79-2.5c0.71-0.36,35-22.85,41.25-27.5
		c1.61-1.07,3.21-2.32,4.64-2.32c1.61,0,2.14,1.96,2.14,3.75c0,1.43-1.07,19.1-1.07,46.42v33.03c0,17.14,0,32.32,0.71,40.17
		c0.54,5.71,1.43,8.39,7.14,9.64c2.68,0.54,10.36,1.07,11.78,1.07c0.71,0,1.61,0.54,1.61,1.79c0,1.25-0.89,1.61-2.86,1.61
		c-13.57,0-25-0.54-29.82-0.54c-4.11,0-19.1,0.54-30.53,0.54c-1.96,0-3.04-0.36-3.04-1.61c0-1.25,0.71-1.79,1.43-1.79
		c1.96,0,11.07-0.54,14.28-1.25c5.71-1.25,6.61-3.75,7.14-9.46c0.71-7.86,1.07-23.03,0.89-40.17L199.76,188.58z"/>
	<path class="st33" d="M278.11,273.75c-35.17,0-44.82-40.71-44.82-66.06c0-41.6,14.64-73.92,47.67-73.92
		c35.35,0,44.82,37.5,44.82,65.89C325.78,243.93,308.82,273.75,278.11,273.75z M277.21,141.8c-13.39,0-23.03,18.39-23.03,59.1
		c0,30.89,7.68,64.81,27.32,64.81c14.46,0,23.39-24.46,23.39-59.1C304.89,175.73,296.68,141.8,277.21,141.8z"/>
</g>
<g>
	<path d="M196.35,494c-1.64,0-3.16-0.28-4.55-0.83c-1.39-0.55-2.6-1.33-3.62-2.32c-1.02-1-1.81-2.17-2.38-3.52
		c-0.57-1.35-0.86-2.83-0.86-4.43c0-1.6,0.29-3.08,0.86-4.43c0.57-1.35,1.37-2.53,2.4-3.52c1.03-1,2.24-1.77,3.63-2.32
		c1.39-0.55,2.91-0.83,4.55-0.83c1.58,0,3.07,0.27,4.46,0.8c1.39,0.53,2.57,1.32,3.52,2.38l-1.47,1.47
		c-0.89-0.91-1.88-1.57-2.96-1.98c-1.08-0.41-2.24-0.61-3.49-0.61c-1.31,0-2.53,0.22-3.65,0.67c-1.12,0.45-2.1,1.08-2.93,1.9
		c-0.83,0.82-1.48,1.78-1.95,2.87c-0.47,1.09-0.7,2.29-0.7,3.6c0,1.31,0.23,2.51,0.7,3.6c0.47,1.09,1.12,2.05,1.95,2.87
		c0.83,0.82,1.81,1.46,2.93,1.9c1.12,0.45,2.34,0.67,3.65,0.67c1.25,0,2.41-0.21,3.49-0.62c1.08-0.42,2.07-1.08,2.96-2l1.47,1.47
		c-0.96,1.06-2.13,1.86-3.52,2.4C199.45,493.73,197.95,494,196.35,494z"/>
	<path d="M224.88,493.81v-21.82h2.31v19.83h12.22v2H224.88z"/>
	<path d="M267.22,494c-2.79,0-4.98-0.8-6.58-2.4c-1.6-1.6-2.4-3.97-2.4-7.11v-12.5h2.31v12.41c0,2.58,0.58,4.48,1.75,5.71
		c1.16,1.23,2.81,1.84,4.93,1.84c2.14,0,3.79-0.61,4.96-1.84c1.16-1.23,1.75-3.13,1.75-5.71v-12.41h2.24v12.5
		c0,3.14-0.79,5.51-2.38,7.11C272.19,493.2,270,494,267.22,494z"/>
	<path d="M298.7,493.81v-21.82h9.42c2.43,0,4.32,0.49,5.66,1.47c1.34,0.98,2.01,2.36,2.01,4.15c0,1.18-0.28,2.18-0.83,2.99
		c-0.55,0.81-1.3,1.42-2.24,1.84c-0.95,0.42-1.98,0.62-3.1,0.62l0.53-0.75c1.39,0,2.59,0.21,3.6,0.64c1.01,0.43,1.79,1.06,2.35,1.9
		c0.56,0.84,0.84,1.89,0.84,3.13c0,1.85-0.68,3.28-2.04,4.3c-1.36,1.02-3.41,1.53-6.16,1.53H298.7z M301.01,491.91h7.7
		c1.91,0,3.38-0.33,4.4-0.98c1.02-0.65,1.53-1.7,1.53-3.13c0-1.41-0.51-2.45-1.53-3.1c-1.02-0.65-2.48-0.98-4.4-0.98h-7.95v-1.9h7.2
		c1.75,0,3.1-0.33,4.07-1c0.97-0.67,1.45-1.65,1.45-2.96c0-1.33-0.48-2.32-1.45-2.98c-0.97-0.65-2.32-0.98-4.07-0.98h-6.95V491.91z"
		/>
</g>
<g>
	
		<linearGradient id="SVGID_00000122687099726432276040000005610580836134366096_" gradientUnits="userSpaceOnUse" x1="249.6899" y1="58.7555" x2="249.6899" y2="40.2985">
		<stop  offset="5.586590e-03" style="stop-color:#FDCF79"/>
		<stop  offset="1" style="stop-color:#8A6D35"/>
	</linearGradient>
	<path style="fill:url(#SVGID_00000122687099726432276040000005610580836134366096_);" d="M249.69,58.76c0,0-3.48-4.92-4.49-9.77
		c-1.32-6.38,2.16-8.68,4.49-8.68h0c2.33,0,5.81,2.3,4.48,8.68C253.17,53.83,249.69,58.76,249.69,58.76L249.69,58.76z"/>
	<g>
		
			<linearGradient id="SVGID_00000072248799899528033020000006756316403003610795_" gradientUnits="userSpaceOnUse" x1="182.4342" y1="169.7571" x2="306.7989" y2="45.3925">
			<stop  offset="5.586590e-03" style="stop-color:#FDCF79"/>
			<stop  offset="1" style="stop-color:#8A6D35"/>
		</linearGradient>
		<path style="fill:url(#SVGID_00000072248799899528033020000006756316403003610795_);" d="M248.7,119.63
			c22.67,0,44.04,4.81,63.82,13.39l15.86-45.09c0,0-12.88,19.32-24.84,19.32c-11.8,0-14.11-17.02-14.11-17.02s-7.67,9.88-17.63,5.37
			c-12.88-5.83-22.15-36.65-22.15-36.65s-9.35,30.9-22.23,36.72c-9.97,4.51-17.63-5.37-17.63-5.37s-2.3,17.02-14.11,17.02
			c-11.96,0-24.84-19.32-24.84-19.32l15.57,44.27C206.37,124.13,227.79,119.63,248.7,119.63z M249.93,82.01l7.78,14.61l-7.78,14.61
			l-7.78-14.61L249.93,82.01z"/>
		
			<linearGradient id="SVGID_00000095297023158944028990000013564387444585600161_" gradientUnits="userSpaceOnUse" x1="281.1024" y1="151.1578" x2="226.1904" y2="56.0472">
			<stop  offset="5.586590e-03" style="stop-color:#FDCF79"/>
			<stop  offset="1" style="stop-color:#8A6D35"/>
		</linearGradient>
		<path style="fill:url(#SVGID_00000095297023158944028990000013564387444585600161_);" d="M249.65,62.2
			c2.71,7.98,10.86,29.39,21.74,34.31c1.86,0.84,3.78,1.27,5.7,1.27c5.43,0,9.65-3.34,11.73-5.38c1.05,4.71,4.61,15.86,14.72,15.86
			c8.36,0,16.91-8.67,21.74-14.54l-13.35,37.95c-20.31-8.66-41.58-13.04-63.23-13.04c-20.28,0-41.58,4.26-61.68,12.32l-13.07-37.15
			c4.83,5.86,13.38,14.54,21.74,14.54c10.11,0,13.67-11.15,14.72-15.86c2.08,2.05,6.3,5.38,11.73,5.38c1.92,0,3.84-0.43,5.7-1.27
			C238.71,91.67,246.92,70.19,249.65,62.2 M249.65,58.95c0,0-9.35,30.9-22.23,36.72c-1.85,0.84-3.63,1.18-5.28,1.18
			c-7.27,0-12.35-6.55-12.35-6.55s-2.3,17.02-14.11,17.02c-11.96,0-24.84-19.32-24.84-19.32l15.57,44.27
			c19.95-8.14,41.37-12.64,62.28-12.64c22.67,0,44.04,4.81,63.82,13.39l15.86-45.09c0,0-12.88,19.32-24.84,19.32
			c-11.8,0-14.11-17.02-14.11-17.02s-5.08,6.55-12.35,6.55c-1.66,0-3.43-0.34-5.28-1.18C258.92,89.77,249.65,58.95,249.65,58.95
			L249.65,58.95z"/>
	</g>
	
		<linearGradient id="SVGID_00000104706653450731446850000007452500143198685836_" gradientUnits="userSpaceOnUse" x1="249.8579" y1="63.5877" x2="249.8579" y2="54.3116">
		<stop  offset="5.586590e-03" style="stop-color:#FDCF79"/>
		<stop  offset="1" style="stop-color:#8A6D35"/>
	</linearGradient>
	<path style="fill:url(#SVGID_00000104706653450731446850000007452500143198685836_);" d="M254.5,58.95c0,2.56-2.08,4.64-4.64,4.64
		s-4.64-2.08-4.64-4.64s2.08-4.64,4.64-4.64S254.5,56.39,254.5,58.95z"/>
	
		<linearGradient id="SVGID_00000033354515178375199990000011774339467672117912_" gradientUnits="userSpaceOnUse" x1="290.1009" y1="92.8424" x2="290.1009" y2="83.5663">
		<stop  offset="5.586590e-03" style="stop-color:#FDCF79"/>
		<stop  offset="1" style="stop-color:#8A6D35"/>
	</linearGradient>
	<path style="fill:url(#SVGID_00000033354515178375199990000011774339467672117912_);" d="M294.74,88.2c0,2.56-2.08,4.64-4.64,4.64
		c-2.56,0-4.64-2.08-4.64-4.64c0-2.56,2.08-4.64,4.64-4.64C292.66,83.57,294.74,85.64,294.74,88.2z"/>
	
		<linearGradient id="SVGID_00000027568312256182872400000007601947379162626180_" gradientUnits="userSpaceOnUse" x1="209.044" y1="92.8424" x2="209.044" y2="83.5663">
		<stop  offset="5.586590e-03" style="stop-color:#FDCF79"/>
		<stop  offset="1" style="stop-color:#8A6D35"/>
	</linearGradient>
	<path style="fill:url(#SVGID_00000027568312256182872400000007601947379162626180_);" d="M213.68,88.2c0,2.56-2.08,4.64-4.64,4.64
		s-4.64-2.08-4.64-4.64c0-2.56,2.08-4.64,4.64-4.64S213.68,85.64,213.68,88.2z"/>
	
		<linearGradient id="SVGID_00000155127409069822660610000000931028641188230022_" gradientUnits="userSpaceOnUse" x1="170.6562" y1="90.4163" x2="170.6562" y2="81.1402">
		<stop  offset="5.586590e-03" style="stop-color:#FDCF79"/>
		<stop  offset="1" style="stop-color:#8A6D35"/>
	</linearGradient>
	<path style="fill:url(#SVGID_00000155127409069822660610000000931028641188230022_);" d="M175.29,85.78c0,2.56-2.08,4.64-4.64,4.64
		c-2.56,0-4.64-2.08-4.64-4.64s2.08-4.64,4.64-4.64C173.22,81.14,175.29,83.22,175.29,85.78z"/>
	
		<linearGradient id="SVGID_00000113344158321288854160000010851568826659696296_" gradientUnits="userSpaceOnUse" x1="327.5611" y1="90.4163" x2="327.5611" y2="81.1402">
		<stop  offset="5.586590e-03" style="stop-color:#FDCF79"/>
		<stop  offset="1" style="stop-color:#8A6D35"/>
	</linearGradient>
	<path style="fill:url(#SVGID_00000113344158321288854160000010851568826659696296_);" d="M332.2,85.78c0,2.56-2.08,4.64-4.64,4.64
		c-2.56,0-4.64-2.08-4.64-4.64s2.08-4.64,4.64-4.64C330.12,81.14,332.2,83.22,332.2,85.78z"/>
</g>
</svg>
