<svg id="Capa_1" data-name="Capa 1" xmlns="http://www.w3.org/2000/svg" xmlns:xlink="http://www.w3.org/1999/xlink" viewBox="0 0 397.28 106.6"><defs><style>.cls-1{fill:none;clip-rule:evenodd;}.cls-2,.cls-5{fill:#fff;}.cls-2{fill-rule:evenodd;}.cls-3{clip-path:url(#clip-path);}.cls-4{fill:url(#Degradado_sin_nombre);}</style><clipPath id="clip-path" transform="translate(-99.94 -77.24)"><path class="cls-1" d="M180.69,100.78a20.24,20.24,0,1,1-28.56,2,20.24,20.24,0,0,1,28.56-2m-60.9,70.08a2.31,2.31,0,0,1-.83-2.53l2.4-21.54c.29-2.53-.92-6-5.26-9.76l-8.19-7.12c-8-6.92-6.46-22.76,5.21-26.84l68.2-23.84c5.71-2,11.07.63,14.76,3.83s7,8.15,5.85,14.08L187.84,168c-2.41,12.12-17.88,15.83-25.85,8.9l-8.19-7.12c-4.35-3.77-7.93-4.49-10.41-3.85l-21,5.38C121.15,171.64,120.66,171.61,119.79,170.86Z"/></clipPath><linearGradient id="Degradado_sin_nombre" x1="34.75" y1="72.62" x2="97.97" y2="0.06" gradientUnits="userSpaceOnUse"><stop offset="0" stop-color="#00b3e9"/><stop offset="1" stop-color="#4ac0b7"/></linearGradient></defs><path class="cls-2" d="M174.78,107.57a11.24,11.24,0,1,1-15.85,1.11,11.23,11.23,0,0,1,15.85-1.11" transform="translate(-99.94 -77.24)"/><g class="cls-3"><rect class="cls-4" width="103.17" height="106.6"/></g><path class="cls-5" d="M237.57,132.75a16.91,16.91,0,0,0,9-2.34,15,15,0,0,0,5.77-6.44,21.5,21.5,0,0,0,2-9.32q0-5.46-3.2-8.4c-2.13-2-5.24-3-9.36-3h-8.41l-5.51,29.46Zm51.94,1.08a8,8,0,0,0,6.57-3.23,13,13,0,0,0,2.54-8.36,8.47,8.47,0,0,0-1.9-5.83,6.74,6.74,0,0,0-5.3-2.15,8,8,0,0,0-6.57,3.22,13.22,13.22,0,0,0-2.55,8.44,8.35,8.35,0,0,0,1.91,5.8A6.8,6.8,0,0,0,289.51,133.83Zm-.78,11.74a22.71,22.71,0,0,1-10.59-2.34,16.81,16.81,0,0,1-7-6.64,19.64,19.64,0,0,1-2.47-10,24.81,24.81,0,0,1,3-12.28,22.46,22.46,0,0,1,8.41-8.59,23.44,23.44,0,0,1,12.08-3.15,22.73,22.73,0,0,1,10.6,2.34,16.84,16.84,0,0,1,7,6.6,19.41,19.41,0,0,1,2.47,9.93,25,25,0,0,1-3,12.32,22.39,22.39,0,0,1-8.37,8.63A23.4,23.4,0,0,1,288.73,145.57Zm44.63,0a22.74,22.74,0,0,1-10.57-2.34,16.92,16.92,0,0,1-7-6.64,19.45,19.45,0,0,1-2.5-10,24.91,24.91,0,0,1,3-12.28,22.3,22.3,0,0,1,8.43-8.59,23.73,23.73,0,0,1,12.16-3.15,20.62,20.62,0,0,1,11.16,3,17.16,17.16,0,0,1,6.89,8.33l-11.38,5.91q-2.12-5.54-7.38-5.53a8.33,8.33,0,0,0-6.71,3.22,12.73,12.73,0,0,0-2.63,8.29,8.53,8.53,0,0,0,1.93,5.87,7,7,0,0,0,5.52,2.19,8.52,8.52,0,0,0,4.7-1.31,10.47,10.47,0,0,0,3.51-4.14l9.77,6.44a19.84,19.84,0,0,1-7.69,7.91A22.16,22.16,0,0,1,333.36,145.57Zm38.58-15.34a12.32,12.32,0,0,0-.14,1.38q0,3.52,3.57,3.53a8.23,8.23,0,0,0,4.08-1.23L381.17,144a19,19,0,0,1-10.09,2.46q-6,0-9.56-3.22t-3.54-9a18.87,18.87,0,0,1,.36-3.91l2.58-13.74h-5.73l2.07-10.89h5.66l2-10.82h13.6l-2,10.82h15.13l2-10.82h13.6l-2,10.82h8.8l-2,10.89h-8.81l-2.57,13.66a13.37,13.37,0,0,0-.15,1.38q0,3.52,3.58,3.53a8.23,8.23,0,0,0,4.08-1.23L409.9,144a19,19,0,0,1-10.1,2.46q-6,0-9.55-3.22t-3.54-9a19.64,19.64,0,0,1,.35-3.91l2.58-13.74H374.51Zm88.4-26.58-7.73,41.58H439.73l.78-4.3a16.06,16.06,0,0,1-5.62,3.76,17.26,17.26,0,0,1-6.4,1.23q-6.37,0-10.13-3.68t-3.76-10.51a27.53,27.53,0,0,1,.5-5.14l4.3-22.94H433l-4,21.56a14.7,14.7,0,0,0-.29,2.83c0,3.64,1.74,5.45,5.23,5.45a7.78,7.78,0,0,0,5.8-2.34,13.16,13.16,0,0,0,3.14-6.94l3.87-20.56Zm13.39,41.92a40,40,0,0,1-9.62-1.15,22.5,22.5,0,0,1-7.2-2.92l4.94-10.2a22.8,22.8,0,0,0,6.3,2.8,26.14,26.14,0,0,0,7.16,1q6.22,0,6.23-3a1.94,1.94,0,0,0-1.47-1.81,26,26,0,0,0-4.69-1.11,53,53,0,0,1-7.05-1.8,11.56,11.56,0,0,1-4.83-3.26,9.24,9.24,0,0,1-2.08-6.44,12.76,12.76,0,0,1,5.77-11.17q5.76-3.94,14.92-4a35.69,35.69,0,0,1,8,.88,26.91,26.91,0,0,1,6.73,2.42l-4.79,10.2A20.84,20.84,0,0,0,480.53,113a9.63,9.63,0,0,0-4.68.88,2.58,2.58,0,0,0-1.54,2.26,1.94,1.94,0,0,0,1.46,1.81,33.22,33.22,0,0,0,4.84,1.26,43.53,43.53,0,0,1,6.9,1.77,11.53,11.53,0,0,1,4.8,3.3,9.14,9.14,0,0,1,2,6.29,12.61,12.61,0,0,1-5.8,11.12Q482.75,145.57,473.73,145.57ZM221.32,91.17h22.05a31.44,31.44,0,0,1,13.57,2.72,20.08,20.08,0,0,1,8.81,7.83,22.72,22.72,0,0,1,3.09,12,32.56,32.56,0,0,1-4,16.41A27.62,27.62,0,0,1,253.6,141a34.4,34.4,0,0,1-16.47,3.84h-26Z" transform="translate(-99.94 -77.24)"/><path class="cls-5" d="M491.83,177.59a9.72,9.72,0,0,1-2.33-.28,5.08,5.08,0,0,1-1.71-.71l1-2a5.13,5.13,0,0,0,1.51.65,6.38,6.38,0,0,0,1.78.25,3.1,3.1,0,0,0,1.39-.24.73.73,0,0,0,.46-.67.53.53,0,0,0-.41-.51,7.9,7.9,0,0,0-1.3-.34,12.77,12.77,0,0,1-1.68-.42,2.71,2.71,0,0,1-1.14-.75,2,2,0,0,1-.48-1.41,2.78,2.78,0,0,1,1.31-2.45,6,6,0,0,1,3.43-.88,8.69,8.69,0,0,1,1.92.21,5.93,5.93,0,0,1,1.58.58l-1,2a5.21,5.21,0,0,0-2.8-.72,2.78,2.78,0,0,0-1.36.26.78.78,0,0,0-.47.67.58.58,0,0,0,.41.54,8.56,8.56,0,0,0,1.35.36,12.36,12.36,0,0,1,1.65.41,2.66,2.66,0,0,1,1.11.73,1.94,1.94,0,0,1,.48,1.39,2.74,2.74,0,0,1-1.33,2.44,6.16,6.16,0,0,1-3.44.87m-10.46-2.27a2.69,2.69,0,0,0,1.44-.4,2.62,2.62,0,0,0,1-1.1,3.51,3.51,0,0,0,.36-1.62,2.07,2.07,0,0,0-.58-1.53,2.19,2.19,0,0,0-1.59-.56,2.6,2.6,0,0,0-1.44.4,2.71,2.71,0,0,0-1,1.1,3.57,3.57,0,0,0-.35,1.61,2,2,0,0,0,.57,1.53A2.19,2.19,0,0,0,481.37,175.32Zm6.36-7.34-1.88,9.46h-2.6l.17-.93a4.12,4.12,0,0,1-2.9,1.08,4.17,4.17,0,0,1-2-.51,3.74,3.74,0,0,1-1.48-1.47,4.46,4.46,0,0,1-.56-2.26,5.68,5.68,0,0,1,.7-2.83,5.09,5.09,0,0,1,4.53-2.68,3.33,3.33,0,0,1,3.07,1.43L485,168Zm-18.5,7.34a2.66,2.66,0,0,0,2.43-1.5,3.64,3.64,0,0,0,.35-1.62,2.07,2.07,0,0,0-.57-1.53,2.19,2.19,0,0,0-1.59-.56,2.63,2.63,0,0,0-2.43,1.5,3.44,3.44,0,0,0-.35,1.61,2,2,0,0,0,.57,1.53A2.15,2.15,0,0,0,469.23,175.32Zm7.07-10.93-2.6,13.05h-2.61l.2-.94a4.38,4.38,0,0,1-4.94.58,3.76,3.76,0,0,1-1.49-1.47,4.46,4.46,0,0,1-.56-2.26,5.79,5.79,0,0,1,.7-2.83,5.09,5.09,0,0,1,4.53-2.68,4.48,4.48,0,0,1,1.82.35,2.93,2.93,0,0,1,1.24,1l1-4.84Zm-13.79,2.27a1.65,1.65,0,0,1-1.15-.41,1.32,1.32,0,0,1-.45-1,1.54,1.54,0,0,1,.5-1.17,1.86,1.86,0,0,1,1.31-.47,1.68,1.68,0,0,1,1.17.4,1.24,1.24,0,0,1,.45,1,1.58,1.58,0,0,1-.51,1.23A1.88,1.88,0,0,1,462.51,166.66ZM460.68,168h2.73l-1.88,9.46H458.8Zm-1.12,0-5.88,9.46h-2.83L448.76,168h2.7l1.38,6.46,4-6.46Zm-23.28,7.34a2.75,2.75,0,0,0,1.45-.4,2.62,2.62,0,0,0,1-1.1,3.51,3.51,0,0,0,.35-1.62,2.07,2.07,0,0,0-.57-1.53,2.19,2.19,0,0,0-1.59-.56,2.6,2.6,0,0,0-1.44.4,2.71,2.71,0,0,0-1,1.1,3.57,3.57,0,0,0-.35,1.61,2,2,0,0,0,.57,1.53A2.16,2.16,0,0,0,436.28,175.32Zm6.37-7.34-1.88,9.46h-2.6l.17-.93a4.12,4.12,0,0,1-2.9,1.08,4.17,4.17,0,0,1-2-.51,3.83,3.83,0,0,1-1.49-1.47,4.45,4.45,0,0,1-.55-2.26,5.78,5.78,0,0,1,.69-2.83,5.21,5.21,0,0,1,1.9-2,5.06,5.06,0,0,1,2.63-.71,3.35,3.35,0,0,1,3.08,1.43l.25-1.29Zm-16.28-.14a3.5,3.5,0,0,1,2.46.84,3,3,0,0,1,.91,2.36,5.86,5.86,0,0,1-.12,1.16l-1,5.24h-2.74l1-5a3.51,3.51,0,0,0,.07-.72,1.48,1.48,0,0,0-.38-1.1,1.55,1.55,0,0,0-1.12-.36c-1.32,0-2.15.79-2.47,2.37l-1,4.85h-2.75l1-5a4.27,4.27,0,0,0,.07-.71,1.51,1.51,0,0,0-.38-1.1,1.53,1.53,0,0,0-1.12-.37c-1.32,0-2.16.8-2.5,2.41l-.95,4.81h-2.74l1.88-9.46h2.61l-.22,1a4.29,4.29,0,0,1,3-1.13,3.7,3.7,0,0,1,1.75.4,2.56,2.56,0,0,1,1.15,1.15,4.51,4.51,0,0,1,1.6-1.15A4.91,4.91,0,0,1,426.37,167.84Zm-17,1.27a3.51,3.51,0,0,1,1.48-1,6.33,6.33,0,0,1,2.05-.3l-.49,2.53-.63,0a3,3,0,0,0-2,.61,3.17,3.17,0,0,0-1,1.92l-.92,4.57H405.1L407,168h2.6Zm-10.65,6.21a2.68,2.68,0,0,0,1.43-.4,2.62,2.62,0,0,0,1-1.1,3.51,3.51,0,0,0,.36-1.62,2.07,2.07,0,0,0-.57-1.53,2.14,2.14,0,0,0-1.58-.56,2.6,2.6,0,0,0-1.44.4,2.71,2.71,0,0,0-1,1.1,3.57,3.57,0,0,0-.35,1.61,2,2,0,0,0,.57,1.53A2.15,2.15,0,0,0,398.71,175.32Zm-.17,2.27a5.69,5.69,0,0,1-2.51-.53,3.91,3.91,0,0,1-1.67-1.49,4.18,4.18,0,0,1-.59-2.22,5.44,5.44,0,0,1,.74-2.82,5.29,5.29,0,0,1,2-2,6,6,0,0,1,2.94-.72,5.63,5.63,0,0,1,2.51.53,4,4,0,0,1,1.67,1.48,4.22,4.22,0,0,1,.59,2.23,5.53,5.53,0,0,1-.73,2.81,5.18,5.18,0,0,1-2,2A6,6,0,0,1,398.54,177.59Zm-5.21-11.17a1.37,1.37,0,0,0-1,.34,2,2,0,0,0-.5,1.08l-.07.35h2.41l-.43,2.11h-2.33L390,177.44h-2.74l1.42-7.14h-1.48l.43-2.11h1.47l.11-.54a4.32,4.32,0,0,1,1.38-2.49,4,4,0,0,1,2.74-.91,5.19,5.19,0,0,1,1.2.14,3.85,3.85,0,0,1,1,.39l-1.08,2A1.75,1.75,0,0,0,393.33,166.42ZM381,177.59a9.72,9.72,0,0,1-2.33-.28,5.24,5.24,0,0,1-1.72-.71l1.06-2a5.18,5.18,0,0,0,1.5.65,6.5,6.5,0,0,0,1.79.25,3.12,3.12,0,0,0,1.39-.24.74.74,0,0,0,.46-.67.53.53,0,0,0-.41-.51,7.9,7.9,0,0,0-1.3-.34,12.77,12.77,0,0,1-1.68-.42,2.71,2.71,0,0,1-1.14-.75,2,2,0,0,1-.49-1.41,2.8,2.8,0,0,1,1.31-2.45,6.05,6.05,0,0,1,3.44-.88,8.69,8.69,0,0,1,1.92.21,5.93,5.93,0,0,1,1.58.58l-1,2a5.23,5.23,0,0,0-2.8-.72,2.76,2.76,0,0,0-1.36.26.78.78,0,0,0-.47.67.58.58,0,0,0,.41.54,8.56,8.56,0,0,0,1.35.36,11.78,11.78,0,0,1,1.64.41,2.69,2.69,0,0,1,1.12.73,1.94,1.94,0,0,1,.48,1.39,2.76,2.76,0,0,1-1.33,2.44A6.18,6.18,0,0,1,381,177.59Zm-8.21-9.75a3.61,3.61,0,0,1,2.51.84,3,3,0,0,1,.93,2.38,5.38,5.38,0,0,1-.12,1.14l-1.06,5.24h-2.74l1-5.06a2.7,2.7,0,0,0,.07-.65,1.5,1.5,0,0,0-.4-1.13,1.7,1.7,0,0,0-1.22-.38,2.6,2.6,0,0,0-1.75.6,3.23,3.23,0,0,0-.94,1.82l-.95,4.8h-2.74L367.3,168h2.6l-.21,1A4.47,4.47,0,0,1,372.81,167.84Zm-14.41,7.48a2.66,2.66,0,0,0,2.43-1.5,3.64,3.64,0,0,0,.35-1.62,2.07,2.07,0,0,0-.57-1.53,2.19,2.19,0,0,0-1.59-.56,2.66,2.66,0,0,0-1.45.4,2.62,2.62,0,0,0-1,1.1,3.44,3.44,0,0,0-.35,1.61,2,2,0,0,0,.57,1.53A2.15,2.15,0,0,0,358.4,175.32Zm6.37-7.34-1.89,9.46h-2.6l.18-.93a4.15,4.15,0,0,1-2.9,1.08,4.24,4.24,0,0,1-2.05-.51,3.8,3.8,0,0,1-1.48-1.47,4.46,4.46,0,0,1-.56-2.26,5.79,5.79,0,0,1,.7-2.83,5.09,5.09,0,0,1,4.53-2.68,3.36,3.36,0,0,1,3.08,1.43L362,168Zm-14.66,1.13a3.61,3.61,0,0,1,1.49-1,6.28,6.28,0,0,1,2-.3l-.49,2.53-.64,0a3,3,0,0,0-2,.61,3.17,3.17,0,0,0-1,1.92l-.92,4.57h-2.74l1.88-9.46h2.6Zm-8.17,5a1.41,1.41,0,0,0,0,.39c0,.61.33.91,1,.91a2.16,2.16,0,0,0,1.11-.33l.41,2a4.41,4.41,0,0,1-2.36.57,3.17,3.17,0,0,1-2.15-.71,2.42,2.42,0,0,1-.81-1.93,4.54,4.54,0,0,1,.09-.83l.76-3.82h-1.46l.42-2.11h1.46l.46-2.3h2.74l-.46,2.3h2.36l-.42,2.11h-2.36Zm-11.86.07a1.58,1.58,0,0,1,1.15.44,1.55,1.55,0,0,1,.45,1.15,1.8,1.8,0,0,1-.13.69,5.88,5.88,0,0,1-.48.87l-1.76,2.83h-1.73l1.36-2.83a1.47,1.47,0,0,1-.5-.55,1.54,1.54,0,0,1-.19-.77,1.76,1.76,0,0,1,.53-1.32A1.79,1.79,0,0,1,330.08,174.17Zm-4.61-5.06a3.54,3.54,0,0,1,1.49-1,6.28,6.28,0,0,1,2.05-.3l-.49,2.53-.64,0a3,3,0,0,0-2,.61,3.23,3.23,0,0,0-1,1.92l-.91,4.57h-2.74L323.1,168h2.6Zm-10.64,6.21a2.7,2.7,0,0,0,1.43-.4,2.62,2.62,0,0,0,1-1.1,3.51,3.51,0,0,0,.35-1.62,2.1,2.1,0,0,0-.56-1.53,2.16,2.16,0,0,0-1.58-.56,2.66,2.66,0,0,0-1.45.4,2.62,2.62,0,0,0-1,1.1,3.44,3.44,0,0,0-.35,1.61,2,2,0,0,0,.57,1.53A2.15,2.15,0,0,0,314.83,175.32Zm-.18,2.27a5.67,5.67,0,0,1-2.5-.53,3.91,3.91,0,0,1-1.67-1.49,4.09,4.09,0,0,1-.59-2.22,5.35,5.35,0,0,1,.74-2.82,5.29,5.29,0,0,1,2-2,5.92,5.92,0,0,1,2.93-.72,5.67,5.67,0,0,1,2.52.53,3.93,3.93,0,0,1,1.66,1.48,4.13,4.13,0,0,1,.59,2.23,5.43,5.43,0,0,1-.73,2.81,5.22,5.22,0,0,1-2,2A6,6,0,0,1,314.65,177.59ZM307,164.39h2.75l-2.61,13.05h-2.74Zm-9.62,10.93a2.66,2.66,0,0,0,2.43-1.5,3.64,3.64,0,0,0,.35-1.62,2.07,2.07,0,0,0-.57-1.53,2.19,2.19,0,0,0-1.59-.56,2.63,2.63,0,0,0-2.43,1.5,3.44,3.44,0,0,0-.35,1.61,2,2,0,0,0,.57,1.53A2.15,2.15,0,0,0,297.4,175.32Zm6.37-7.34-1.89,9.46h-2.6l.18-.93a4.15,4.15,0,0,1-2.9,1.08,4.24,4.24,0,0,1-2.05-.51,3.8,3.8,0,0,1-1.48-1.47,4.46,4.46,0,0,1-.56-2.26,5.79,5.79,0,0,1,.7-2.83,5.09,5.09,0,0,1,4.53-2.68,3.36,3.36,0,0,1,3.08,1.43L301,168Zm-10.47,0-5.87,9.46h-2.84L282.5,168h2.71l1.37,6.46,4-6.46ZM270,175.32a2.69,2.69,0,0,0,1.44-.4,2.64,2.64,0,0,0,1-1.1,3.64,3.64,0,0,0,.35-1.62,2.07,2.07,0,0,0-.57-1.53,2.19,2.19,0,0,0-1.59-.56,2.66,2.66,0,0,0-1.45.4,2.62,2.62,0,0,0-1,1.1,3.44,3.44,0,0,0-.35,1.61,2,2,0,0,0,.57,1.53A2.15,2.15,0,0,0,270,175.32ZM276.4,168l-1.88,9.46h-2.61l.18-.93a4.39,4.39,0,0,1-4.94.57,3.76,3.76,0,0,1-1.49-1.47,4.45,4.45,0,0,1-.55-2.26,5.78,5.78,0,0,1,.69-2.83,5.09,5.09,0,0,1,4.53-2.68,3.36,3.36,0,0,1,3.08,1.43l.24-1.29Zm-15.11,6.12a2,2,0,0,0,0,.39c0,.61.34.91,1,.91a2.15,2.15,0,0,0,1.1-.33l.41,2a4.41,4.41,0,0,1-2.36.57,3.14,3.14,0,0,1-2.14-.71,2.42,2.42,0,0,1-.81-1.93,5.48,5.48,0,0,1,.08-.83l.76-3.82h-1.46l.42-2.11h1.46l.46-2.3h2.74l-.45,2.3h2.35l-.42,2.11H262Zm-7.32-5a3.54,3.54,0,0,1,1.49-1,6.28,6.28,0,0,1,2-.3l-.5,2.53-.63,0a3.06,3.06,0,0,0-2,.61,3.28,3.28,0,0,0-1,1.92l-.91,4.57h-2.75L251.6,168h2.6Zm-10.64,6.21a2.64,2.64,0,0,0,1.42-.4,2.58,2.58,0,0,0,1-1.1,3.64,3.64,0,0,0,.35-1.62,2.1,2.1,0,0,0-.56-1.53,2.16,2.16,0,0,0-1.58-.56,2.66,2.66,0,0,0-1.45.4,2.62,2.62,0,0,0-1,1.1,3.44,3.44,0,0,0-.35,1.61,2,2,0,0,0,.57,1.53A2.15,2.15,0,0,0,243.33,175.32Zm-.18,2.27a5.64,5.64,0,0,1-2.5-.53,3.91,3.91,0,0,1-1.67-1.49,4.09,4.09,0,0,1-.59-2.22,5.35,5.35,0,0,1,.74-2.82,5.29,5.29,0,0,1,2-2,5.92,5.92,0,0,1,2.93-.72,5.67,5.67,0,0,1,2.52.53,4,4,0,0,1,1.66,1.48,4.22,4.22,0,0,1,.59,2.23,5.43,5.43,0,0,1-.73,2.81,5.22,5.22,0,0,1-2,2A6,6,0,0,1,243.15,177.59Zm-11.34-2.27a2.66,2.66,0,0,0,2.43-1.5,3.64,3.64,0,0,0,.35-1.62,2.07,2.07,0,0,0-.57-1.53,2.21,2.21,0,0,0-1.6-.56,2.58,2.58,0,0,0-1.42.4,2.71,2.71,0,0,0-1,1.1,3.57,3.57,0,0,0-.35,1.61,2,2,0,0,0,.57,1.53A2.11,2.11,0,0,0,231.81,175.32Zm1.46-7.48a4.24,4.24,0,0,1,2,.51,3.76,3.76,0,0,1,1.49,1.47,4.43,4.43,0,0,1,.56,2.26,5.67,5.67,0,0,1-.7,2.82,5.12,5.12,0,0,1-4.54,2.69,3.35,3.35,0,0,1-3.07-1.41l-.93,4.68h-2.74L228,168h2.6l-.19.93A4.16,4.16,0,0,1,233.27,167.84Zm-12.21,4.8-1-4.75-2.9,4.75Zm.48,2.17H215.8l-1.6,2.63h-3l8-12.31h2.81l3,12.31h-2.85Z" transform="translate(-99.94 -77.24)"/></svg>