<?xml version="1.0" encoding="utf-8"?>
<!-- Generator: Adobe Illustrator 28.1.0, SVG Export Plug-In . SVG Version: 6.00 Build 0)  -->
<svg version="1.1" id="Capa_1" xmlns="http://www.w3.org/2000/svg" xmlns:xlink="http://www.w3.org/1999/xlink" x="0px" y="0px"
	 viewBox="0 0 512 512" style="enable-background:new 0 0 512 512;" xml:space="preserve">
<style type="text/css">
	
		.st0{fill:url(#SVGID_1_);stroke:url(#SVGID_00000047779482430388841500000006127904118818789808_);stroke-width:3;stroke-miterlimit:10;}
	
		.st1{fill:url(#SVGID_00000160185704512947546330000016204807568973493433_);stroke:url(#SVGID_00000091693793233026950760000005179286631002788029_);stroke-width:3;stroke-miterlimit:10;}
	
		.st2{fill:url(#SVGID_00000088118691248732813830000000900258201976357269_);stroke:url(#SVGID_00000056407008862747582580000017656552071289511357_);stroke-width:3;stroke-miterlimit:10;}
	
		.st3{fill:url(#SVGID_00000085937669157240637710000006659021557196255640_);stroke:url(#SVGID_00000052074466345190251520000004427001967547068606_);stroke-width:3;stroke-miterlimit:10;}
	
		.st4{fill:url(#SVGID_00000092435078461257342370000011110422070652222367_);stroke:url(#SVGID_00000106839743946710173450000004672611564519167899_);stroke-width:3;stroke-miterlimit:10;}
	
		.st5{fill:url(#SVGID_00000178911688764897719370000011363280536256673204_);stroke:url(#SVGID_00000159432326742519600050000017734745306384816513_);stroke-width:3;stroke-miterlimit:10;}
	
		.st6{fill:url(#SVGID_00000065775918435592619940000014255730195010368692_);stroke:url(#SVGID_00000106850657704021195600000009756714094607196845_);stroke-width:3;stroke-miterlimit:10;}
	
		.st7{fill:url(#SVGID_00000059311364888434808760000014230777896851244965_);stroke:url(#SVGID_00000043444977575530347140000006580556332617943478_);stroke-width:3;stroke-miterlimit:10;}
	
		.st8{fill:url(#SVGID_00000112627729549787247820000010580444638756148146_);stroke:url(#SVGID_00000065780860723283772910000011752206413994284458_);stroke-width:3;stroke-miterlimit:10;}
	
		.st9{fill:url(#SVGID_00000154386609528619755650000012057663813621376156_);stroke:url(#SVGID_00000082370154112183620850000012163968142519762618_);stroke-width:3;stroke-miterlimit:10;}
	
		.st10{fill:url(#SVGID_00000035501336612678191070000001162785597262033078_);stroke:url(#SVGID_00000014592169842752147730000006499056955545354420_);stroke-width:3;stroke-miterlimit:10;}
	
		.st11{fill:url(#SVGID_00000114047519684465416940000016147613113947928204_);stroke:url(#SVGID_00000148626760203196172980000012351747161951241859_);stroke-width:3;stroke-miterlimit:10;}
	
		.st12{fill:url(#SVGID_00000015313390176286153820000005317211738545827494_);stroke:url(#SVGID_00000045596499833430746120000014569728175619147662_);stroke-width:3;stroke-miterlimit:10;}
	
		.st13{fill:url(#SVGID_00000178892723501873628380000016846424479262247612_);stroke:url(#SVGID_00000081646206829815082170000008302548018339220878_);stroke-width:3;stroke-miterlimit:10;}
	
		.st14{fill:url(#SVGID_00000065042916116724067200000015275340748924506507_);stroke:url(#SVGID_00000158028311213274508000000004679873159167059844_);stroke-width:3;stroke-miterlimit:10;}
	
		.st15{fill:url(#SVGID_00000144301201863873641890000017135832202223697287_);stroke:url(#SVGID_00000112621524820470239750000002590743151995237823_);stroke-width:3;stroke-miterlimit:10;}
	
		.st16{fill:url(#SVGID_00000136408776376733931720000013116488308960708996_);stroke:url(#SVGID_00000057136372766630339090000002100325915703554232_);stroke-width:2;stroke-miterlimit:10;}
	
		.st17{fill:url(#SVGID_00000134219720988653213240000007673649603787916198_);stroke:url(#SVGID_00000119816800274444499720000010862423226239494055_);stroke-width:3;stroke-miterlimit:10;}
	
		.st18{fill:url(#SVGID_00000179639156373077645790000016829816187559409847_);stroke:url(#SVGID_00000035495322816983137080000000186625508508695205_);stroke-width:3;stroke-miterlimit:10;}
	
		.st19{fill:url(#SVGID_00000073683760737355697570000003302314959915371159_);stroke:url(#SVGID_00000021801038732938020960000005595529356818206613_);stroke-width:3;stroke-miterlimit:10;}
	
		.st20{fill:url(#SVGID_00000062888597048438681860000017741897490378566037_);stroke:url(#SVGID_00000059276843963907791070000014990703848776561334_);stroke-width:3;stroke-miterlimit:10;}
	
		.st21{fill:url(#SVGID_00000080203520503683674920000015862507957950389158_);stroke:url(#SVGID_00000029766870349263584520000009990927850494170534_);stroke-width:3;stroke-miterlimit:10;}
	
		.st22{fill:url(#SVGID_00000175291954061460518940000000811213289000352671_);stroke:url(#SVGID_00000125590772400824622680000008567545427573744811_);stroke-width:3;stroke-miterlimit:10;}
	
		.st23{fill:url(#SVGID_00000119817541260345402760000002389804138241877687_);stroke:url(#SVGID_00000032637170377339727870000004079848248800495772_);stroke-width:3;stroke-miterlimit:10;}
	
		.st24{fill:url(#SVGID_00000063592437549795387300000000712549009741386673_);stroke:url(#SVGID_00000062178825449253194100000006345369891677122474_);stroke-width:3;stroke-miterlimit:10;}
	
		.st25{fill:url(#SVGID_00000062155266070607723730000003411300170083850662_);stroke:url(#SVGID_00000036966400110500202650000013109465166172401297_);stroke-width:3;stroke-miterlimit:10;}
	
		.st26{fill:url(#SVGID_00000044866081976171018530000000981196671227826564_);stroke:url(#SVGID_00000005250703381306435620000003503442248986518204_);stroke-width:3;stroke-miterlimit:10;}
	.st27{fill:url(#SVGID_00000112620466793371469670000015941415193145662900_);}
	
		.st28{fill:url(#SVGID_00000048475482603055322470000016028140963808317827_);stroke:url(#SVGID_00000146489022098123233020000006907484290851787423_);stroke-width:3;stroke-miterlimit:10;}
	
		.st29{fill:url(#SVGID_00000163038998914625877390000017747955242588580283_);stroke:url(#SVGID_00000013183315333259145690000010595830133908704684_);stroke-width:3;stroke-miterlimit:10;}
	
		.st30{fill:url(#SVGID_00000150796951086001589430000009531750784314977725_);stroke:url(#SVGID_00000128482634941040874310000001677440367509066648_);stroke-width:3;stroke-miterlimit:10;}
	
		.st31{fill:url(#SVGID_00000138551333193973747720000010029112775136745874_);stroke:url(#SVGID_00000082368129208341671660000016860652404228999592_);stroke-width:3;stroke-miterlimit:10;}
	
		.st32{fill:url(#SVGID_00000025423160886993803190000000798247708980112782_);stroke:url(#SVGID_00000158007956057537435350000003606212348367180728_);stroke-width:3;stroke-miterlimit:10;}
	.st33{fill:#FFFFFF;}
	.st34{fill:url(#SVGID_00000141423813980863335020000011912596219792395908_);}
	.st35{fill:url(#SVGID_00000049939656397872083940000017191810235590480554_);}
	.st36{fill:url(#SVGID_00000043416821359979530060000007385828921871018636_);}
	.st37{fill:url(#SVGID_00000131335782452723071830000000253926971380024760_);}
	.st38{fill:url(#SVGID_00000022537597135565605110000002174000909699778187_);}
	.st39{fill:url(#SVGID_00000152227352568996245730000009611789193132863619_);}
	.st40{fill:url(#SVGID_00000160158635244556669420000016638922755775138963_);}
	.st41{fill:url(#SVGID_00000054260981881669424890000015350119809597202833_);}
</style>
<g>
	<linearGradient id="SVGID_1_" gradientUnits="userSpaceOnUse" x1="135.7076" y1="356.6947" x2="195.3008" y2="356.6947">
		<stop  offset="5.586590e-03" style="stop-color:#FDCF79"/>
		<stop  offset="1" style="stop-color:#8A6D35"/>
	</linearGradient>
	
		<linearGradient id="SVGID_00000030445604599655841990000017235105633752467590_" gradientUnits="userSpaceOnUse" x1="156.0107" y1="370.2227" x2="174.1464" y2="338.8106">
		<stop  offset="5.586590e-03" style="stop-color:#FDCF79"/>
		<stop  offset="1" style="stop-color:#8A6D35"/>
	</linearGradient>
	
		<path style="fill:url(#SVGID_1_);stroke:url(#SVGID_00000030445604599655841990000017235105633752467590_);stroke-width:3;stroke-miterlimit:10;" d="
		M195.3,353.13c-2.83-2.14-5.44-3.66-8.2-4.65c-2.78-0.97-5.62-1.5-8.63-1.62c-6-0.27-12.53,0.85-18.78,2.36
		c-6.26,1.54-12.2,3.4-16.66,4.93c-4.42,1.48-7.32,2.62-7.32,2.62s2.84,1.64,7.37,3.58c4.55,1.94,10.85,4.15,17.71,5.34
		c6.81,1.19,14.26,1.34,20.74-0.52C187.98,363.34,193.47,359.38,195.3,353.13z"/>
	
		<linearGradient id="SVGID_00000009580840136612673400000016498252059254824112_" gradientUnits="userSpaceOnUse" x1="170.8667" y1="323.3105" x2="203.0916" y2="323.3105">
		<stop  offset="5.586590e-03" style="stop-color:#FDCF79"/>
		<stop  offset="1" style="stop-color:#8A6D35"/>
	</linearGradient>
	
		<linearGradient id="SVGID_00000039847326126328499340000013597545172227199408_" gradientUnits="userSpaceOnUse" x1="178.4109" y1="336.7407" x2="191.8544" y2="313.456">
		<stop  offset="5.586590e-03" style="stop-color:#FDCF79"/>
		<stop  offset="1" style="stop-color:#8A6D35"/>
	</linearGradient>
	
		<path style="fill:url(#SVGID_00000009580840136612673400000016498252059254824112_);stroke:url(#SVGID_00000039847326126328499340000013597545172227199408_);stroke-width:3;stroke-miterlimit:10;" d="
		M176.18,325.37c2.43,5.47,5.97,10.82,10.62,14.3c2.31,1.72,4.89,3.03,7.68,3.56c2.76,0.54,5.72,0.4,8.61-0.82
		c0.14-6.54-1.64-11.72-4.44-16.25c-2.82-4.51-6.79-8.41-10.91-11.76c-4.12-3.34-8.34-6.14-11.52-8.13c-3.18-2-5.35-3.16-5.35-3.16
		s0.02,0.71,0.14,1.94c0.12,1.22,0.33,2.97,0.67,5.08C172.38,314.29,173.72,319.91,176.18,325.37z"/>
	
		<linearGradient id="SVGID_00000075873409088687161540000001092299973312765068_" gradientUnits="userSpaceOnUse" x1="88.9244" y1="329.6093" x2="146.869" y2="329.6093">
		<stop  offset="5.586590e-03" style="stop-color:#FDCF79"/>
		<stop  offset="1" style="stop-color:#8A6D35"/>
	</linearGradient>
	
		<linearGradient id="SVGID_00000075147591404072286860000009268896699346290876_" gradientUnits="userSpaceOnUse" x1="110.2889" y1="336.9129" x2="123.7658" y2="313.5702">
		<stop  offset="5.586590e-03" style="stop-color:#FDCF79"/>
		<stop  offset="1" style="stop-color:#8A6D35"/>
	</linearGradient>
	
		<path style="fill:url(#SVGID_00000075873409088687161540000001092299973312765068_);stroke:url(#SVGID_00000075147591404072286860000009268896699346290876_);stroke-width:3;stroke-miterlimit:10;" d="
		M131.16,339.97c6.27-0.31,11.81-2.71,15.71-7.94c-3.1-5.56-7.84-8.57-13.49-10.32c-5.65-1.73-12.24-2.2-18.72-2.4
		c-6.46-0.19-12.88-0.04-17.7-0.03c-4.95,0.1-8.04,0.14-8.04,0.14s0.6,0.67,1.72,1.76c1.11,1.03,2.75,2.56,4.76,4.23
		c4.08,3.36,9.84,7.29,16.2,10.16C117.96,338.45,124.9,340.27,131.16,339.97z"/>
	
		<linearGradient id="SVGID_00000116915699335185459080000009338478615035117469_" gradientUnits="userSpaceOnUse" x1="136.0213" y1="299.4918" x2="159.5451" y2="299.4918">
		<stop  offset="5.586590e-03" style="stop-color:#FDCF79"/>
		<stop  offset="1" style="stop-color:#8A6D35"/>
	</linearGradient>
	
		<linearGradient id="SVGID_00000165920972176994506250000016108197740055112875_" gradientUnits="userSpaceOnUse" x1="138.2709" y1="315.9325" x2="156.3046" y2="284.6971">
		<stop  offset="5.586590e-03" style="stop-color:#FDCF79"/>
		<stop  offset="1" style="stop-color:#8A6D35"/>
	</linearGradient>
	
		<path style="fill:url(#SVGID_00000116915699335185459080000009338478615035117469_);stroke:url(#SVGID_00000165920972176994506250000016108197740055112875_);stroke-width:3;stroke-miterlimit:10;" d="
		M143.08,315.24c3.56,4.51,8.52,7.48,14.7,7.16c2.5-6.01,2.08-11.77,0.37-17.04c-1.69-5.26-4.71-10.09-7.75-14.3
		c-3.07-4.21-6.18-7.8-8.47-10.37c-1.11-1.29-2.08-2.32-2.76-3.03c-0.63-0.72-1.03-1.1-1.03-1.1s-0.21,0.64-0.53,1.8
		c-0.3,1.16-0.65,2.83-0.97,4.87c-0.67,4.11-0.96,9.72-0.09,15.61C137.43,304.7,139.52,310.71,143.08,315.24z"/>
	
		<linearGradient id="SVGID_00000062159665309439927370000010634303057716293306_" gradientUnits="userSpaceOnUse" x1="59.0608" y1="286.1965" x2="108.3579" y2="286.1965">
		<stop  offset="5.586590e-03" style="stop-color:#FDCF79"/>
		<stop  offset="1" style="stop-color:#8A6D35"/>
	</linearGradient>
	
		<linearGradient id="SVGID_00000107583969608395254320000017562129022653076608_" gradientUnits="userSpaceOnUse" x1="75.5933" y1="296.9584" x2="87.026" y2="277.1564">
		<stop  offset="5.586590e-03" style="stop-color:#FDCF79"/>
		<stop  offset="1" style="stop-color:#8A6D35"/>
	</linearGradient>
	
		<path style="fill:url(#SVGID_00000062159665309439927370000010634303057716293306_);stroke:url(#SVGID_00000107583969608395254320000017562129022653076608_);stroke-width:3;stroke-miterlimit:10;" d="
		M66.37,270.31c-4.44-1.39-7.31-2.21-7.31-2.21s0.27,0.73,0.83,1.97c0.6,1.21,1.5,2.95,2.64,4.99c1.15,2.04,2.54,4.4,4.17,6.89
		c0.81,1.24,1.68,2.51,2.59,3.78l0.73,0.98l0.9,1.19c0.63,0.79,1.27,1.59,1.89,2.38c5.19,6.18,11.6,10.91,17.9,12.89
		c6.3,2.02,12.42,1.37,17.64-2.55c-1.46-6.26-4.98-10.52-9.73-14.24c-1.16-0.95-2.46-1.8-3.75-2.69c-1.3-0.88-2.69-1.72-4.1-2.56
		c-1.41-0.89-2.85-1.73-4.33-2.58c-1.41-0.77-2.78-1.45-4.21-2.12C76.6,273.77,70.8,271.73,66.37,270.31z"/>
	
		<linearGradient id="SVGID_00000139280154457836271090000016123327375826964871_" gradientUnits="userSpaceOnUse" x1="108.8613" y1="267.918" x2="127.2215" y2="267.918">
		<stop  offset="5.586590e-03" style="stop-color:#FDCF79"/>
		<stop  offset="1" style="stop-color:#8A6D35"/>
	</linearGradient>
	
		<linearGradient id="SVGID_00000092418818465215132230000004385683423761773233_" gradientUnits="userSpaceOnUse" x1="109.213" y1="288.13" x2="132.8576" y2="247.1763">
		<stop  offset="5.586590e-03" style="stop-color:#FDCF79"/>
		<stop  offset="1" style="stop-color:#8A6D35"/>
	</linearGradient>
	
		<path style="fill:url(#SVGID_00000139280154457836271090000016123327375826964871_);stroke:url(#SVGID_00000092418818465215132230000004385683423761773233_);stroke-width:3;stroke-miterlimit:10;" d="
		M109.87,281.43c1.68,5.41,5.58,9.85,11.5,11.22c4.14-5.05,5.44-10.58,5.78-15.8c0.29-5.23-0.37-10.18-0.94-14.33
		c-0.2-1.76-0.9-4.73-1.55-7.05c-0.67-2.39-1.41-4.55-2.08-6.35c-0.67-1.81-1.3-3.28-1.74-4.31c-0.37-1.04-0.61-1.63-0.61-1.63
		s-0.44,0.59-1.11,1.64c-0.72,1.07-1.57,2.57-2.57,4.45c-1.96,3.75-4.33,9.01-5.97,14.82c-0.42,1.46-0.77,2.95-1.07,4.46
		c-0.29,1.4-0.5,2.84-0.63,4.31c-0.07,1.45-0.02,2.89,0.12,4.35C109.15,278.67,109.49,280.06,109.87,281.43z"/>
	
		<linearGradient id="SVGID_00000098932055340147570320000016661600575007079602_" gradientUnits="userSpaceOnUse" x1="44.3256" y1="237.3842" x2="84.2051" y2="237.3842">
		<stop  offset="5.586590e-03" style="stop-color:#FDCF79"/>
		<stop  offset="1" style="stop-color:#8A6D35"/>
	</linearGradient>
	
		<linearGradient id="SVGID_00000148624090183639389920000004682425272647060920_" gradientUnits="userSpaceOnUse" x1="55.8328" y1="250.0226" x2="68.3643" y2="228.3173">
		<stop  offset="5.586590e-03" style="stop-color:#FDCF79"/>
		<stop  offset="1" style="stop-color:#8A6D35"/>
	</linearGradient>
	
		<path style="fill:url(#SVGID_00000098932055340147570320000016661600575007079602_);stroke:url(#SVGID_00000148624090183639389920000004682425272647060920_);stroke-width:3;stroke-miterlimit:10;" d="
		M59.57,248.36c1.03,1.26,2.22,2.36,3.45,3.4c1.2,1.04,2.45,1.97,3.75,2.81c5.16,3.32,10.9,4.71,17.15,2.89
		c0.53-3.12,0.29-5.98-0.53-8.62c-0.41-1.31-0.97-2.58-1.68-3.81c-0.67-1.23-1.53-2.38-2.33-3.57c-3.36-4.67-8.54-8.7-13.76-12.29
		c-5.07-3.63-10.41-6.76-14.5-9.02c-4.17-2.24-6.81-3.64-6.81-3.64s0.13,0.79,0.47,2.15c0.36,1.34,0.92,3.23,1.69,5.52
		c1.55,4.53,3.72,10.63,7.32,16.18C55.54,243.14,57.47,245.9,59.57,248.36z"/>
	
		<linearGradient id="SVGID_00000025421445660945198780000012040731655782505654_" gradientUnits="userSpaceOnUse" x1="91.3844" y1="227.3371" x2="111.4926" y2="227.3371">
		<stop  offset="5.586590e-03" style="stop-color:#FDCF79"/>
		<stop  offset="1" style="stop-color:#8A6D35"/>
	</linearGradient>
	
		<linearGradient id="SVGID_00000057106683795858953410000012050434079250135431_" gradientUnits="userSpaceOnUse" x1="91.2787" y1="249.7624" x2="117.7211" y2="203.9628">
		<stop  offset="5.586590e-03" style="stop-color:#FDCF79"/>
		<stop  offset="1" style="stop-color:#8A6D35"/>
	</linearGradient>
	
		<path style="fill:url(#SVGID_00000025421445660945198780000012040731655782505654_);stroke:url(#SVGID_00000057106683795858953410000012050434079250135431_);stroke-width:3;stroke-miterlimit:10;" d="
		M93.35,245.92c1.21,2.46,3,4.63,5.47,6.37c5.67-3.25,8.92-8.12,10.63-13.39c0.44-1.32,0.76-2.68,1.02-4.05
		c0.12-0.67,0.23-1.36,0.32-2.04c0.09-0.7,0.21-1.39,0.31-2.09c0.36-2.8,0.45-5.59,0.36-8.27c-0.36-5.34-0.67-10.39-1.36-14.05
		c-0.3-1.83-0.65-3.33-0.88-4.38c-0.18-1.06-0.29-1.64-0.29-1.64s-0.53,0.48-1.39,1.36c-0.91,0.88-2.04,2.16-3.36,3.78
		c-2.66,3.25-5.96,7.9-8.65,13.3c-2.55,5.34-4.19,11.37-4.15,17.1c-0.02,1.45,0.21,2.82,0.55,4.15
		C92.27,243.41,92.74,244.7,93.35,245.92z"/>
	
		<linearGradient id="SVGID_00000008855132102836533270000000004042577317649817_" gradientUnits="userSpaceOnUse" x1="40.7909" y1="186.3762" x2="71.992" y2="186.3762">
		<stop  offset="5.586590e-03" style="stop-color:#FDCF79"/>
		<stop  offset="1" style="stop-color:#8A6D35"/>
	</linearGradient>
	
		<linearGradient id="SVGID_00000108292810253173146900000006148881578571687092_" gradientUnits="userSpaceOnUse" x1="45.9071" y1="202.2635" x2="63.1252" y2="172.441">
		<stop  offset="5.586590e-03" style="stop-color:#FDCF79"/>
		<stop  offset="1" style="stop-color:#8A6D35"/>
	</linearGradient>
	
		<path style="fill:url(#SVGID_00000008855132102836533270000000004042577317649817_);stroke:url(#SVGID_00000108292810253173146900000006148881578571687092_);stroke-width:3;stroke-miterlimit:10;" d="
		M48.69,196.9c0.79,1.44,1.63,2.83,2.59,4.12c0.99,1.27,2.06,2.45,3.16,3.53c4.47,4.32,9.84,6.81,16.33,6.2
		c1.1-2.96,1.43-5.8,1.11-8.54c-0.16-1.37-0.47-2.71-0.9-4.04c-0.42-1.34-0.86-2.67-1.48-3.96c-1.19-2.62-2.85-5.18-4.77-7.68
		c-0.99-1.24-1.97-2.47-2.94-3.7c-1-1.21-2.02-2.4-3.07-3.57c-4.24-4.68-8.94-8.95-12.19-12.15c-3.35-3.17-5.72-5.19-5.72-5.19
		s-0.09,3.24,0.2,8.11c0.17,2.43,0.67,5.26,1.23,8.28c0.28,1.52,0.62,3.08,1,4.66c0.37,1.57,0.76,3.19,1.37,4.76
		C45.75,190.88,47.11,194,48.69,196.9z"/>
	
		<linearGradient id="SVGID_00000034090323398637048880000007928035860166613673_" gradientUnits="userSpaceOnUse" x1="81.3966" y1="184.5161" x2="106.7128" y2="184.5161">
		<stop  offset="5.586590e-03" style="stop-color:#FDCF79"/>
		<stop  offset="1" style="stop-color:#8A6D35"/>
	</linearGradient>
	
		<linearGradient id="SVGID_00000141425256145341753360000009416499356902982802_" gradientUnits="userSpaceOnUse" x1="82.1215" y1="206.8887" x2="109.2536" y2="159.8945">
		<stop  offset="5.586590e-03" style="stop-color:#FDCF79"/>
		<stop  offset="1" style="stop-color:#8A6D35"/>
	</linearGradient>
	
		<path style="fill:url(#SVGID_00000034090323398637048880000007928035860166613673_);stroke:url(#SVGID_00000141425256145341753360000009416499356902982802_);stroke-width:3;stroke-miterlimit:10;" d="
		M86.2,207.28c6.18-2.13,10.31-6.23,13.02-10.94c0.69-1.19,1.27-2.4,1.78-3.65c0.6-1.25,1.12-2.53,1.58-3.82
		c0.9-2.58,1.55-5.19,1.98-7.75c0.49-2.54,1.02-5.01,1.27-7.3c0.14-1.15,0.23-2.24,0.31-3.28c0.07-1.04,0.11-2.01,0.23-2.91
		c0.4-3.55,0.34-5.89,0.34-5.89s-2.4,1.32-5.81,3.78c-0.85,0.61-1.76,1.31-2.73,2.06c-0.97,0.77-1.96,1.6-2.89,2.5
		c-1.91,1.8-3.88,3.87-5.74,6.16c-0.94,1.15-1.82,2.34-2.69,3.58c-0.41,0.62-0.83,1.27-1.22,1.91c-0.37,0.64-0.7,1.3-1.02,1.96
		c-1.28,2.63-2.27,5.38-2.82,8.17c-0.23,1.38-0.43,2.78-0.39,4.15c0.07,1.36,0.29,2.71,0.64,4.01
		C82.77,202.66,84.1,205.13,86.2,207.28z"/>
	
		<linearGradient id="SVGID_00000162344405397707236170000004286906151825412783_" gradientUnits="userSpaceOnUse" x1="47.7935" y1="135.1792" x2="71.1082" y2="135.1792">
		<stop  offset="5.586590e-03" style="stop-color:#FDCF79"/>
		<stop  offset="1" style="stop-color:#8A6D35"/>
	</linearGradient>
	
		<linearGradient id="SVGID_00000158727055321790933870000005821014613351004339_" gradientUnits="userSpaceOnUse" x1="47.8892" y1="154.3787" x2="70.1112" y2="115.8891">
		<stop  offset="5.586590e-03" style="stop-color:#FDCF79"/>
		<stop  offset="1" style="stop-color:#8A6D35"/>
	</linearGradient>
	
		<path style="fill:url(#SVGID_00000162344405397707236170000004286906151825412783_);stroke:url(#SVGID_00000158727055321790933870000005821014613351004339_);stroke-width:3;stroke-miterlimit:10;" d="
		M63.74,129.13c-1.44-2.78-3-5.49-4.52-8.02c-1.57-2.55-2.98-4.84-4.15-6.78c-2.43-3.91-4.21-6.46-4.21-6.46s-0.92,3.08-1.89,7.85
		c-0.37,2.42-0.7,5.26-0.93,8.34c-0.13,1.54-0.21,3.12-0.25,4.75c0,1.63,0.11,3.31,0.25,4.99c0.29,3.35,0.72,6.73,1.58,9.93
		c0.95,3.21,2.2,6.25,3.79,8.87c3.07,5.29,8.01,8.97,14.44,9.88c0.84-1.31,1.46-2.62,1.93-3.95c0.45-1.33,0.9-2.67,1.09-4.01
		c0.45-2.7,0.23-5.49-0.42-8.31c-0.54-2.82-1.41-5.67-2.62-8.54C66.61,134.8,65.11,131.91,63.74,129.13z"/>
	
		<linearGradient id="SVGID_00000145033660105030645360000014014424152257845181_" gradientUnits="userSpaceOnUse" x1="81.0886" y1="142.0679" x2="114.4375" y2="142.0679">
		<stop  offset="5.586590e-03" style="stop-color:#FDCF79"/>
		<stop  offset="1" style="stop-color:#8A6D35"/>
	</linearGradient>
	
		<linearGradient id="SVGID_00000026152566917466242830000017181188957895826841_" gradientUnits="userSpaceOnUse" x1="83.5556" y1="163.27" x2="110.1354" y2="117.2324">
		<stop  offset="5.586590e-03" style="stop-color:#FDCF79"/>
		<stop  offset="1" style="stop-color:#8A6D35"/>
	</linearGradient>
	
		<path style="fill:url(#SVGID_00000145033660105030645360000014014424152257845181_);stroke:url(#SVGID_00000026152566917466242830000017181188957895826841_);stroke-width:3;stroke-miterlimit:10;" d="
		M98.68,153.82c1.95-1.9,3.59-4.04,4.96-6.27c1.52-2.22,2.87-4.5,3.94-6.79c0.57-1.14,0.99-2.27,1.53-3.37
		c0.53-1.1,1.01-2.18,1.43-3.22c0.88-2.09,1.5-4.04,2.08-5.71c1.28-3.3,1.82-5.53,1.82-5.53s-2.65,0.64-6.59,2.12
		c-4.03,1.44-8.87,3.9-13.68,7.32c-1.18,0.86-2.42,1.77-3.49,2.77c-1.07,0.98-2.11,2.02-3.08,3.12c-1.91,2.2-3.66,4.59-4.81,7.13
		c-1.09,2.54-1.7,5.21-1.7,7.9c0.02,1.33,0.13,2.67,0.54,4c0.45,1.33,1.04,2.65,1.86,3.93C90.01,160.6,94.68,157.6,98.68,153.82z"/>
	
		<linearGradient id="SVGID_00000085930196402780298590000012561974602862179460_" gradientUnits="userSpaceOnUse" x1="64.0217" y1="87.0322" x2="83.6247" y2="87.0322">
		<stop  offset="5.586590e-03" style="stop-color:#FDCF79"/>
		<stop  offset="1" style="stop-color:#8A6D35"/>
	</linearGradient>
	
		<linearGradient id="SVGID_00000135679009978296882540000015319697537659771306_" gradientUnits="userSpaceOnUse" x1="63.0761" y1="109.3159" x2="89.2393" y2="64">
		<stop  offset="5.586590e-03" style="stop-color:#FDCF79"/>
		<stop  offset="1" style="stop-color:#8A6D35"/>
	</linearGradient>
	
		<path style="fill:url(#SVGID_00000085930196402780298590000012561974602862179460_);stroke:url(#SVGID_00000135679009978296882540000015319697537659771306_);stroke-width:3;stroke-miterlimit:10;" d="
		M79.72,112.04c0.87-1.13,1.55-2.32,2.09-3.57c0.54-1.25,0.94-2.55,1.21-3.91c0.27-1.35,0.38-2.75,0.53-4.16
		c0.2-2.83,0-5.82-0.47-8.9c-0.47-3.08-0.99-6.13-1.79-9.21c-1.57-6.15-3.28-11.93-4.8-16.34c-1.52-4.42-2.57-7.23-2.57-7.23
		s-0.42,0.66-1.08,1.88c-0.65,1.23-1.52,3-2.5,5.19c-2.08,4.32-4.14,10.48-5.44,16.96c-0.53,3.3-0.88,6.67-0.88,9.94
		c-0.04,1.63,0.13,3.28,0.38,4.87c0.23,1.6,0.55,3.13,0.99,4.6c0.9,2.95,2.13,5.57,4.08,7.84c1.93,2.26,4.35,4.07,7.35,5.35
		C77.99,114.3,78.94,113.2,79.72,112.04z"/>
	
		<linearGradient id="SVGID_00000124842170319012573420000007574473288519329667_" gradientUnits="userSpaceOnUse" x1="91.3316" y1="102.0192" x2="131.7587" y2="102.0192">
		<stop  offset="5.586590e-03" style="stop-color:#FDCF79"/>
		<stop  offset="1" style="stop-color:#8A6D35"/>
	</linearGradient>
	
		<linearGradient id="SVGID_00000082358950921077189470000012689478440463460791_" gradientUnits="userSpaceOnUse" x1="97.624" y1="121.6211" x2="122.3357" y2="78.8191">
		<stop  offset="5.586590e-03" style="stop-color:#FDCF79"/>
		<stop  offset="1" style="stop-color:#8A6D35"/>
	</linearGradient>
	
		<path style="fill:url(#SVGID_00000124842170319012573420000007574473288519329667_);stroke:url(#SVGID_00000082358950921077189470000012689478440463460791_);stroke-width:3;stroke-miterlimit:10;" d="
		M130.91,88.64c0.55-0.87,0.85-1.38,0.85-1.38s-0.7,0-1.92,0.04c-1.25,0.04-2.94,0.17-5,0.43c-2.06,0.25-4.46,0.65-7.08,1.25
		c-1.28,0.3-2.67,0.62-3.99,1.04c-1.31,0.42-2.67,0.89-4.02,1.43c-2.67,1.08-5.46,2.39-7.87,3.99c-2.39,1.64-4.59,3.52-6.39,5.65
		c-0.93,1.05-1.63,2.2-2.25,3.4c-0.59,1.19-1.06,2.44-1.41,3.73c-0.32,1.29-0.5,2.62-0.5,3.99c0.07,1.38,0.34,2.8,0.79,4.23
		c3.19,0.53,6.18,0.38,8.9-0.22c2.69-0.62,5.33-1.63,7.66-2.96c1.18-0.67,2.27-1.42,3.34-2.22c0.54-0.4,1.04-0.82,1.53-1.24
		c0.53-0.41,1.05-0.84,1.55-1.28c2.04-1.74,3.85-3.66,5.46-5.6c1.71-1.89,3.27-3.82,4.57-5.66c0.32-0.45,0.62-0.91,0.94-1.35
		c0.34-0.45,0.63-0.87,0.95-1.28c0.6-0.84,1.16-1.64,1.64-2.37C129.65,90.78,130.39,89.52,130.91,88.64z"/>
	
		<linearGradient id="SVGID_00000170249595047351748940000012530727351678290323_" gradientUnits="userSpaceOnUse" x1="89.2925" y1="44.6972" x2="109.2335" y2="44.6972">
		<stop  offset="5.586590e-03" style="stop-color:#FDCF79"/>
		<stop  offset="1" style="stop-color:#8A6D35"/>
	</linearGradient>
	
		<linearGradient id="SVGID_00000098920738871980641650000010174836037400270490_" gradientUnits="userSpaceOnUse" x1="88.7046" y1="69.2077" x2="117.5469" y2="19.2514">
		<stop  offset="5.586590e-03" style="stop-color:#FDCF79"/>
		<stop  offset="1" style="stop-color:#8A6D35"/>
	</linearGradient>
	
		<path style="fill:url(#SVGID_00000170249595047351748940000012530727351678290323_);stroke:url(#SVGID_00000098920738871980641650000010174836037400270490_);stroke-width:3;stroke-miterlimit:10;" d="
		M97.3,72.32c2.78-1.41,4.84-3.26,6.43-5.44c1.69-2.12,2.83-4.61,3.61-7.36c1.69-5.38,1.95-11.81,1.88-18.02
		c-0.02-1.57-0.09-3.13-0.18-4.66c-0.05-1.5-0.15-2.98-0.26-4.4c-0.21-2.87-0.5-5.54-0.76-7.84c-0.46-4.51-0.97-7.52-0.97-7.52
		s-0.53,0.59-1.43,1.59c-0.88,1.02-2.15,2.49-3.52,4.41c-1.39,1.91-3.01,4.11-4.54,6.69c-1.48,2.58-3.05,5.35-4.32,8.37
		c-1.24,3.04-2.38,6.14-3.07,9.32c-0.69,3.19-1.01,6.37-0.86,9.38C89.72,62.95,92.12,68.41,97.3,72.32z"/>
	
		<linearGradient id="SVGID_00000179605219552962519280000014278952908866117822_" gradientUnits="userSpaceOnUse" x1="111.6721" y1="66.1124" x2="157.2188" y2="66.1124">
		<stop  offset="5.586590e-03" style="stop-color:#FDCF79"/>
		<stop  offset="1" style="stop-color:#8A6D35"/>
	</linearGradient>
	
		<linearGradient id="SVGID_00000132785060467218823120000000411079147601677469_" gradientUnits="userSpaceOnUse" x1="122.8063" y1="83.7927" x2="144.5342" y2="46.1588">
		<stop  offset="5.586590e-03" style="stop-color:#FDCF79"/>
		<stop  offset="1" style="stop-color:#8A6D35"/>
	</linearGradient>
	
		<path style="fill:url(#SVGID_00000179605219552962519280000014278952908866117822_);stroke:url(#SVGID_00000132785060467218823120000000411079147601677469_);stroke-width:3;stroke-miterlimit:10;" d="
		M142.64,69.04c2.09-1.52,4.08-3.05,5.78-4.6c1.76-1.52,3.34-2.92,4.61-4.19c1.27-1.28,2.36-2.31,3.08-3.07
		c0.72-0.74,1.11-1.19,1.11-1.19s-2.69-0.6-6.9-1.01c-2.09-0.2-4.51-0.31-7.18-0.29c-2.67,0.02-5.56,0.19-8.42,0.65
		c-5.79,0.85-11.62,2.82-16.09,6.12c-2.17,1.71-3.98,3.71-5.27,6.03c-1.19,2.37-1.81,5.07-1.67,8.04c6,2.62,11.67,2.38,16.83,0.88
		c2.64-0.74,5.13-1.82,7.44-3.12C138.33,72.03,140.6,70.6,142.64,69.04z"/>
	
		<linearGradient id="SVGID_00000091732603147211558620000014902153323898048685_" gradientUnits="userSpaceOnUse" x1="72.2461" y1="202.7881" x2="439.0684" y2="202.7881">
		<stop  offset="5.586590e-03" style="stop-color:#FDCF79"/>
		<stop  offset="1" style="stop-color:#8A6D35"/>
	</linearGradient>
	
		<linearGradient id="SVGID_00000132797352550203678330000006557595841107753099_" gradientUnits="userSpaceOnUse" x1="118.5613" y1="315.1655" x2="395.1104" y2="38.6164">
		<stop  offset="5.586590e-03" style="stop-color:#FDCF79"/>
		<stop  offset="1" style="stop-color:#8A6D35"/>
	</linearGradient>
	
		<path style="fill:url(#SVGID_00000091732603147211558620000014902153323898048685_);stroke:url(#SVGID_00000132797352550203678330000006557595841107753099_);stroke-width:2;stroke-miterlimit:10;" d="
		M131.11,314.28c17.06,14.16,37.87,23.84,58.28,32.08c16.71,6.76,38.14,17.79,59.97,28.07c-19.62,6.11-38.98,11.1-54.55,13.71
		c-2.04,0.32,8.43,11,10.4,10.4c18.07-5.44,36.42-12.04,54.49-19.34c19.75,8.98,39.26,16.67,55.32,19.36
		c2.02,0.33,8.31-10.42,6.28-10.76c-15.22-2.55-32.89-7.07-51.3-12.84c30.32-12.73,59.5-27.14,84.74-40.87
		c27.39-14.93,47.96-36.11,61.48-64.27c12.53-26.08,21.37-54.91,22.67-83.88c1.8-40.12-11.67-79.47-32.56-113.28
		c-6.12-9.9-12.96-19.77-20.55-28.95c0.67-2.55,0.76-5.02,0.31-7.35c-0.51-2.76-1.59-5.43-3.24-7.8
		c-3.17-4.86-8.33-8.77-13.59-11.69c-5.3-2.9-10.81-4.72-14.93-5.71c-2.08-0.51-3.78-0.79-4.97-0.96c-0.6-0.07-1.07-0.13-1.37-0.14
		c-0.28-0.02-0.44-0.02-0.44-0.02s0.05,0.14,0.18,0.41c0.15,0.27,0.33,0.69,0.6,1.21c0.54,1.07,1.32,2.56,2.3,4.39
		c1.96,3.63,4.64,8.4,7.8,13.05c1.55,2.35,3.33,4.58,5.16,6.7c0.92,1.05,1.9,2.04,2.92,2.95c0.99,0.94,2.02,1.81,3.13,2.58
		c2.22,1.5,4.55,2.74,7.17,3.41c1.98,0.49,4.07,0.7,6.32,0.57c14.57,17.23,26.48,37.24,35.57,57.32
		c11.55,25.58,17.71,53.45,17.04,81.53c-0.7,30.62-10.92,61.7-24.65,88.9c-10.69,21.16-26.25,38.43-46.15,51.3
		c-17.8,11.5-37.33,20.13-56.73,28.53c-14.54,6.3-31.8,12.76-49.3,18.5c-37.49-12.52-76.66-29.46-103.81-44.79
		c-14.19-8-27.03-17.81-37.66-30.22c-10.62-12.39-18.28-27.09-24.42-42.11c-11.66-28.49-19.05-57.97-17.24-88.92
		c2.11-36.09,16.29-70.6,36.04-100.54c5.07-7.67,10.56-15.31,16.54-22.52c2.15,0.11,4.17-0.12,6.11-0.59
		c2.61-0.66,4.93-1.9,7.17-3.41c1.08-0.77,2.13-1.63,3.12-2.57c1.03-0.91,2.01-1.9,2.92-2.95c1.84-2.13,3.59-4.35,5.17-6.71
		c3.16-4.65,5.83-9.44,7.78-13.06c0.97-1.81,1.77-3.33,2.29-4.4c0.27-0.52,0.47-0.93,0.62-1.21c0.11-0.26,0.16-0.41,0.16-0.41
		s-0.14,0-0.43,0.01c-0.31,0.02-0.77,0.08-1.35,0.15c-1.19,0.16-2.92,0.46-4.97,0.96c-4.12,0.99-9.63,2.82-14.94,5.71
		c-5.27,2.93-10.41,6.83-13.59,11.7c-1.64,2.38-2.74,5.04-3.23,7.78c-0.45,2.3-0.37,4.72,0.27,7.23
		C111.53,57.11,100,76.19,91.05,95.29c-11.03,23.62-17.7,49.17-18.7,75.26c-1.14,29.97,7.01,58.68,18.27,86.17
		C99.67,278.82,112.6,298.93,131.11,314.28z"/>
	
		<linearGradient id="SVGID_00000109719337778070469410000014881347145148011435_" gradientUnits="userSpaceOnUse" x1="316.0124" y1="359.7388" x2="375.5964" y2="359.7388">
		<stop  offset="5.586590e-03" style="stop-color:#FDCF79"/>
		<stop  offset="1" style="stop-color:#8A6D35"/>
	</linearGradient>
	
		<linearGradient id="SVGID_00000085225924037037774570000013249814161185919374_" gradientUnits="userSpaceOnUse" x1="336.6785" y1="374.869" x2="353.8851" y2="345.0663">
		<stop  offset="5.586590e-03" style="stop-color:#FDCF79"/>
		<stop  offset="1" style="stop-color:#8A6D35"/>
	</linearGradient>
	
		<path style="fill:url(#SVGID_00000109719337778070469410000014881347145148011435_);stroke:url(#SVGID_00000085225924037037774570000013249814161185919374_);stroke-width:3;stroke-miterlimit:10;" d="
		M350.53,368.72c6.85-1.18,13.15-3.38,17.7-5.33c4.53-1.95,7.36-3.57,7.36-3.57s-2.89-1.16-7.33-2.64
		c-4.45-1.52-10.39-3.4-16.65-4.93c-6.27-1.51-12.78-2.63-18.78-2.36c-3.01,0.12-5.87,0.64-8.63,1.63
		c-2.78,0.98-5.36,2.51-8.19,4.64c1.82,6.27,7.31,10.22,13.75,12.04C336.25,370.08,343.69,369.93,350.53,368.72z"/>
	
		<linearGradient id="SVGID_00000139995987533534927890000015107102561996347069_" gradientUnits="userSpaceOnUse" x1="308.2366" y1="326.3524" x2="340.4383" y2="326.3524">
		<stop  offset="5.586590e-03" style="stop-color:#FDCF79"/>
		<stop  offset="1" style="stop-color:#8A6D35"/>
	</linearGradient>
	
		<linearGradient id="SVGID_00000016762984846886610770000007400030232499097021_" gradientUnits="userSpaceOnUse" x1="312.0799" y1="349.5132" x2="339.4755" y2="302.0625">
		<stop  offset="5.586590e-03" style="stop-color:#FDCF79"/>
		<stop  offset="1" style="stop-color:#8A6D35"/>
	</linearGradient>
	
		<path style="fill:url(#SVGID_00000139995987533534927890000015107102561996347069_);stroke:url(#SVGID_00000016762984846886610770000007400030232499097021_);stroke-width:3;stroke-miterlimit:10;" d="
		M316.86,346.26c2.76-0.52,5.32-1.83,7.66-3.55c4.64-3.49,8.17-8.83,10.62-14.29c2.45-5.46,3.77-11.09,4.49-15.28
		c0.35-2.1,0.54-3.86,0.67-5.07c0.11-1.22,0.14-1.93,0.14-1.93s-2.17,1.16-5.34,3.15c-3.18,2.01-7.39,4.8-11.53,8.15
		c-4.1,3.36-8.1,7.26-10.92,11.76c-2.8,4.53-4.57,9.7-4.4,16.25C311.1,346.66,314.08,346.81,316.86,346.26z"/>
	
		<linearGradient id="SVGID_00000132088234748608035420000016618549606772617369_" gradientUnits="userSpaceOnUse" x1="364.4533" y1="332.649" x2="422.3796" y2="332.649">
		<stop  offset="5.586590e-03" style="stop-color:#FDCF79"/>
		<stop  offset="1" style="stop-color:#8A6D35"/>
	</linearGradient>
	
		<linearGradient id="SVGID_00000109001756897713969100000016278804389405938352_" gradientUnits="userSpaceOnUse" x1="382.1871" y1="348.9055" x2="405.1419" y2="309.1466">
		<stop  offset="5.586590e-03" style="stop-color:#FDCF79"/>
		<stop  offset="1" style="stop-color:#8A6D35"/>
	</linearGradient>
	
		<path style="fill:url(#SVGID_00000132088234748608035420000016618549606772617369_);stroke:url(#SVGID_00000109001756897713969100000016278804389405938352_);stroke-width:3;stroke-miterlimit:10;" d="
		M396.65,322.35c-6.48,0.22-13.1,0.67-18.73,2.4c-5.65,1.75-10.38,4.77-13.47,10.31c3.87,5.24,9.43,7.67,15.69,7.95
		c6.27,0.31,13.2-1.52,19.56-4.4c6.36-2.88,12.12-6.79,16.18-10.16c2.04-1.65,3.66-3.18,4.79-4.23c1.11-1.09,1.71-1.74,1.71-1.74
		s-3.1-0.05-8.03-0.15C409.53,322.31,403.12,322.16,396.65,322.35z"/>
	
		<linearGradient id="SVGID_00000049217883645486249490000007744449538879847097_" gradientUnits="userSpaceOnUse" x1="351.7614" y1="302.5273" x2="375.287" y2="302.5273">
		<stop  offset="5.586590e-03" style="stop-color:#FDCF79"/>
		<stop  offset="1" style="stop-color:#8A6D35"/>
	</linearGradient>
	
		<linearGradient id="SVGID_00000100348308244479955560000011397430318068296586_" gradientUnits="userSpaceOnUse" x1="352.5188" y1="326.8907" x2="379.521" y2="280.1215">
		<stop  offset="5.586590e-03" style="stop-color:#FDCF79"/>
		<stop  offset="1" style="stop-color:#8A6D35"/>
	</linearGradient>
	
		<path style="fill:url(#SVGID_00000049217883645486249490000007744449538879847097_);stroke:url(#SVGID_00000100348308244479955560000011397430318068296586_);stroke-width:3;stroke-miterlimit:10;" d="
		M353.53,325.44c6.15,0.32,11.13-2.64,14.7-7.16c3.53-4.52,5.67-10.54,6.52-16.39c0.87-5.89,0.58-11.51-0.11-15.61
		c-0.31-2.05-0.67-3.7-0.98-4.87c-0.3-1.16-0.53-1.81-0.53-1.81s-0.37,0.38-1.03,1.11c-0.69,0.7-1.64,1.73-2.75,3.03
		c-2.29,2.58-5.39,6.16-8.47,10.36c-3.03,4.22-6.04,9.04-7.76,14.3C351.46,313.69,351.02,319.43,353.53,325.44z"/>
	
		<linearGradient id="SVGID_00000064342634968089676720000013088071604436734087_" gradientUnits="userSpaceOnUse" x1="402.9553" y1="289.2394" x2="452.2433" y2="289.2394">
		<stop  offset="5.586590e-03" style="stop-color:#FDCF79"/>
		<stop  offset="1" style="stop-color:#8A6D35"/>
	</linearGradient>
	
		<linearGradient id="SVGID_00000014621555404175437910000017817578856304722308_" gradientUnits="userSpaceOnUse" x1="413.3549" y1="311.5664" x2="442.1674" y2="261.6617">
		<stop  offset="5.586590e-03" style="stop-color:#FDCF79"/>
		<stop  offset="1" style="stop-color:#8A6D35"/>
	</linearGradient>
	
		<path style="fill:url(#SVGID_00000064342634968089676720000013088071604436734087_);stroke:url(#SVGID_00000014621555404175437910000017817578856304722308_);stroke-width:3;stroke-miterlimit:10;" d="
		M438.49,293.32c0.65-0.77,1.28-1.57,1.9-2.36l0.9-1.21l0.72-0.98c0.92-1.26,1.78-2.54,2.59-3.77c1.62-2.47,3.03-4.84,4.19-6.88
		c1.13-2.05,2.01-3.77,2.61-4.99c0.58-1.24,0.85-1.98,0.85-1.98s-2.87,0.83-7.33,2.22c-4.4,1.4-10.2,3.45-15.83,6.1
		c-1.43,0.67-2.82,1.36-4.21,2.13c-1.48,0.84-2.94,1.69-4.33,2.55c-1.41,0.86-2.8,1.69-4.1,2.59c-1.3,0.87-2.6,1.73-3.76,2.69
		c-4.74,3.7-8.26,7.97-9.73,14.23c5.22,3.92,11.34,4.59,17.64,2.55C426.87,304.24,433.31,299.51,438.49,293.32z"/>
	
		<linearGradient id="SVGID_00000152235034678973221260000018174519675277989020_" gradientUnits="userSpaceOnUse" x1="384.0864" y1="270.9623" x2="402.4378" y2="270.9623">
		<stop  offset="5.586590e-03" style="stop-color:#FDCF79"/>
		<stop  offset="1" style="stop-color:#8A6D35"/>
	</linearGradient>
	
		<linearGradient id="SVGID_00000165952948506296221820000008747430067693584051_" gradientUnits="userSpaceOnUse" x1="380.6918" y1="292.3694" x2="404.5368" y2="251.0686">
		<stop  offset="5.586590e-03" style="stop-color:#FDCF79"/>
		<stop  offset="1" style="stop-color:#8A6D35"/>
	</linearGradient>
	
		<path style="fill:url(#SVGID_00000152235034678973221260000018174519675277989020_);stroke:url(#SVGID_00000165952948506296221820000008747430067693584051_);stroke-width:3;stroke-miterlimit:10;" d="
		M400.72,267.15c-1.65-5.82-4.03-11.07-5.98-14.82c-0.99-1.89-1.86-3.38-2.57-4.45c-0.69-1.06-1.1-1.64-1.1-1.64
		s-0.23,0.59-0.62,1.61c-0.44,1.03-1.07,2.51-1.74,4.31c-0.68,1.81-1.41,3.96-2.07,6.35c-0.65,2.32-1.37,5.3-1.56,7.06
		c-0.55,4.14-1.22,9.1-0.94,14.33c0.34,5.22,1.64,10.76,5.76,15.8c5.95-1.38,9.82-5.81,11.52-11.23c0.38-1.36,0.73-2.75,0.87-4.2
		c0.12-1.45,0.18-2.9,0.09-4.35c-0.13-1.46-0.33-2.91-0.62-4.31C401.48,270.1,401.11,268.6,400.72,267.15z"/>
	
		<linearGradient id="SVGID_00000047770169424815657250000005941964785708188833_" gradientUnits="userSpaceOnUse" x1="427.0976" y1="240.4216" x2="466.9794" y2="240.4216">
		<stop  offset="5.586590e-03" style="stop-color:#FDCF79"/>
		<stop  offset="1" style="stop-color:#8A6D35"/>
	</linearGradient>
	
		<linearGradient id="SVGID_00000183942912026074487310000002189740153929559741_" gradientUnits="userSpaceOnUse" x1="432.2844" y1="265.2678" x2="462.4313" y2="213.0517">
		<stop  offset="5.586590e-03" style="stop-color:#FDCF79"/>
		<stop  offset="1" style="stop-color:#8A6D35"/>
	</linearGradient>
	
		<path style="fill:url(#SVGID_00000047770169424815657250000005941964785708188833_);stroke:url(#SVGID_00000183942912026074487310000002189740153929559741_);stroke-width:3;stroke-miterlimit:10;" d="
		M466.52,221.69c0.34-1.36,0.46-2.14,0.46-2.14s-2.63,1.4-6.8,3.64c-4.08,2.26-9.43,5.38-14.49,9.03
		c-5.25,3.57-10.42,7.63-13.77,12.29c-0.82,1.17-1.67,2.34-2.35,3.57c-0.69,1.23-1.27,2.49-1.66,3.81c-0.83,2.64-1.05,5.5-0.53,8.62
		c6.23,1.82,11.99,0.42,17.16-2.9c1.29-0.82,2.54-1.77,3.77-2.8c1.19-1.04,2.4-2.15,3.43-3.39c2.09-2.46,4.04-5.22,5.76-8.02
		c3.59-5.56,5.76-11.65,7.31-16.18C465.57,224.94,466.15,223.02,466.52,221.69z"/>
	
		<linearGradient id="SVGID_00000176736584066560894060000010933881991243486615_" gradientUnits="userSpaceOnUse" x1="399.8049" y1="230.3791" x2="419.9295" y2="230.3791">
		<stop  offset="5.586590e-03" style="stop-color:#FDCF79"/>
		<stop  offset="1" style="stop-color:#8A6D35"/>
	</linearGradient>
	
		<linearGradient id="SVGID_00000114763242871910847280000000351731827753235628_" gradientUnits="userSpaceOnUse" x1="397.4859" y1="248.4272" x2="418.365" y2="212.2636">
		<stop  offset="5.586590e-03" style="stop-color:#FDCF79"/>
		<stop  offset="1" style="stop-color:#8A6D35"/>
	</linearGradient>
	
		<path style="fill:url(#SVGID_00000176736584066560894060000010933881991243486615_);stroke:url(#SVGID_00000114763242871910847280000000351731827753235628_);stroke-width:3;stroke-miterlimit:10;" d="
		M412.47,255.34c2.48-1.74,4.28-3.94,5.49-6.39c0.62-1.21,1.06-2.51,1.41-3.84c0.32-1.34,0.58-2.7,0.56-4.15
		c0.04-5.73-1.61-11.75-4.15-17.12c-2.71-5.38-6.02-10.02-8.65-13.27c-1.34-1.63-2.46-2.91-3.36-3.79
		c-0.87-0.88-1.39-1.37-1.39-1.37s-0.13,0.6-0.29,1.64c-0.23,1.05-0.57,2.54-0.88,4.39c-0.69,3.66-1.01,8.68-1.35,14.04
		c-0.11,2.68,0,5.47,0.37,8.26c0.11,0.71,0.21,1.41,0.3,2.09s0.21,1.37,0.31,2.05c0.25,1.37,0.59,2.72,1.03,4.04
		C403.57,247.21,406.8,252.09,412.47,255.34z"/>
	
		<linearGradient id="SVGID_00000145753937409858536530000003108774924299749505_" gradientUnits="userSpaceOnUse" x1="439.3138" y1="189.4192" x2="470.5134" y2="189.4192">
		<stop  offset="5.586590e-03" style="stop-color:#FDCF79"/>
		<stop  offset="1" style="stop-color:#8A6D35"/>
	</linearGradient>
	
		<linearGradient id="SVGID_00000147191237796911735500000001214922585779847615_" gradientUnits="userSpaceOnUse" x1="441.7811" y1="216.5111" x2="472.9975" y2="162.4428">
		<stop  offset="5.586590e-03" style="stop-color:#FDCF79"/>
		<stop  offset="1" style="stop-color:#8A6D35"/>
	</linearGradient>
	
		<path style="fill:url(#SVGID_00000145753937409858536530000003108774924299749505_);stroke:url(#SVGID_00000147191237796911735500000001214922585779847615_);stroke-width:3;stroke-miterlimit:10;" d="
		M452.61,182.29c-1.07,1.16-2.09,2.37-3.08,3.58c-0.98,1.21-1.97,2.45-2.97,3.69c-1.91,2.5-3.56,5.05-4.76,7.67
		c-0.62,1.3-1.07,2.64-1.46,3.97c-0.45,1.33-0.77,2.68-0.91,4.05c-0.3,2.74,0,5.57,1.12,8.52c6.46,0.61,11.87-1.87,16.32-6.18
		c1.1-1.07,2.17-2.27,3.16-3.54c0.96-1.28,1.77-2.67,2.59-4.12c1.59-2.89,2.94-6.01,4.08-9.18c0.62-1.56,1.01-3.18,1.39-4.77
		c0.37-1.57,0.7-3.13,0.99-4.64c0.56-3.02,1.05-5.85,1.23-8.28c0.29-4.88,0.2-8.1,0.2-8.1s-2.38,2.01-5.72,5.18
		C461.53,173.35,456.83,177.62,452.61,182.29z"/>
	
		<linearGradient id="SVGID_00000064347524684181375080000014577704013655839115_" gradientUnits="userSpaceOnUse" x1="404.5765" y1="187.5476" x2="429.9166" y2="187.5476">
		<stop  offset="5.586590e-03" style="stop-color:#FDCF79"/>
		<stop  offset="1" style="stop-color:#8A6D35"/>
	</linearGradient>
	
		<linearGradient id="SVGID_00000125579127475514954530000013576650468654554501_" gradientUnits="userSpaceOnUse" x1="406.3531" y1="201.7395" x2="422.6608" y2="173.4938">
		<stop  offset="5.586590e-03" style="stop-color:#FDCF79"/>
		<stop  offset="1" style="stop-color:#8A6D35"/>
	</linearGradient>
	
		<path style="fill:url(#SVGID_00000064347524684181375080000014577704013655839115_);stroke:url(#SVGID_00000125579127475514954530000013576650468654554501_);stroke-width:3;stroke-miterlimit:10;" d="
		M429.26,203.08c0.36-1.31,0.58-2.66,0.65-4.01c0.04-1.37-0.16-2.76-0.42-4.15c-0.53-2.77-1.52-5.54-2.8-8.17
		c-0.32-0.66-0.67-1.31-1.01-1.95c-0.38-0.64-0.81-1.27-1.23-1.9c-0.85-1.25-1.77-2.46-2.69-3.59c-1.85-2.3-3.82-4.36-5.74-6.16
		c-0.92-0.9-1.92-1.73-2.89-2.5c-0.95-0.75-1.88-1.45-2.73-2.07c-3.43-2.46-5.83-3.79-5.83-3.79s-0.04,2.35,0.34,5.91
		c0.15,0.9,0.19,1.86,0.24,2.9c0.09,1.04,0.18,2.13,0.32,3.27c0.26,2.28,0.78,4.76,1.27,7.3c0.44,2.55,1.07,5.17,1.99,7.76
		c0.45,1.28,0.97,2.56,1.57,3.81c0.53,1.25,1.11,2.47,1.79,3.65c2.7,4.71,6.82,8.81,13,10.93
		C427.2,208.15,428.54,205.69,429.26,203.08z"/>
	
		<linearGradient id="SVGID_00000121969882730768514500000011368840979668861367_" gradientUnits="userSpaceOnUse" x1="440.1967" y1="138.2235" x2="463.5114" y2="138.2235">
		<stop  offset="5.586590e-03" style="stop-color:#FDCF79"/>
		<stop  offset="1" style="stop-color:#8A6D35"/>
	</linearGradient>
	<path style="fill:url(#SVGID_00000121969882730768514500000011368840979668861367_);" d="M440.83,149.25
		c-0.65,2.83-0.83,5.58-0.41,8.3c0.2,1.35,0.63,2.68,1.1,4.02c0.45,1.33,1.11,2.66,1.93,3.96c6.43-0.91,11.39-4.59,14.44-9.88
		c1.6-2.64,2.82-5.66,3.8-8.87c0.85-3.2,1.28-6.57,1.57-9.94c0.13-1.68,0.23-3.36,0.25-5c-0.05-1.62-0.14-3.21-0.25-4.74
		c-0.23-3.08-0.56-5.92-0.92-8.34c-0.98-4.77-1.9-7.84-1.9-7.84s-1.76,2.54-4.21,6.46c-1.19,1.93-2.6,4.23-4.15,6.77
		c-1.52,2.52-3.07,5.24-4.51,8.03c-1.37,2.76-2.89,5.66-4.08,8.52C442.26,143.58,441.39,146.44,440.83,149.25z"/>
	
		<linearGradient id="SVGID_00000093173003945270773450000018231755918664533635_" gradientUnits="userSpaceOnUse" x1="396.8483" y1="145.1077" x2="430.2155" y2="145.1077">
		<stop  offset="5.586590e-03" style="stop-color:#FDCF79"/>
		<stop  offset="1" style="stop-color:#8A6D35"/>
	</linearGradient>
	
		<linearGradient id="SVGID_00000016793591150286876490000002878482110377850041_" gradientUnits="userSpaceOnUse" x1="405.5463" y1="155.5739" x2="418.0699" y2="133.8825">
		<stop  offset="5.586590e-03" style="stop-color:#FDCF79"/>
		<stop  offset="1" style="stop-color:#8A6D35"/>
	</linearGradient>
	
		<path style="fill:url(#SVGID_00000093173003945270773450000018231755918664533635_);stroke:url(#SVGID_00000016793591150286876490000002878482110377850041_);stroke-width:3;stroke-miterlimit:10;" d="
		M428.52,148.43c-1.16-2.54-2.91-4.93-4.82-7.12c-0.97-1.09-2.01-2.15-3.07-3.13c-1.07-0.99-2.32-1.89-3.49-2.76
		c-4.82-3.42-9.66-5.88-13.71-7.33c-3.91-1.48-6.59-2.11-6.59-2.11s0.56,2.24,1.85,5.51c0.55,1.67,1.19,3.63,2.08,5.71
		c0.41,1.04,0.9,2.12,1.43,3.21c0.52,1.11,0.95,2.26,1.53,3.39c1.06,2.29,2.4,4.58,3.93,6.8c1.37,2.22,3.02,4.36,4.97,6.28
		c3.99,3.77,8.67,6.76,15.19,7.38c0.79-1.28,1.41-2.59,1.84-3.91c0.44-1.34,0.53-2.68,0.56-4.02
		C430.22,153.65,429.58,150.97,428.52,148.43z"/>
	
		<linearGradient id="SVGID_00000000196052905256748910000013275064955808880011_" gradientUnits="userSpaceOnUse" x1="427.6771" y1="90.0742" x2="447.2829" y2="90.0742">
		<stop  offset="5.586590e-03" style="stop-color:#FDCF79"/>
		<stop  offset="1" style="stop-color:#8A6D35"/>
	</linearGradient>
	
		<linearGradient id="SVGID_00000082346347278599124520000001502702363899645604_" gradientUnits="userSpaceOnUse" x1="423.9937" y1="114.2717" x2="451.4374" y2="66.7377">
		<stop  offset="5.586590e-03" style="stop-color:#FDCF79"/>
		<stop  offset="1" style="stop-color:#8A6D35"/>
	</linearGradient>
	
		<path style="fill:url(#SVGID_00000000196052905256748910000013275064955808880011_);stroke:url(#SVGID_00000082346347278599124520000001502702363899645604_);stroke-width:3;stroke-miterlimit:10;" d="
		M437.38,61.77c0,0-1.06,2.82-2.58,7.23c-1.52,4.42-3.22,10.19-4.8,16.35c-0.78,3.07-1.3,6.13-1.77,9.2
		c-0.46,3.08-0.69,6.08-0.46,8.9c0.14,1.41,0.25,2.82,0.52,4.16c0.28,1.36,0.67,2.66,1.21,3.91c0.54,1.24,1.23,2.43,2.08,3.57
		c0.79,1.15,1.76,2.26,2.89,3.29c3.02-1.27,5.44-3.09,7.35-5.34c1.96-2.26,3.17-4.88,4.07-7.84c0.45-1.47,0.78-3.01,1.03-4.6
		c0.21-1.59,0.39-3.24,0.36-4.86c-0.02-3.28-0.36-6.66-0.88-9.95c-1.3-6.48-3.38-12.65-5.44-16.95c-0.97-2.18-1.85-3.97-2.49-5.21
		C437.8,62.43,437.38,61.77,437.38,61.77z"/>
	
		<linearGradient id="SVGID_00000047026044297530472640000010757142909696690618_" gradientUnits="userSpaceOnUse" x1="379.5545" y1="105.0628" x2="419.9643" y2="105.0628">
		<stop  offset="5.586590e-03" style="stop-color:#FDCF79"/>
		<stop  offset="1" style="stop-color:#8A6D35"/>
	</linearGradient>
	
		<linearGradient id="SVGID_00000091720796161350704960000012935462402259038889_" gradientUnits="userSpaceOnUse" x1="393.9426" y1="113.0171" x2="404.8846" y2="94.065">
		<stop  offset="5.586590e-03" style="stop-color:#FDCF79"/>
		<stop  offset="1" style="stop-color:#8A6D35"/>
	</linearGradient>
	
		<path style="fill:url(#SVGID_00000047026044297530472640000010757142909696690618_);stroke:url(#SVGID_00000091720796161350704960000012935462402259038889_);stroke-width:3;stroke-miterlimit:10;" d="
		M418.07,107.55c-0.62-1.2-1.32-2.36-2.26-3.4c-1.81-2.12-3.99-4.02-6.39-5.65c-2.41-1.63-5.19-2.91-7.85-3.99
		c-1.35-0.53-2.71-1.02-4.03-1.44c-1.32-0.42-2.71-0.76-4.01-1.04c-2.59-0.6-5-0.98-7.06-1.24c-2.06-0.25-3.75-0.39-4.98-0.42
		c-1.25-0.06-1.93-0.05-1.93-0.05s0.29,0.5,0.85,1.37c0.53,0.88,1.24,2.15,2.24,3.63c0.49,0.74,1.03,1.53,1.64,2.37
		c0.31,0.41,0.63,0.85,0.96,1.28c0.28,0.45,0.61,0.91,0.94,1.36c1.3,1.84,2.83,3.77,4.56,5.66c1.6,1.95,3.41,3.85,5.44,5.6
		c0.51,0.44,1.05,0.86,1.55,1.28c0.51,0.44,1.02,0.83,1.55,1.25c1.05,0.79,2.17,1.53,3.34,2.19c2.31,1.35,4.96,2.38,7.68,2.98
		c2.71,0.6,5.67,0.75,8.89,0.21c0.45-1.43,0.72-2.84,0.78-4.23c0-1.35-0.17-2.69-0.49-3.97
		C419.15,109.98,418.66,108.74,418.07,107.55z"/>
	
		<linearGradient id="SVGID_00000005262817896640416240000003928722380348252298_" gradientUnits="userSpaceOnUse" x1="402.0716" y1="47.7347" x2="422.0086" y2="47.7347">
		<stop  offset="5.586590e-03" style="stop-color:#FDCF79"/>
		<stop  offset="1" style="stop-color:#8A6D35"/>
	</linearGradient>
	
		<linearGradient id="SVGID_00000063625161778385896330000014852513736842522503_" gradientUnits="userSpaceOnUse" x1="397.8833" y1="67.8163" x2="421.3021" y2="27.2537">
		<stop  offset="5.586590e-03" style="stop-color:#FDCF79"/>
		<stop  offset="1" style="stop-color:#8A6D35"/>
	</linearGradient>
	
		<path style="fill:url(#SVGID_00000005262817896640416240000003928722380348252298_);stroke:url(#SVGID_00000063625161778385896330000014852513736842522503_);stroke-width:3;stroke-miterlimit:10;" d="
		M414,75.35c5.19-3.9,7.59-9.36,7.97-15.47c0.16-3.02-0.19-6.2-0.86-9.39c-0.69-3.18-1.8-6.28-3.07-9.32
		c-1.27-3.01-2.83-5.79-4.33-8.37c-1.5-2.57-3.15-4.79-4.51-6.69c-1.37-1.91-2.64-3.39-3.55-4.42c-0.88-1.01-1.41-1.58-1.41-1.58
		s-0.5,3.02-0.97,7.52c-0.27,2.3-0.54,4.97-0.76,7.83c-0.11,1.44-0.2,2.91-0.25,4.42c-0.09,1.52-0.17,3.09-0.19,4.66
		c-0.07,6.2,0.2,12.63,1.86,18.03c0.79,2.75,1.93,5.22,3.61,7.35C409.14,72.1,411.22,73.95,414,75.35z"/>
	
		<linearGradient id="SVGID_00000183245340318925850210000016622691833529406618_" gradientUnits="userSpaceOnUse" x1="354.0953" y1="69.1522" x2="399.6331" y2="69.1522">
		<stop  offset="5.586590e-03" style="stop-color:#FDCF79"/>
		<stop  offset="1" style="stop-color:#8A6D35"/>
	</linearGradient>
	
		<linearGradient id="SVGID_00000121252910696090984620000011120561223998184866_" gradientUnits="userSpaceOnUse" x1="371.9807" y1="76.157" x2="383.0297" y2="57.0195">
		<stop  offset="5.586590e-03" style="stop-color:#FDCF79"/>
		<stop  offset="1" style="stop-color:#8A6D35"/>
	</linearGradient>
	
		<path style="fill:url(#SVGID_00000183245340318925850210000016622691833529406618_);stroke:url(#SVGID_00000121252910696090984620000011120561223998184866_);stroke-width:3;stroke-miterlimit:10;" d="
		M392.68,64.52c-4.46-3.32-10.29-5.29-16.09-6.14c-2.85-0.47-5.74-0.63-8.42-0.65c-2.66-0.01-5.09,0.09-7.18,0.3
		c-4.21,0.43-6.89,1-6.89,1s0.37,0.45,1.1,1.2c0.72,0.76,1.83,1.78,3.07,3.07c1.28,1.27,2.9,2.67,4.63,4.19
		c1.69,1.53,3.68,3.08,5.76,4.6c2.06,1.54,4.33,2.99,6.7,4.24c2.33,1.31,4.8,2.4,7.43,3.12c5.16,1.52,10.81,1.75,16.83-0.88
		c0.14-2.97-0.45-5.67-1.66-8.04C396.67,68.22,394.84,66.21,392.68,64.52z"/>
</g>
<g>
	<path class="st33" d="M64.51,416.08c0.22-1.25,0.66-1.91,1.25-1.91s1.03,0.37,1.98,2.27l20.03,41.39l19.96-41.9
		c0.59-1.17,0.95-1.76,1.61-1.76c0.66,0,1.1,0.73,1.32,2.27l6.68,45.35c0.66,4.62,1.39,6.75,3.6,7.41c2.13,0.66,3.6,0.73,4.55,0.73
		c0.66,0,1.17,0.07,1.17,0.51c0,0.59-0.88,0.81-1.91,0.81c-1.83,0-11.96-0.22-14.9-0.44c-1.69-0.15-2.13-0.37-2.13-0.81
		c0-0.37,0.29-0.59,0.81-0.81c0.44-0.15,0.66-1.1,0.37-3.16l-4.4-32.29h-0.29l-16,33.32c-1.69,3.45-2.05,4.11-2.72,4.11
		c-0.66,0-1.39-1.47-2.57-3.67c-1.76-3.38-7.56-14.6-8.44-16.66c-0.66-1.54-5.06-10.79-7.63-16.29h-0.29l-3.82,29.21
		c-0.15,1.32-0.22,2.27-0.22,3.45c0,1.39,0.95,2.05,2.2,2.35c1.32,0.29,2.35,0.37,3.08,0.37c0.59,0,1.1,0.15,1.1,0.51
		c0,0.66-0.66,0.81-1.76,0.81c-3.08,0-6.38-0.22-7.71-0.22c-1.39,0-4.92,0.22-7.27,0.22c-0.73,0-1.32-0.15-1.32-0.81
		c0-0.37,0.44-0.51,1.17-0.51c0.59,0,1.1,0,2.2-0.22c2.05-0.44,2.64-3.3,3.01-5.8L64.51,416.08z"/>
	<path class="st33" d="M138.34,437.07c0-11.15,0-13.21-0.15-15.56c-0.15-2.5-0.88-3.74-2.5-4.11c-0.81-0.22-1.76-0.29-2.64-0.29
		c-0.73,0-1.17-0.15-1.17-0.73c0-0.44,0.59-0.59,1.76-0.59c2.79,0,7.41,0.22,9.54,0.22c1.83,0,6.16-0.22,8.95-0.22
		c0.95,0,1.54,0.15,1.54,0.59c0,0.59-0.44,0.73-1.17,0.73c-0.73,0-1.32,0.07-2.2,0.22c-1.98,0.37-2.57,1.61-2.72,4.18
		c-0.15,2.35-0.15,4.4-0.15,15.56v12.92c0,7.12,0,12.92,0.29,16.07c0.22,1.98,0.73,3.3,2.94,3.6c1.03,0.15,2.64,0.29,3.74,0.29
		c0.81,0,1.17,0.22,1.17,0.59c0,0.51-0.59,0.73-1.39,0.73c-4.84,0-9.47-0.22-11.45-0.22c-1.69,0-6.31,0.22-9.25,0.22
		c-0.95,0-1.47-0.22-1.47-0.73c0-0.37,0.29-0.59,1.17-0.59c1.1,0,1.98-0.15,2.64-0.29c1.47-0.29,1.91-1.54,2.13-3.67
		c0.37-3.08,0.37-8.88,0.37-16V437.07z"/>
	<path class="st33" d="M180.69,449.99c0,9.39,0,14.46,1.54,15.78c1.25,1.1,3.16,1.61,8.88,1.61c3.89,0,6.75-0.07,8.59-2.05
		c0.88-0.95,1.76-3.01,1.91-4.4c0.07-0.66,0.22-1.1,0.81-1.1c0.51,0,0.59,0.37,0.59,1.25c0,0.81-0.51,6.31-1.1,8.44
		c-0.44,1.61-0.81,1.98-4.62,1.98c-5.28,0-9.1-0.15-12.4-0.22c-3.3-0.15-5.94-0.22-8.95-0.22c-0.81,0-2.42,0-4.18,0.07
		c-1.69,0-3.6,0.15-5.06,0.15c-0.95,0-1.47-0.22-1.47-0.73c0-0.37,0.29-0.59,1.17-0.59c1.1,0,1.98-0.15,2.64-0.29
		c1.47-0.29,1.83-1.91,2.13-4.04c0.37-3.08,0.37-8.88,0.37-15.63v-12.92c0-11.15,0-13.21-0.15-15.56c-0.15-2.5-0.73-3.67-3.16-4.18
		c-0.59-0.15-1.47-0.22-2.42-0.22c-0.81,0-1.25-0.15-1.25-0.66c0-0.51,0.51-0.66,1.61-0.66c3.45,0,8.07,0.22,10.05,0.22
		c1.76,0,7.12-0.22,9.98-0.22c1.03,0,1.54,0.15,1.54,0.66c0,0.51-0.44,0.66-1.32,0.66c-0.81,0-1.98,0.07-2.86,0.22
		c-1.98,0.37-2.57,1.61-2.72,4.18c-0.15,2.35-0.15,4.4-0.15,15.56V449.99z"/>
	<path class="st33" d="M225.08,449.99c0,9.39,0,14.46,1.54,15.78c1.25,1.1,3.16,1.61,8.88,1.61c3.89,0,6.75-0.07,8.59-2.05
		c0.88-0.95,1.76-3.01,1.91-4.4c0.07-0.66,0.22-1.1,0.81-1.1c0.51,0,0.59,0.37,0.59,1.25c0,0.81-0.51,6.31-1.1,8.44
		c-0.44,1.61-0.81,1.98-4.62,1.98c-5.28,0-9.1-0.15-12.4-0.22c-3.3-0.15-5.94-0.22-8.95-0.22c-0.81,0-2.42,0-4.18,0.07
		c-1.69,0-3.6,0.15-5.06,0.15c-0.95,0-1.47-0.22-1.47-0.73c0-0.37,0.29-0.59,1.17-0.59c1.1,0,1.98-0.15,2.64-0.29
		c1.47-0.29,1.83-1.91,2.13-4.04c0.37-3.08,0.37-8.88,0.37-15.63v-12.92c0-11.15,0-13.21-0.15-15.56c-0.15-2.5-0.73-3.67-3.16-4.18
		c-0.59-0.15-1.47-0.22-2.42-0.22c-0.81,0-1.25-0.15-1.25-0.66c0-0.51,0.51-0.66,1.61-0.66c3.45,0,8.07,0.22,10.05,0.22
		c1.76,0,7.12-0.22,9.98-0.22c1.03,0,1.54,0.15,1.54,0.66c0,0.51-0.44,0.66-1.32,0.66c-0.81,0-1.98,0.07-2.86,0.22
		c-1.98,0.37-2.57,1.61-2.72,4.18c-0.15,2.35-0.15,4.4-0.15,15.56V449.99z"/>
	<path class="st33" d="M260.31,437.07c0-11.15,0-13.21-0.15-15.56c-0.15-2.5-0.88-3.74-2.49-4.11c-0.81-0.22-1.76-0.29-2.64-0.29
		c-0.73,0-1.17-0.15-1.17-0.73c0-0.44,0.59-0.59,1.76-0.59c2.79,0,7.41,0.22,9.54,0.22c1.83,0,6.16-0.22,8.95-0.22
		c0.95,0,1.54,0.15,1.54,0.59c0,0.59-0.44,0.73-1.17,0.73c-0.73,0-1.32,0.07-2.2,0.22c-1.98,0.37-2.57,1.61-2.72,4.18
		c-0.15,2.35-0.15,4.4-0.15,15.56v12.92c0,7.12,0,12.92,0.29,16.07c0.22,1.98,0.73,3.3,2.94,3.6c1.03,0.15,2.64,0.29,3.74,0.29
		c0.81,0,1.17,0.22,1.17,0.59c0,0.51-0.59,0.73-1.39,0.73c-4.84,0-9.47-0.22-11.45-0.22c-1.69,0-6.31,0.22-9.25,0.22
		c-0.95,0-1.47-0.22-1.47-0.73c0-0.37,0.29-0.59,1.17-0.59c1.1,0,1.98-0.15,2.64-0.29c1.47-0.29,1.91-1.54,2.13-3.67
		c0.37-3.08,0.37-8.88,0.37-16V437.07z"/>
	<path class="st33" d="M284.75,443.53c0-12.55,8.29-28.77,30.31-28.77c18.27,0,29.65,10.64,29.65,27.45
		c0,16.81-11.74,30.09-30.38,30.09C293.26,472.3,284.75,456.52,284.75,443.53z M334.43,444.92c0-16.44-9.47-26.64-21.5-26.64
		c-8.44,0-18.05,4.7-18.05,22.97c0,15.26,8.44,27.37,22.53,27.37C322.54,468.63,334.43,466.13,334.43,444.92z"/>
	<path class="st33" d="M364.15,461.29c0.15,5.72,1.1,7.63,2.57,8.15c1.25,0.44,2.64,0.51,3.82,0.51c0.81,0,1.25,0.15,1.25,0.59
		c0,0.59-0.66,0.73-1.69,0.73c-4.77,0-7.71-0.22-9.1-0.22c-0.66,0-4.11,0.22-7.93,0.22c-0.95,0-1.61-0.07-1.61-0.73
		c0-0.44,0.44-0.59,1.17-0.59c0.95,0,2.27-0.07,3.3-0.37c1.91-0.59,2.2-2.72,2.27-9.1l0.66-43.44c0-1.47,0.22-2.5,0.95-2.5
		c0.81,0,1.47,0.95,2.72,2.27c0.88,0.95,12.04,12.92,22.75,23.56c4.99,4.99,14.9,15.56,16.14,16.73h0.37l-0.73-32.95
		c-0.07-4.48-0.73-5.87-2.5-6.6c-1.1-0.44-2.86-0.44-3.89-0.44c-0.88,0-1.17-0.22-1.17-0.66c0-0.59,0.81-0.66,1.91-0.66
		c3.82,0,7.34,0.22,8.88,0.22c0.81,0,3.6-0.22,7.19-0.22c0.95,0,1.69,0.07,1.69,0.66c0,0.44-0.44,0.66-1.32,0.66
		c-0.73,0-1.32,0-2.2,0.22c-2.05,0.59-2.64,2.13-2.72,6.24l-0.81,46.31c0,1.61-0.29,2.27-0.95,2.27c-0.81,0-1.69-0.81-2.49-1.61
		c-4.62-4.4-14.02-14.02-21.65-21.58c-8-7.93-16.14-17.1-17.47-18.49h-0.22L364.15,461.29z"/>
	<path class="st33" d="M439.08,476.99c-0.07,0.37-0.37,0.51-0.73,0.59l-2.27,0.44c-0.44,0.07-0.59-0.15-0.51-0.73l0.73-6.24
		c-1.54,0-6.46-0.44-9.25-1.54c-2.05-0.88-2.49-1.17-2.49-3.16c0-4.18,0.88-7.93,1.1-8.88c0.29-1.17,0.59-1.76,1.1-1.76
		c0.51,0,0.59,0.44,0.51,1.98c-0.15,1.98,0.37,4.77,2.13,6.68c2.05,2.27,5.06,3.3,7.19,3.3l2.35-21.65
		c-8.07-6.16-11.96-10.49-11.96-17.47c0-9.03,8.88-13.21,15.56-13.21l0.73-5.87c0.07-0.44,0.51-0.59,0.81-0.66l2.2-0.51
		c0.37-0.07,0.66,0,0.59,0.37l-0.88,6.68c3.38,0,6.75,0.88,8.07,1.39c1.03,0.37,1.25,0.66,1.25,1.83c0,1.61-0.59,6.68-0.88,8.07
		c-0.15,0.81-0.37,1.03-0.81,1.03c-0.51,0-0.73-0.29-0.73-1.39c-0.07-1.91-0.22-3.67-2.2-5.65c-1.32-1.39-3.82-2.2-4.99-2.2
		l-2.27,19.89c7.34,4.92,12.18,9.54,12.18,17.61c0,11.3-10.05,15.12-15.85,15.12L439.08,476.99z M442.16,418.43
		c-2.72,0-8.51,1.32-8.51,8.22c0,4.04,3.08,6.75,6.53,9.54L442.16,418.43z M440.26,467.67c4.84-0.29,8.44-4.11,8.44-9.39
		c0-4.48-2.79-7.56-6.46-10.05L440.26,467.67z"/>
</g>
<g>
	<path class="st33" d="M205.29,195.35c0-9.84,0-17.67,0-23.87c0-4.37,0-6.56-2.73-6.56c-3.46,0-17.13,7.11-21.13,8.75
		c-0.91,0.36-1.82,0.73-2.55,0.73c-0.55,0-1.46-0.91-1.46-2s0.91-2,1.82-2.55c0.73-0.36,35.71-23.32,42.09-28.06
		c1.64-1.09,3.28-2.37,4.74-2.37c1.64,0,2.19,2,2.19,3.83c0,1.46-1.09,19.49-1.09,47.37v33.71c0,17.49,0,32.98,0.73,40.99
		c0.55,5.83,1.46,8.56,7.29,9.84c2.73,0.55,10.57,1.09,12.02,1.09c0.73,0,1.64,0.55,1.64,1.82s-0.91,1.64-2.91,1.64
		c-13.85,0-25.51-0.55-30.43-0.55c-4.19,0-19.49,0.55-31.16,0.55c-2,0-3.1-0.36-3.1-1.64s0.73-1.82,1.46-1.82
		c2,0,11.3-0.55,14.58-1.28c5.83-1.28,6.74-3.83,7.29-9.66c0.73-8.02,1.09-23.5,0.91-40.99L205.29,195.35z"/>
	<path class="st33" d="M285.24,282.26c-35.89,0-45.73-41.54-45.73-67.41c0-42.45,14.94-75.43,48.65-75.43
		c36.07,0,45.73,38.26,45.73,67.23C333.89,251.83,316.58,282.26,285.24,282.26z M284.33,147.62c-13.66,0-23.5,18.77-23.5,60.31
		c0,31.52,7.83,66.14,27.88,66.14c14.76,0,23.87-24.96,23.87-60.31C312.57,182.23,304.19,147.62,284.33,147.62z"/>
</g>
<g>
	<path class="st33" d="M201.82,507c-1.68,0-3.22-0.28-4.64-0.84c-1.42-0.56-2.65-1.35-3.69-2.37c-1.04-1.02-1.85-2.22-2.43-3.59
		c-0.58-1.38-0.87-2.88-0.87-4.52c0-1.63,0.29-3.14,0.87-4.52c0.58-1.38,1.4-2.58,2.45-3.59c1.05-1.02,2.29-1.81,3.71-2.37
		c1.42-0.56,2.97-0.84,4.64-0.84c1.61,0,3.13,0.27,4.55,0.81c1.42,0.54,2.62,1.35,3.59,2.43l-1.5,1.5
		c-0.91-0.93-1.92-1.61-3.02-2.02c-1.1-0.41-2.29-0.62-3.56-0.62c-1.34,0-2.58,0.23-3.72,0.68c-1.15,0.46-2.14,1.1-2.99,1.94
		c-0.85,0.84-1.51,1.81-1.99,2.93c-0.48,1.11-0.72,2.34-0.72,3.67s0.24,2.56,0.72,3.67c0.48,1.11,1.14,2.09,1.99,2.93
		c0.85,0.84,1.85,1.48,2.99,1.94c1.15,0.46,2.39,0.68,3.72,0.68c1.27,0,2.46-0.21,3.56-0.64c1.1-0.42,2.11-1.1,3.02-2.04l1.5,1.5
		c-0.98,1.08-2.17,1.9-3.59,2.45C204.98,506.72,203.45,507,201.82,507z"/>
	<path class="st33" d="M230.93,506.81v-22.27h2.35v20.23h12.47v2.04H230.93z"/>
	<path class="st33" d="M274.13,507c-2.84,0-5.08-0.82-6.71-2.45c-1.63-1.63-2.45-4.05-2.45-7.25v-12.76h2.35v12.66
		c0,2.63,0.59,4.57,1.78,5.82c1.19,1.25,2.86,1.88,5.03,1.88c2.18,0,3.87-0.63,5.06-1.88c1.19-1.25,1.78-3.19,1.78-5.82v-12.66h2.29
		v12.76c0,3.2-0.81,5.62-2.43,7.25C279.2,506.18,276.97,507,274.13,507z"/>
	<path class="st33" d="M306.26,506.81v-22.27h9.61c2.48,0,4.41,0.5,5.77,1.5c1.37,1,2.05,2.41,2.05,4.23c0,1.21-0.28,2.23-0.84,3.05
		c-0.56,0.83-1.33,1.45-2.29,1.88c-0.96,0.42-2.02,0.64-3.17,0.64l0.54-0.76c1.42,0,2.65,0.22,3.67,0.65
		c1.03,0.43,1.83,1.08,2.4,1.94c0.57,0.86,0.86,1.92,0.86,3.2c0,1.89-0.7,3.35-2.08,4.39c-1.39,1.04-3.48,1.56-6.28,1.56H306.26z
		 M308.61,504.87h7.86c1.95,0,3.45-0.33,4.49-1c1.04-0.67,1.56-1.73,1.56-3.2c0-1.44-0.52-2.5-1.56-3.17c-1.04-0.67-2.53-1-4.49-1
		h-8.11v-1.94h7.35c1.78,0,3.17-0.34,4.15-1.02c0.99-0.68,1.48-1.69,1.48-3.02c0-1.36-0.49-2.37-1.48-3.04c-0.99-0.67-2.37-1-4.15-1
		h-7.09V504.87z"/>
</g>
<g>
	
		<linearGradient id="SVGID_00000157306826938990581250000008570530871633278349_" gradientUnits="userSpaceOnUse" x1="256.2453" y1="62.8729" x2="256.2453" y2="44.0393">
		<stop  offset="5.586590e-03" style="stop-color:#FDCF79"/>
		<stop  offset="1" style="stop-color:#8A6D35"/>
	</linearGradient>
	<path style="fill:url(#SVGID_00000157306826938990581250000008570530871633278349_);" d="M256.25,62.87c0,0-3.55-5.03-4.58-9.97
		c-1.35-6.51,2.2-8.86,4.58-8.86h0c2.38,0,5.93,2.35,4.58,8.86C259.79,57.85,256.24,62.87,256.25,62.87L256.25,62.87z"/>
	<g>
		
			<linearGradient id="SVGID_00000152958082048177561720000012403385222113792401_" gradientUnits="userSpaceOnUse" x1="187.617" y1="176.1399" x2="314.5197" y2="49.2372">
			<stop  offset="5.586590e-03" style="stop-color:#FDCF79"/>
			<stop  offset="1" style="stop-color:#8A6D35"/>
		</linearGradient>
		<path style="fill:url(#SVGID_00000152958082048177561720000012403385222113792401_);" d="M255.23,124.99
			c23.13,0,44.94,4.91,65.12,13.66l16.19-46.02c0,0-13.14,19.71-25.35,19.71c-12.05,0-14.39-17.37-14.39-17.37
			s-7.82,10.08-17.99,5.48c-13.14-5.95-22.6-37.39-22.6-37.39s-9.54,31.53-22.69,37.47c-10.17,4.6-17.99-5.48-17.99-5.48
			s-2.35,17.37-14.39,17.37c-12.2,0-25.35-19.71-25.35-19.71l15.89,45.18C212.04,129.59,233.9,124.99,255.23,124.99z M256.49,86.6
			l7.94,14.91l-7.94,14.91l-7.94-14.91L256.49,86.6z"/>
		
			<linearGradient id="SVGID_00000170984282804177703190000004952687275818720428_" gradientUnits="userSpaceOnUse" x1="288.2989" y1="157.161" x2="232.2661" y2="60.1094">
			<stop  offset="5.586590e-03" style="stop-color:#FDCF79"/>
			<stop  offset="1" style="stop-color:#8A6D35"/>
		</linearGradient>
		<path style="fill:url(#SVGID_00000170984282804177703190000004952687275818720428_);" d="M256.21,66.39
			c2.77,8.14,11.08,29.99,22.18,35.01c1.9,0.86,3.86,1.29,5.82,1.29c5.54,0,9.85-3.41,11.97-5.49c1.07,4.8,4.71,16.18,15.02,16.18
			c8.53,0,17.25-8.85,22.18-14.83l-13.62,38.73c-20.72-8.83-42.42-13.31-64.52-13.31c-20.69,0-42.43,4.34-62.94,12.57l-13.34-37.91
			c4.93,5.98,13.65,14.83,22.18,14.83c10.32,0,13.95-11.38,15.02-16.18c2.12,2.09,6.43,5.49,11.97,5.49c1.96,0,3.92-0.44,5.82-1.29
			C245.04,96.46,253.42,74.54,256.21,66.39 M256.21,63.07c0,0-9.54,31.53-22.69,37.47c-1.89,0.86-3.7,1.2-5.39,1.2
			c-7.42,0-12.6-6.68-12.6-6.68s-2.35,17.37-14.39,17.37c-12.2,0-25.35-19.71-25.35-19.71l15.89,45.18
			c20.36-8.31,42.22-12.9,63.55-12.9c23.13,0,44.94,4.91,65.12,13.66l16.19-46.02c0,0-13.14,19.71-25.35,19.71
			c-12.05,0-14.39-17.37-14.39-17.37s-5.19,6.68-12.6,6.68c-1.69,0-3.5-0.35-5.39-1.2C265.67,94.52,256.21,63.07,256.21,63.07
			L256.21,63.07z"/>
	</g>
	
		<linearGradient id="SVGID_00000059286512517923060700000000573934281688126080_" gradientUnits="userSpaceOnUse" x1="256.4167" y1="67.8038" x2="256.4167" y2="58.3384">
		<stop  offset="5.586590e-03" style="stop-color:#FDCF79"/>
		<stop  offset="1" style="stop-color:#8A6D35"/>
	</linearGradient>
	<path style="fill:url(#SVGID_00000059286512517923060700000000573934281688126080_);" d="M261.15,63.07c0,2.61-2.12,4.73-4.73,4.73
		s-4.73-2.12-4.73-4.73c0-2.61,2.12-4.73,4.73-4.73S261.15,60.46,261.15,63.07z"/>
	
		<linearGradient id="SVGID_00000171679590699917848610000016823393756656573094_" gradientUnits="userSpaceOnUse" x1="297.481" y1="97.6555" x2="297.481" y2="88.1901">
		<stop  offset="5.586590e-03" style="stop-color:#FDCF79"/>
		<stop  offset="1" style="stop-color:#8A6D35"/>
	</linearGradient>
	<path style="fill:url(#SVGID_00000171679590699917848610000016823393756656573094_);" d="M302.21,92.92c0,2.61-2.12,4.73-4.73,4.73
		c-2.61,0-4.73-2.12-4.73-4.73s2.12-4.73,4.73-4.73C300.09,88.19,302.21,90.31,302.21,92.92z"/>
	
		<linearGradient id="SVGID_00000065033536919341933760000016752422643468035236_" gradientUnits="userSpaceOnUse" x1="214.7699" y1="97.6555" x2="214.7699" y2="88.1901">
		<stop  offset="5.586590e-03" style="stop-color:#FDCF79"/>
		<stop  offset="1" style="stop-color:#8A6D35"/>
	</linearGradient>
	<path style="fill:url(#SVGID_00000065033536919341933760000016752422643468035236_);" d="M219.5,92.92c0,2.61-2.12,4.73-4.73,4.73
		s-4.73-2.12-4.73-4.73s2.12-4.73,4.73-4.73S219.5,90.31,219.5,92.92z"/>
	
		<linearGradient id="SVGID_00000075143765919358956700000014836318014432750990_" gradientUnits="userSpaceOnUse" x1="175.5986" y1="95.1799" x2="175.5986" y2="85.7145">
		<stop  offset="5.586590e-03" style="stop-color:#FDCF79"/>
		<stop  offset="1" style="stop-color:#8A6D35"/>
	</linearGradient>
	<path style="fill:url(#SVGID_00000075143765919358956700000014836318014432750990_);" d="M180.33,90.45c0,2.61-2.12,4.73-4.73,4.73
		s-4.73-2.12-4.73-4.73c0-2.61,2.12-4.73,4.73-4.73S180.33,87.83,180.33,90.45z"/>
	
		<linearGradient id="SVGID_00000113342234571678271440000001140958107941091748_" gradientUnits="userSpaceOnUse" x1="335.7057" y1="95.1799" x2="335.7057" y2="85.7145">
		<stop  offset="5.586590e-03" style="stop-color:#FDCF79"/>
		<stop  offset="1" style="stop-color:#8A6D35"/>
	</linearGradient>
	<path style="fill:url(#SVGID_00000113342234571678271440000001140958107941091748_);" d="M340.44,90.45c0,2.61-2.12,4.73-4.73,4.73
		c-2.61,0-4.73-2.12-4.73-4.73c0-2.61,2.12-4.73,4.73-4.73C338.32,85.71,340.44,87.83,340.44,90.45z"/>
</g>
</svg>
